STARTFONT 2.2
FONT -FontForge-STKaiti-Book-R-Normal--19-180-75-75-P-187-ISO10646-1
SIZE 18 75 75
FONTBOUNDINGBOX 23 25 -3 -6
METRICSSET 2
SWIDTH 1000 0
DWIDTH 19 0
SWIDTH1 1301 0
DWIDTH1 25 0
VVECTOR 9,15
COMMENT "Generated by fontforge, http://fontforge.sourceforge.net"
COMMENT "Copyright (c) 1991-1998, Changzhou SinoType Technology Co., Ltd.  All rights reserved."
STARTPROPERTIES 40
FOUNDRY "FontForge"
FAMILY_NAME "STKaiti"
WEIGHT_NAME "Book"
SLANT "R"
SETWIDTH_NAME "Normal"
ADD_STYLE_NAME ""
PIXEL_SIZE 19
POINT_SIZE 180
RESOLUTION_X 75
RESOLUTION_Y 75
SPACING "P"
AVERAGE_WIDTH 187
CHARSET_REGISTRY "ISO10646"
CHARSET_ENCODING "1"
FONTNAME_REGISTRY ""
CHARSET_COLLECTIONS "ASCII ISOLatin1Encoding ISO8859-2 ISO8859-5 ISO8859-7 ISO8859-9 ISO8859-4 JISX0208.1997 GB2312.1980 BIG5 Symbol ISO10646-1"
FONT_NAME "STKaiti"
FACE_NAME "STKaiti"
COPYRIGHT "Copyright (c) 1991-1998, Changzhou SinoType Technology Co., Ltd.  All rights reserved."
FONT_VERSION "1.02"
FONT_ASCENT 15
FONT_DESCENT 4
UNDERLINE_POSITION -3
UNDERLINE_THICKNESS 1
X_HEIGHT 6
CAP_HEIGHT 11
RAW_ASCENT 800
RAW_DESCENT 200
NORM_SPACE 5
RELATIVE_WEIGHT 40
RELATIVE_SETWIDTH 50
SUPERSCRIPT_X 0
SUPERSCRIPT_Y 12
SUPERSCRIPT_SIZE 1
SUBSCRIPT_X 0
SUBSCRIPT_Y 2
SUBSCRIPT_SIZE 1
FIGURE_WIDTH 9
AVG_LOWERCASE_WIDTH 96
AVG_UPPERCASE_WIDTH 134
ENDPROPERTIES
CHARS 25186
STARTCHAR space
ENCODING 32
SWIDTH 250 0
DWIDTH 5 0
BBX 1 1 0 0
BITMAP
00
ENDCHAR
STARTCHAR exclam
ENCODING 33
SWIDTH 219 0
DWIDTH 4 0
BBX 2 12 1 0
BITMAP
C0
C0
C0
40
40
40
40
40
00
00
40
C0
ENDCHAR
STARTCHAR quotedbl
ENCODING 34
SWIDTH 406 0
DWIDTH 8 0
BBX 5 6 1 7
BITMAP
C8
C8
C8
48
48
08
ENDCHAR
STARTCHAR numbersign
ENCODING 35
SWIDTH 667 0
DWIDTH 13 0
BBX 11 14 1 -1
BITMAP
0840
1080
1080
1080
FFE0
1080
2100
2100
2100
FFE0
2100
4200
4200
4200
ENDCHAR
STARTCHAR dollar
ENCODING 36
SWIDTH 448 0
DWIDTH 9 0
BBX 7 14 1 -1
BITMAP
20
78
AC
AE
A8
A8
68
38
2C
2A
AE
CC
78
30
ENDCHAR
STARTCHAR percent
ENCODING 37
SWIDTH 823 0
DWIDTH 16 0
BBX 14 13 1 -1
BITMAP
7020
9040
9040
9080
9100
9100
6238
0424
0444
0844
0844
1028
2010
ENDCHAR
STARTCHAR ampersand
ENCODING 38
SWIDTH 729 0
DWIDTH 14 0
BBX 12 11 1 0
BITMAP
3C00
2200
3200
3400
3870
4C40
8640
8380
8100
C280
7C70
ENDCHAR
STARTCHAR quotesingle
ENCODING 39
SWIDTH 177 0
DWIDTH 3 0
BBX 2 6 1 7
BITMAP
80
C0
80
80
80
80
ENDCHAR
STARTCHAR parenleft
ENCODING 40
SWIDTH 292 0
DWIDTH 6 0
BBX 5 16 1 -4
BITMAP
10
10
20
40
40
40
40
80
80
40
40
40
40
20
10
08
ENDCHAR
STARTCHAR parenright
ENCODING 41
SWIDTH 292 0
DWIDTH 6 0
BBX 4 16 0 -4
BITMAP
80
40
20
20
10
10
10
10
10
10
10
10
20
20
40
80
ENDCHAR
STARTCHAR asterisk
ENCODING 42
SWIDTH 427 0
DWIDTH 8 0
BBX 6 6 1 5
BITMAP
20
EC
30
68
A4
20
ENDCHAR
STARTCHAR plus
ENCODING 43
SWIDTH 667 0
DWIDTH 13 0
BBX 10 11 1 0
BITMAP
0400
0400
0400
0400
0400
FFC0
0400
0400
0400
0400
0400
ENDCHAR
STARTCHAR comma
ENCODING 44
SWIDTH 219 0
DWIDTH 4 0
BBX 3 4 1 -3
BITMAP
C0
20
40
C0
ENDCHAR
STARTCHAR hyphen
ENCODING 45
SWIDTH 313 0
DWIDTH 6 0
BBX 4 1 1 3
BITMAP
F0
ENDCHAR
STARTCHAR period
ENCODING 46
SWIDTH 219 0
DWIDTH 4 0
BBX 2 2 1 0
BITMAP
40
C0
ENDCHAR
STARTCHAR slash
ENCODING 47
SWIDTH 500 0
DWIDTH 10 0
BBX 7 16 1 -3
BITMAP
02
02
04
04
04
08
08
10
10
20
20
20
40
40
80
80
ENDCHAR
STARTCHAR zero
ENCODING 48
SWIDTH 469 0
DWIDTH 9 0
BBX 7 12 1 0
BITMAP
38
44
82
82
82
82
82
82
82
82
44
3C
ENDCHAR
STARTCHAR one
ENCODING 49
SWIDTH 469 0
DWIDTH 9 0
BBX 4 12 2 0
BITMAP
20
60
A0
20
20
20
20
20
20
20
20
70
ENDCHAR
STARTCHAR two
ENCODING 50
SWIDTH 469 0
DWIDTH 9 0
BBX 7 12 1 0
BITMAP
3C
44
86
06
06
04
08
10
20
40
82
FE
ENDCHAR
STARTCHAR three
ENCODING 51
SWIDTH 469 0
DWIDTH 9 0
BBX 7 12 1 0
BITMAP
38
44
84
04
08
1C
06
02
02
02
04
F8
ENDCHAR
STARTCHAR four
ENCODING 52
SWIDTH 469 0
DWIDTH 9 0
BBX 8 13 1 -1
BITMAP
04
0C
0C
1C
2C
4C
4C
8C
FF
0C
0C
0C
0C
ENDCHAR
STARTCHAR five
ENCODING 53
SWIDTH 469 0
DWIDTH 9 0
BBX 7 11 1 0
BITMAP
7C
40
40
78
4C
06
02
02
02
04
F8
ENDCHAR
STARTCHAR six
ENCODING 54
SWIDTH 469 0
DWIDTH 9 0
BBX 7 13 1 -1
BITMAP
0C
10
20
60
40
DC
84
82
82
82
C2
44
38
ENDCHAR
STARTCHAR seven
ENCODING 55
SWIDTH 469 0
DWIDTH 9 0
BBX 7 12 1 0
BITMAP
FE
82
04
04
04
08
08
10
10
10
10
20
ENDCHAR
STARTCHAR eight
ENCODING 56
SWIDTH 469 0
DWIDTH 9 0
BBX 7 12 1 0
BITMAP
3C
42
C2
C2
64
38
2C
46
82
82
42
7C
ENDCHAR
STARTCHAR nine
ENCODING 57
SWIDTH 469 0
DWIDTH 9 0
BBX 7 13 1 0
BITMAP
38
44
86
82
82
82
42
76
04
04
08
10
60
ENDCHAR
STARTCHAR colon
ENCODING 58
SWIDTH 219 0
DWIDTH 4 0
BBX 2 7 1 0
BITMAP
C0
00
00
00
00
C0
C0
ENDCHAR
STARTCHAR semicolon
ENCODING 59
SWIDTH 219 0
DWIDTH 4 0
BBX 3 11 1 -3
BITMAP
40
C0
00
00
00
00
C0
E0
20
40
80
ENDCHAR
STARTCHAR less
ENCODING 60
SWIDTH 667 0
DWIDTH 13 0
BBX 10 8 1 2
BITMAP
00C0
0700
1800
6000
E000
1800
0600
01C0
ENDCHAR
STARTCHAR equal
ENCODING 61
SWIDTH 667 0
DWIDTH 13 0
BBX 10 5 1 3
BITMAP
FFC0
0000
0000
0000
FFC0
ENDCHAR
STARTCHAR greater
ENCODING 62
SWIDTH 667 0
DWIDTH 13 0
BBX 10 9 1 1
BITMAP
6000
1800
0700
00C0
00C0
0300
1C00
6000
8000
ENDCHAR
STARTCHAR question
ENCODING 63
SWIDTH 365 0
DWIDTH 7 0
BBX 5 12 1 0
BITMAP
E0
10
08
08
08
08
78
40
40
00
40
C0
ENDCHAR
STARTCHAR at
ENCODING 64
SWIDTH 917 0
DWIDTH 17 0
BBX 16 18 2 -5
BITMAP
03E0
0C18
1004
2002
4002
41D2
8231
8421
8C22
8862
8842
88C4
8F49
4031
4002
2004
1818
07E0
ENDCHAR
STARTCHAR A
ENCODING 65
SWIDTH 677 0
DWIDTH 13 0
BBX 11 12 1 0
BITMAP
0400
0400
0A00
0A00
1300
1100
1F00
2180
2080
4080
40C0
F0E0
ENDCHAR
STARTCHAR B
ENCODING 66
SWIDTH 615 0
DWIDTH 12 0
BBX 11 12 0 0
BITMAP
FF00
3080
30C0
30C0
3180
3F00
30C0
3060
3060
3060
3040
7F80
ENDCHAR
STARTCHAR C
ENCODING 67
SWIDTH 635 0
DWIDTH 12 0
BBX 10 13 1 -1
BITMAP
0F80
30C0
2040
4000
C000
C000
C000
C000
C000
C000
4000
2040
1FC0
ENDCHAR
STARTCHAR D
ENCODING 68
SWIDTH 771 0
DWIDTH 15 0
BBX 13 12 1 0
BITMAP
FF80
61E0
6070
6030
6018
6018
6018
6018
6010
6030
6060
FF80
ENDCHAR
STARTCHAR E
ENCODING 69
SWIDTH 656 0
DWIDTH 12 0
BBX 11 12 1 0
BITMAP
7FC0
6040
6040
6080
6080
7F80
6080
6080
6000
6020
6060
FFE0
ENDCHAR
STARTCHAR F
ENCODING 70
SWIDTH 563 0
DWIDTH 11 0
BBX 9 12 1 0
BITMAP
7F80
6080
6000
6000
6100
7F00
6100
6000
6000
6000
6000
F800
ENDCHAR
STARTCHAR G
ENCODING 71
SWIDTH 771 0
DWIDTH 15 0
BBX 13 13 1 0
BITMAP
0FC0
3020
6010
4000
C000
C000
C000
C0F8
C030
C030
6030
3030
1FC0
ENDCHAR
STARTCHAR H
ENCODING 72
SWIDTH 760 0
DWIDTH 14 0
BBX 14 12 0 0
BITMAP
7878
3010
3010
3010
3010
3FF0
3010
3010
3010
3010
3010
F87C
ENDCHAR
STARTCHAR I
ENCODING 73
SWIDTH 354 0
DWIDTH 7 0
BBX 4 12 1 0
BITMAP
F0
20
20
20
20
20
20
20
20
20
20
F0
ENDCHAR
STARTCHAR J
ENCODING 74
SWIDTH 333 0
DWIDTH 6 0
BBX 6 17 -2 -5
BITMAP
3C
0C
0C
0C
0C
0C
0C
0C
0C
0C
0C
0C
0C
08
08
D0
60
ENDCHAR
STARTCHAR K
ENCODING 75
SWIDTH 740 0
DWIDTH 14 0
BBX 12 13 1 -1
BITMAP
F8F0
6040
6080
6100
6600
6800
6C00
6600
6100
6080
6060
60F0
1800
ENDCHAR
STARTCHAR L
ENCODING 76
SWIDTH 573 0
DWIDTH 11 0
BBX 10 12 1 0
BITMAP
F800
6000
6000
6000
6000
6000
6000
6000
6000
6040
60C0
FFC0
ENDCHAR
STARTCHAR M
ENCODING 77
SWIDTH 833 0
DWIDTH 16 0
BBX 15 12 0 0
BITMAP
F00E
381C
281C
2C2C
242C
262C
264C
234C
238C
218C
210C
7812
ENDCHAR
STARTCHAR N
ENCODING 78
SWIDTH 771 0
DWIDTH 15 0
BBX 13 12 1 0
BITMAP
E038
6010
7010
5810
4C10
4610
4310
4190
40D0
4070
4030
F010
ENDCHAR
STARTCHAR O
ENCODING 79
SWIDTH 781 0
DWIDTH 15 0
BBX 13 12 1 0
BITMAP
1F80
2060
6030
C010
C018
C018
C018
C018
C018
4010
2020
1FC0
ENDCHAR
STARTCHAR P
ENCODING 80
SWIDTH 563 0
DWIDTH 11 0
BBX 10 12 0 0
BITMAP
FF00
3180
30C0
30C0
3040
30C0
3180
3600
3000
3000
3000
3800
ENDCHAR
STARTCHAR Q
ENCODING 81
SWIDTH 771 0
DWIDTH 15 0
BBX 13 16 1 -4
BITMAP
0F80
3060
6030
4030
C018
C018
C018
C018
C010
4030
2020
18C0
0700
0180
00E0
0038
ENDCHAR
STARTCHAR R
ENCODING 82
SWIDTH 625 0
DWIDTH 12 0
BBX 12 12 0 0
BITMAP
7F80
3180
3080
3080
3080
3D00
3300
3100
3180
30C0
30E0
FC70
ENDCHAR
STARTCHAR S
ENCODING 83
SWIDTH 479 0
DWIDTH 9 0
BBX 7 12 1 0
BITMAP
7C
C4
82
80
40
30
0C
06
02
82
C6
FC
ENDCHAR
STARTCHAR T
ENCODING 84
SWIDTH 615 0
DWIDTH 12 0
BBX 12 13 0 0
BITMAP
0010
7FF0
C610
8610
0600
0600
0600
0600
0600
0600
0600
0600
0F00
ENDCHAR
STARTCHAR U
ENCODING 85
SWIDTH 708 0
DWIDTH 13 0
BBX 12 13 1 0
BITMAP
00F0
F020
6020
6020
6020
6020
6020
6020
6020
6040
6040
3080
1F00
ENDCHAR
STARTCHAR V
ENCODING 86
SWIDTH 677 0
DWIDTH 13 0
BBX 13 13 0 -1
BITMAP
F8F8
2020
3020
3020
1040
1840
0840
0C80
0480
0700
0700
0200
0200
ENDCHAR
STARTCHAR W
ENCODING 87
SWIDTH 885 0
DWIDTH 17 0
BBX 17 13 0 -1
BITMAP
FFBB80
631100
632100
212200
31C200
10C200
18C400
18C400
096800
0D2800
063000
063000
041000
ENDCHAR
STARTCHAR X
ENCODING 88
SWIDTH 698 0
DWIDTH 13 0
BBX 12 12 0 0
BITMAP
F870
3020
1840
0C80
0D00
0600
0300
0580
0880
1040
1060
7CF0
ENDCHAR
STARTCHAR Y
ENCODING 89
SWIDTH 656 0
DWIDTH 12 0
BBX 13 13 0 -1
BITMAP
F878
6020
3020
1840
1880
0D00
0700
0600
0200
0200
0200
0200
1F80
ENDCHAR
STARTCHAR Z
ENCODING 90
SWIDTH 656 0
DWIDTH 12 0
BBX 11 12 1 0
BITMAP
7FC0
8080
0100
0300
0600
0400
0800
1000
3020
2020
4060
FFE0
ENDCHAR
STARTCHAR bracketleft
ENCODING 91
SWIDTH 271 0
DWIDTH 5 0
BBX 4 16 2 -4
BITMAP
F0
80
80
80
80
80
80
80
80
80
80
80
80
80
80
F0
ENDCHAR
STARTCHAR backslash
ENCODING 92
SWIDTH 500 0
DWIDTH 10 0
BBX 7 15 1 -3
BITMAP
80
40
40
40
20
20
10
10
10
08
08
04
04
02
02
ENDCHAR
STARTCHAR bracketright
ENCODING 93
SWIDTH 271 0
DWIDTH 5 0
BBX 3 16 0 -4
BITMAP
E0
20
20
20
20
20
20
20
20
20
20
20
20
20
20
E0
ENDCHAR
STARTCHAR asciicircum
ENCODING 94
SWIDTH 500 0
DWIDTH 10 0
BBX 8 5 1 7
BITMAP
18
24
44
82
01
ENDCHAR
STARTCHAR underscore
ENCODING 95
SWIDTH 500 0
DWIDTH 10 0
BBX 10 1 0 -2
BITMAP
FFC0
ENDCHAR
STARTCHAR grave
ENCODING 96
SWIDTH 333 0
DWIDTH 6 0
BBX 3 3 2 9
BITMAP
80
40
20
ENDCHAR
STARTCHAR a
ENCODING 97
SWIDTH 406 0
DWIDTH 8 0
BBX 7 8 1 0
BITMAP
30
48
88
08
38
48
88
FE
ENDCHAR
STARTCHAR b
ENCODING 98
SWIDTH 510 0
DWIDTH 10 0
BBX 8 13 1 0
BITMAP
C0
C0
40
40
40
7C
46
43
41
41
43
42
BC
ENDCHAR
STARTCHAR c
ENCODING 99
SWIDTH 417 0
DWIDTH 8 0
BBX 6 8 1 0
BITMAP
38
4C
C0
80
80
80
C0
7C
ENDCHAR
STARTCHAR d
ENCODING 100
SWIDTH 500 0
DWIDTH 10 0
BBX 8 13 1 0
BITMAP
0E
02
02
02
02
3E
46
82
82
82
82
C6
7B
ENDCHAR
STARTCHAR e
ENCODING 101
SWIDTH 417 0
DWIDTH 8 0
BBX 6 8 1 0
BITMAP
78
84
FC
80
80
80
C4
78
ENDCHAR
STARTCHAR f
ENCODING 102
SWIDTH 323 0
DWIDTH 6 0
BBX 7 14 1 -1
BITMAP
1E
20
20
40
40
40
F8
40
40
40
40
40
60
98
ENDCHAR
STARTCHAR g
ENCODING 103
SWIDTH 448 0
DWIDTH 9 0
BBX 8 13 1 -5
BITMAP
38
47
46
46
44
3C
40
C0
3E
41
81
82
7C
ENDCHAR
STARTCHAR h
ENCODING 104
SWIDTH 510 0
DWIDTH 10 0
BBX 7 13 1 0
BITMAP
40
C0
40
40
40
4C
76
42
42
42
42
42
E2
ENDCHAR
STARTCHAR i
ENCODING 105
SWIDTH 229 0
DWIDTH 4 0
BBX 2 12 1 0
BITMAP
C0
00
00
00
40
C0
40
40
40
40
40
C0
ENDCHAR
STARTCHAR j
ENCODING 106
SWIDTH 229 0
DWIDTH 4 0
BBX 3 17 0 -5
BITMAP
60
00
00
00
20
60
20
20
20
20
20
20
20
20
20
40
80
ENDCHAR
STARTCHAR k
ENCODING 107
SWIDTH 469 0
DWIDTH 9 0
BBX 7 12 1 0
BITMAP
C0
40
40
40
40
4C
48
50
70
58
44
CE
ENDCHAR
STARTCHAR l
ENCODING 108
SWIDTH 229 0
DWIDTH 4 0
BBX 2 13 1 0
BITMAP
40
C0
40
40
40
40
40
40
40
40
40
40
C0
ENDCHAR
STARTCHAR m
ENCODING 109
SWIDTH 771 0
DWIDTH 15 0
BBX 14 8 0 0
BITMAP
2E70
7388
2108
2108
2108
2108
2108
F79C
ENDCHAR
STARTCHAR n
ENCODING 110
SWIDTH 510 0
DWIDTH 10 0
BBX 10 8 0 0
BITMAP
2F00
7100
2100
2100
2100
2100
2100
F3C0
ENDCHAR
STARTCHAR o
ENCODING 111
SWIDTH 510 0
DWIDTH 10 0
BBX 8 8 1 0
BITMAP
38
46
82
83
81
83
C2
7C
ENDCHAR
STARTCHAR p
ENCODING 112
SWIDTH 510 0
DWIDTH 10 0
BBX 8 14 1 -5
BITMAP
40
FC
C2
C1
C1
C1
C3
C6
FC
C0
C0
C0
C0
E0
ENDCHAR
STARTCHAR q
ENCODING 113
SWIDTH 490 0
DWIDTH 9 0
BBX 8 13 1 -5
BITMAP
7A
86
82
82
82
C2
C2
7E
02
02
02
02
0F
ENDCHAR
STARTCHAR r
ENCODING 114
SWIDTH 333 0
DWIDTH 6 0
BBX 5 8 1 0
BITMAP
48
D8
60
40
40
40
40
E0
ENDCHAR
STARTCHAR s
ENCODING 115
SWIDTH 365 0
DWIDTH 7 0
BBX 5 8 1 0
BITMAP
78
88
C0
70
18
08
88
70
ENDCHAR
STARTCHAR t
ENCODING 116
SWIDTH 292 0
DWIDTH 6 0
BBX 5 8 1 0
BITMAP
40
F8
40
40
40
40
40
70
ENDCHAR
STARTCHAR u
ENCODING 117
SWIDTH 490 0
DWIDTH 9 0
BBX 8 7 1 0
BITMAP
C6
42
42
42
42
46
7B
ENDCHAR
STARTCHAR v
ENCODING 118
SWIDTH 469 0
DWIDTH 9 0
BBX 9 8 0 -1
BITMAP
F780
6100
2200
2200
1400
1400
0800
0800
ENDCHAR
STARTCHAR w
ENCODING 119
SWIDTH 667 0
DWIDTH 13 0
BBX 13 8 0 -1
BITMAP
FF78
4210
6220
2320
3320
1540
1C80
0880
ENDCHAR
STARTCHAR x
ENCODING 120
SWIDTH 458 0
DWIDTH 9 0
BBX 8 8 0 -1
BITMAP
F7
62
34
18
08
14
22
67
ENDCHAR
STARTCHAR y
ENCODING 121
SWIDTH 417 0
DWIDTH 8 0
BBX 6 12 1 -5
BITMAP
C4
44
48
48
28
30
30
10
20
20
C0
80
ENDCHAR
STARTCHAR z
ENCODING 122
SWIDTH 427 0
DWIDTH 8 0
BBX 6 7 1 0
BITMAP
FC
88
10
10
20
44
FC
ENDCHAR
STARTCHAR braceleft
ENCODING 123
SWIDTH 479 0
DWIDTH 9 0
BBX 5 18 3 -5
BITMAP
10
20
60
60
60
20
20
40
80
40
20
20
20
60
60
20
20
18
ENDCHAR
STARTCHAR bar
ENCODING 124
SWIDTH 500 0
DWIDTH 10 0
BBX 1 16 4 -4
BITMAP
80
80
80
80
80
80
80
80
80
80
80
80
80
80
80
80
ENDCHAR
STARTCHAR braceright
ENCODING 125
SWIDTH 479 0
DWIDTH 9 0
BBX 5 18 2 -5
BITMAP
40
20
20
20
60
60
20
10
18
30
20
60
60
20
20
20
40
80
ENDCHAR
STARTCHAR asciitilde
ENCODING 126
SWIDTH 667 0
DWIDTH 13 0
BBX 10 3 1 4
BITMAP
7E40
8780
8000
ENDCHAR
STARTCHAR uni007F
ENCODING 127
SWIDTH 499 0
DWIDTH 9 0
BBX 1 1 0 0
BITMAP
00
ENDCHAR
STARTCHAR uni00A0
ENCODING 160
SWIDTH 250 0
DWIDTH 5 0
BBX 1 1 0 0
BITMAP
00
ENDCHAR
STARTCHAR exclamdown
ENCODING 161
SWIDTH 219 0
DWIDTH 4 0
BBX 2 12 1 -4
BITMAP
C0
C0
00
00
40
40
40
40
40
40
C0
C0
ENDCHAR
STARTCHAR cent
ENCODING 162
SWIDTH 417 0
DWIDTH 8 0
BBX 6 12 1 -2
BITMAP
08
08
3C
D4
90
90
A0
A0
44
38
40
40
ENDCHAR
STARTCHAR sterling
ENCODING 163
SWIDTH 573 0
DWIDTH 11 0
BBX 10 16 1 -4
BITMAP
03C0
0400
0400
0800
0800
0800
0800
1000
1000
1000
FC00
2000
2000
2040
5840
8780
ENDCHAR
STARTCHAR currency
ENCODING 164
BBX 13 13 3 -1
BITMAP
8F88
7070
4010
8008
8008
8008
8008
8008
8008
8008
4010
7070
8F88
ENDCHAR
STARTCHAR yen
ENCODING 165
SWIDTH 656 0
DWIDTH 12 0
BBX 13 12 0 0
BITMAP
F038
7020
3040
1880
0C80
0500
7FE0
0200
7FE0
0200
0200
0F80
ENDCHAR
STARTCHAR brokenbar
ENCODING 166
SWIDTH 500 0
DWIDTH 10 0
BBX 1 17 4 -5
BITMAP
80
80
80
80
80
80
00
00
00
00
80
80
80
80
80
80
80
ENDCHAR
STARTCHAR section
ENCODING 167
BBX 6 16 7 -2
BITMAP
78
88
88
80
40
60
F0
98
84
64
38
08
08
84
88
70
ENDCHAR
STARTCHAR dieresis
ENCODING 168
BBX 7 2 6 11
BITMAP
C6
C6
ENDCHAR
STARTCHAR copyright
ENCODING 169
SWIDTH 760 0
DWIDTH 14 0
BBX 13 13 1 0
BITMAP
0F80
3040
4FE0
9050
B048
B008
B008
B008
B008
98D0
4710
2020
1FC0
ENDCHAR
STARTCHAR ordfeminine
ENCODING 170
SWIDTH 260 0
DWIDTH 5 0
BBX 5 5 0 7
BITMAP
70
90
30
50
78
ENDCHAR
STARTCHAR guillemotleft
ENCODING 171
SWIDTH 365 0
DWIDTH 7 0
BBX 7 7 0 0
BITMAP
22
44
48
C8
4C
24
02
ENDCHAR
STARTCHAR logicalnot
ENCODING 172
SWIDTH 667 0
DWIDTH 13 0
BBX 10 6 1 3
BITMAP
FFC0
0040
0040
0040
0040
0040
ENDCHAR
STARTCHAR uni00AD
ENCODING 173
SWIDTH 313 0
DWIDTH 6 0
BBX 4 1 1 3
BITMAP
F0
ENDCHAR
STARTCHAR registered
ENCODING 174
SWIDTH 760 0
DWIDTH 14 0
BBX 13 13 1 0
BITMAP
0F80
3040
4020
9F10
9988
9988
9988
9F08
9A08
9910
7C90
2020
1FC0
ENDCHAR
STARTCHAR macron
ENCODING 175
SWIDTH 500 0
DWIDTH 10 0
BBX 10 1 0 14
BITMAP
FFC0
ENDCHAR
STARTCHAR degree
ENCODING 176
BBX 3 3 2 11
BITMAP
E0
A0
E0
ENDCHAR
STARTCHAR plusminus
ENCODING 177
BBX 11 14 4 -1
BITMAP
0400
0400
0400
0400
0400
FFE0
0400
0400
0400
0400
0400
0000
0000
FFE0
ENDCHAR
STARTCHAR uni00B2
ENCODING 178
SWIDTH 313 0
DWIDTH 6 0
BBX 4 6 1 6
BITMAP
70
90
10
20
40
F0
ENDCHAR
STARTCHAR uni00B3
ENCODING 179
SWIDTH 313 0
DWIDTH 6 0
BBX 4 7 1 5
BITMAP
60
90
20
70
10
10
E0
ENDCHAR
STARTCHAR acute
ENCODING 180
SWIDTH 333 0
DWIDTH 6 0
BBX 2 2 3 10
BITMAP
40
80
ENDCHAR
STARTCHAR mu
ENCODING 181
SWIDTH 532 0
DWIDTH 10 0
BBX 8 13 1 -5
BITMAP
40
44
44
44
84
84
46
BB
80
40
C0
C0
40
ENDCHAR
STARTCHAR paragraph
ENCODING 182
SWIDTH 448 0
DWIDTH 9 0
BBX 9 17 0 -4
BITMAP
3F80
F900
F900
F900
F900
F900
7900
0900
0900
0900
0900
0900
0900
0900
0900
0900
0900
ENDCHAR
STARTCHAR periodcentered
ENCODING 183
BBX 3 2 8 5
BITMAP
40
E0
ENDCHAR
STARTCHAR cedilla
ENCODING 184
SWIDTH 333 0
DWIDTH 6 0
BBX 3 3 0 -4
BITMAP
60
20
E0
ENDCHAR
STARTCHAR uni00B9
ENCODING 185
SWIDTH 313 0
DWIDTH 6 0
BBX 10 13 2 -1
BITMAP
C040
4080
4100
4100
4200
C400
0400
0800
1000
1000
2000
2000
4000
ENDCHAR
STARTCHAR ordmasculine
ENCODING 186
SWIDTH 333 0
DWIDTH 6 0
BBX 6 5 0 7
BITMAP
78
44
C4
44
38
ENDCHAR
STARTCHAR guillemotright
ENCODING 187
SWIDTH 365 0
DWIDTH 7 0
BBX 7 7 0 0
BITMAP
88
48
24
26
44
48
80
ENDCHAR
STARTCHAR onequarter
ENCODING 188
SWIDTH 813 0
DWIDTH 15 0
BBX 13 13 2 -1
BITMAP
C040
4080
4100
4100
4200
C410
0430
0850
1090
10F8
2010
2010
4000
ENDCHAR
STARTCHAR onehalf
ENCODING 189
SWIDTH 813 0
DWIDTH 15 0
BBX 13 13 2 -1
BITMAP
C040
4080
4100
4100
4200
C400
0470
0890
1010
1020
2048
20F8
4000
ENDCHAR
STARTCHAR threequarters
ENCODING 190
SWIDTH 823 0
DWIDTH 16 0
BBX 14 13 1 -1
BITMAP
6020
9040
2080
7080
1100
1208
E218
0428
0848
087C
1008
1008
2000
ENDCHAR
STARTCHAR questiondown
ENCODING 191
SWIDTH 365 0
DWIDTH 7 0
BBX 6 13 0 -5
BITMAP
08
08
00
08
08
38
78
80
80
80
40
3C
08
ENDCHAR
STARTCHAR Agrave
ENCODING 192
SWIDTH 677 0
DWIDTH 13 0
BBX 11 16 1 0
BITMAP
0800
0400
0200
0000
0400
0400
0A00
0A00
1300
1100
1F00
2180
2080
4080
40C0
F0E0
ENDCHAR
STARTCHAR Aacute
ENCODING 193
SWIDTH 677 0
DWIDTH 13 0
BBX 11 16 1 0
BITMAP
0300
0200
0400
0000
0400
0400
0A00
0A00
1300
1100
1F00
2180
2080
4080
40C0
F0E0
ENDCHAR
STARTCHAR Acircumflex
ENCODING 194
SWIDTH 677 0
DWIDTH 13 0
BBX 11 16 1 0
BITMAP
0400
0A00
1000
0000
0400
0400
0A00
0A00
1300
1100
1F00
2180
2080
4080
40C0
F0E0
ENDCHAR
STARTCHAR Atilde
ENCODING 195
SWIDTH 677 0
DWIDTH 13 0
BBX 11 15 1 0
BITMAP
0C00
0300
0000
0400
0400
0A00
0A00
1300
1100
1F00
2180
2080
4080
40C0
F0E0
ENDCHAR
STARTCHAR Adieresis
ENCODING 196
SWIDTH 677 0
DWIDTH 13 0
BBX 11 15 1 0
BITMAP
1100
1B00
0000
0400
0400
0A00
0A00
1300
1100
1F00
2180
2080
4080
40C0
F0E0
ENDCHAR
STARTCHAR Aring
ENCODING 197
SWIDTH 677 0
DWIDTH 13 0
BBX 11 15 1 0
BITMAP
0E00
0E00
0E00
0400
0400
0A00
0A00
1300
1100
1F00
2180
2080
4080
40C0
F0E0
ENDCHAR
STARTCHAR AE
ENCODING 198
SWIDTH 854 0
DWIDTH 16 0
BBX 17 12 -1 0
BITMAP
03FF00
02C300
02C100
04C000
04C400
0FFC00
08C400
10C000
10C080
20C080
20C100
F1FF00
ENDCHAR
STARTCHAR Ccedilla
ENCODING 199
SWIDTH 635 0
DWIDTH 12 0
BBX 10 16 1 -4
BITMAP
0F80
30C0
6040
C000
C000
C000
C000
C000
C000
4000
6040
18C0
0700
0200
0100
0600
ENDCHAR
STARTCHAR Egrave
ENCODING 200
SWIDTH 656 0
DWIDTH 12 0
BBX 11 16 1 0
BITMAP
0800
0400
0200
0000
7FC0
6040
6040
6080
6080
7F80
6080
6080
6000
6020
6060
FFE0
ENDCHAR
STARTCHAR Eacute
ENCODING 201
SWIDTH 656 0
DWIDTH 12 0
BBX 11 16 1 0
BITMAP
0200
0600
0800
0000
7FC0
6040
6040
6080
6080
7F80
6080
6080
6000
6020
6060
FFE0
ENDCHAR
STARTCHAR Ecircumflex
ENCODING 202
SWIDTH 656 0
DWIDTH 12 0
BBX 11 16 1 0
BITMAP
0400
0A00
1000
0000
7FC0
6040
6040
6080
6080
7F80
6080
6080
6000
6020
6060
FFE0
ENDCHAR
STARTCHAR Edieresis
ENCODING 203
SWIDTH 656 0
DWIDTH 12 0
BBX 11 15 1 0
BITMAP
0900
1900
0000
7FC0
6040
6040
6080
6080
7F80
6080
6080
6000
6020
6060
FFE0
ENDCHAR
STARTCHAR Igrave
ENCODING 204
SWIDTH 354 0
DWIDTH 7 0
BBX 5 16 1 0
BITMAP
40
20
10
00
F0
20
20
20
20
20
20
20
20
20
20
78
ENDCHAR
STARTCHAR Iacute
ENCODING 205
SWIDTH 354 0
DWIDTH 7 0
BBX 4 16 1 0
BITMAP
10
20
40
00
F0
20
20
20
20
20
20
20
20
20
20
F0
ENDCHAR
STARTCHAR Icircumflex
ENCODING 206
SWIDTH 354 0
DWIDTH 7 0
BBX 5 16 1 0
BITMAP
20
50
80
00
78
20
20
20
20
20
20
20
20
20
20
F0
ENDCHAR
STARTCHAR Idieresis
ENCODING 207
SWIDTH 354 0
DWIDTH 7 0
BBX 5 15 1 0
BITMAP
88
D8
00
78
20
20
20
20
20
20
20
20
20
20
F0
ENDCHAR
STARTCHAR Eth
ENCODING 208
SWIDTH 771 0
DWIDTH 15 0
BBX 14 12 0 0
BITMAP
7FC0
3070
3018
3018
300C
FE0C
300C
3008
3018
3010
3070
FF80
ENDCHAR
STARTCHAR Ntilde
ENCODING 209
SWIDTH 771 0
DWIDTH 15 0
BBX 13 15 1 0
BITMAP
0E00
0380
0000
E038
6010
7010
5810
4C10
4610
4310
4190
40D0
4070
4030
F010
ENDCHAR
STARTCHAR Ograve
ENCODING 210
SWIDTH 781 0
DWIDTH 15 0
BBX 13 16 1 0
BITMAP
0400
0200
0100
0000
1F80
2060
6030
C010
C018
C018
C018
C018
C018
4010
2020
1FC0
ENDCHAR
STARTCHAR Oacute
ENCODING 211
SWIDTH 781 0
DWIDTH 15 0
BBX 13 16 1 0
BITMAP
0180
0300
0000
0000
1F80
2060
6030
C010
C018
C018
C018
C018
C018
4010
2020
1FC0
ENDCHAR
STARTCHAR Ocircumflex
ENCODING 212
SWIDTH 781 0
DWIDTH 15 0
BBX 13 16 1 0
BITMAP
0200
0500
0880
0000
1F80
2060
6030
C010
C018
C018
C018
C018
C018
4010
2020
1FC0
ENDCHAR
STARTCHAR Otilde
ENCODING 213
SWIDTH 781 0
DWIDTH 15 0
BBX 13 15 1 0
BITMAP
0600
0180
0000
1F80
2060
6030
C010
C018
C018
C018
C018
C018
4010
2020
1FC0
ENDCHAR
STARTCHAR Odieresis
ENCODING 214
SWIDTH 781 0
DWIDTH 15 0
BBX 13 15 1 0
BITMAP
0480
0480
0000
1F80
2060
6030
C010
C018
C018
C018
C018
C018
4010
2020
1FC0
ENDCHAR
STARTCHAR multiply
ENCODING 215
BBX 11 11 4 0
BITMAP
8020
4040
2080
1100
0A00
0400
0A00
1100
2080
4040
8020
ENDCHAR
STARTCHAR Oslash
ENCODING 216
SWIDTH 781 0
DWIDTH 15 0
BBX 13 13 1 -1
BITMAP
1F90
2060
6070
C090
C118
C118
C218
C418
C818
5010
2020
38C0
4700
ENDCHAR
STARTCHAR Ugrave
ENCODING 217
SWIDTH 708 0
DWIDTH 13 0
BBX 12 16 1 0
BITMAP
0C00
0600
0000
00F0
F020
6020
6020
6020
6020
6020
6020
6020
6040
6040
3080
1F00
ENDCHAR
STARTCHAR Uacute
ENCODING 218
SWIDTH 708 0
DWIDTH 13 0
BBX 12 16 1 0
BITMAP
0100
0200
0400
00F0
F020
6020
6020
6020
6020
6020
6020
6020
6040
6040
3080
1F00
ENDCHAR
STARTCHAR Ucircumflex
ENCODING 219
SWIDTH 708 0
DWIDTH 13 0
BBX 12 16 1 0
BITMAP
0600
0A00
0800
00F0
F020
6020
6020
6020
6020
6020
6020
6020
6040
6040
3080
1F00
ENDCHAR
STARTCHAR Udieresis
ENCODING 220
SWIDTH 708 0
DWIDTH 13 0
BBX 12 15 1 0
BITMAP
0900
0980
00F0
F020
6020
6020
6020
6020
6020
6020
6020
6040
6040
3080
1F00
ENDCHAR
STARTCHAR Yacute
ENCODING 221
SWIDTH 656 0
DWIDTH 12 0
BBX 13 17 0 -1
BITMAP
0180
0300
0000
0000
F878
6020
3020
1840
1880
0D00
0700
0600
0200
0200
0200
0200
1F80
ENDCHAR
STARTCHAR Thorn
ENCODING 222
SWIDTH 563 0
DWIDTH 11 0
BBX 10 12 0 0
BITMAP
F800
3000
3000
3F80
31C0
30C0
3040
30C0
30C0
3F00
3000
3800
ENDCHAR
STARTCHAR germandbls
ENCODING 223
SWIDTH 500 0
DWIDTH 10 0
BBX 8 12 1 0
BITMAP
3C
42
42
42
44
48
46
43
43
43
43
CE
ENDCHAR
STARTCHAR agrave
ENCODING 224
SWIDTH 406 0
DWIDTH 8 0
BBX 6 12 1 0
BITMAP
60
20
10
00
38
48
88
18
28
48
98
EC
ENDCHAR
STARTCHAR aacute
ENCODING 225
SWIDTH 406 0
DWIDTH 8 0
BBX 6 12 1 0
BITMAP
08
10
20
00
38
48
88
18
28
48
98
EC
ENDCHAR
STARTCHAR acircumflex
ENCODING 226
SWIDTH 406 0
DWIDTH 8 0
BBX 7 12 1 0
BITMAP
10
28
40
00
30
48
88
08
38
48
88
FE
ENDCHAR
STARTCHAR atilde
ENCODING 227
SWIDTH 406 0
DWIDTH 8 0
BBX 7 11 1 0
BITMAP
64
98
00
30
48
88
08
38
48
88
FE
ENDCHAR
STARTCHAR adieresis
ENCODING 228
SWIDTH 406 0
DWIDTH 8 0
BBX 7 11 1 0
BITMAP
4C
00
00
30
48
88
08
38
48
88
FE
ENDCHAR
STARTCHAR aring
ENCODING 229
SWIDTH 406 0
DWIDTH 8 0
BBX 7 12 1 0
BITMAP
30
48
28
10
30
48
88
08
38
48
88
FE
ENDCHAR
STARTCHAR ae
ENCODING 230
SWIDTH 583 0
DWIDTH 11 0
BBX 10 8 1 0
BITMAP
3700
4880
8FC0
0800
3800
4800
9C40
E780
ENDCHAR
STARTCHAR ccedilla
ENCODING 231
SWIDTH 417 0
DWIDTH 8 0
BBX 6 12 1 -4
BITMAP
38
4C
C0
80
80
80
C0
7C
10
10
08
30
ENDCHAR
STARTCHAR egrave
ENCODING 232
SWIDTH 417 0
DWIDTH 8 0
BBX 6 12 1 0
BITMAP
20
10
08
00
38
44
FC
80
80
80
C4
78
ENDCHAR
STARTCHAR eacute
ENCODING 233
SWIDTH 417 0
DWIDTH 8 0
BBX 6 12 1 0
BITMAP
18
10
20
00
38
44
FC
80
80
80
C4
78
ENDCHAR
STARTCHAR ecircumflex
ENCODING 234
SWIDTH 417 0
DWIDTH 8 0
BBX 6 12 1 0
BITMAP
30
28
40
00
38
44
FC
80
80
80
C4
78
ENDCHAR
STARTCHAR edieresis
ENCODING 235
SWIDTH 417 0
DWIDTH 8 0
BBX 6 11 1 0
BITMAP
6C
00
00
78
84
FC
80
80
80
C4
78
ENDCHAR
STARTCHAR igrave
ENCODING 236
SWIDTH 229 0
DWIDTH 4 0
BBX 3 12 1 0
BITMAP
80
40
20
00
40
C0
40
40
40
40
40
C0
ENDCHAR
STARTCHAR iacute
ENCODING 237
SWIDTH 229 0
DWIDTH 4 0
BBX 3 12 1 0
BITMAP
20
40
80
00
40
C0
40
40
40
40
40
C0
ENDCHAR
STARTCHAR icircumflex
ENCODING 238
SWIDTH 229 0
DWIDTH 4 0
BBX 4 12 0 0
BITMAP
60
50
80
00
20
60
20
20
20
20
20
60
ENDCHAR
STARTCHAR idieresis
ENCODING 239
SWIDTH 229 0
DWIDTH 4 0
BBX 5 11 0 0
BITMAP
D8
00
00
20
60
20
20
20
20
20
60
ENDCHAR
STARTCHAR eth
ENCODING 240
SWIDTH 521 0
DWIDTH 10 0
BBX 8 12 1 0
BITMAP
34
08
34
02
3B
47
C1
81
81
81
C2
7E
ENDCHAR
STARTCHAR ntilde
ENCODING 241
SWIDTH 510 0
DWIDTH 10 0
BBX 10 11 0 0
BITMAP
1900
0600
0000
2F00
7100
2100
2100
2100
2100
2100
F3C0
ENDCHAR
STARTCHAR ograve
ENCODING 242
SWIDTH 510 0
DWIDTH 10 0
BBX 8 12 1 0
BITMAP
30
10
08
00
3C
46
83
81
81
83
46
3C
ENDCHAR
STARTCHAR oacute
ENCODING 243
SWIDTH 510 0
DWIDTH 10 0
BBX 8 12 1 0
BITMAP
08
10
20
00
3C
46
83
81
81
83
46
3C
ENDCHAR
STARTCHAR ocircumflex
ENCODING 244
SWIDTH 510 0
DWIDTH 10 0
BBX 8 12 1 0
BITMAP
18
14
00
00
38
46
82
83
81
83
C2
7C
ENDCHAR
STARTCHAR otilde
ENCODING 245
SWIDTH 510 0
DWIDTH 10 0
BBX 8 11 1 0
BITMAP
32
0C
00
38
46
82
83
81
83
C2
7C
ENDCHAR
STARTCHAR odieresis
ENCODING 246
SWIDTH 510 0
DWIDTH 10 0
BBX 8 11 1 0
BITMAP
26
00
00
38
46
82
83
81
83
C2
7C
ENDCHAR
STARTCHAR divide
ENCODING 247
BBX 13 10 3 1
BITMAP
0200
0200
0000
0000
0000
FFF8
0000
0000
0200
0200
ENDCHAR
STARTCHAR oslash
ENCODING 248
SWIDTH 510 0
DWIDTH 10 0
BBX 8 9 1 -1
BITMAP
38
46
86
8B
91
A3
C2
64
18
ENDCHAR
STARTCHAR ugrave
ENCODING 249
SWIDTH 490 0
DWIDTH 9 0
BBX 8 12 1 0
BITMAP
20
10
08
00
00
CE
42
42
42
42
46
7B
ENDCHAR
STARTCHAR uacute
ENCODING 250
SWIDTH 490 0
DWIDTH 9 0
BBX 8 12 1 0
BITMAP
08
10
20
00
00
CE
42
42
42
42
46
7B
ENDCHAR
STARTCHAR ucircumflex
ENCODING 251
SWIDTH 490 0
DWIDTH 9 0
BBX 8 12 1 0
BITMAP
18
28
04
00
00
C6
42
42
42
42
46
7B
ENDCHAR
STARTCHAR udieresis
ENCODING 252
SWIDTH 490 0
DWIDTH 9 0
BBX 8 11 1 0
BITMAP
6C
00
00
00
CE
42
42
42
42
46
7B
ENDCHAR
STARTCHAR yacute
ENCODING 253
SWIDTH 417 0
DWIDTH 8 0
BBX 6 17 1 -5
BITMAP
08
10
20
00
00
C4
44
48
48
28
30
30
10
20
20
40
80
ENDCHAR
STARTCHAR thorn
ENCODING 254
SWIDTH 510 0
DWIDTH 10 0
BBX 9 17 0 -5
BITMAP
E000
6000
6000
6000
7E00
6100
6180
6080
6080
6180
6100
7E00
6000
6000
6000
6000
F000
ENDCHAR
STARTCHAR ydieresis
ENCODING 255
SWIDTH 417 0
DWIDTH 8 0
BBX 6 16 1 -5
BITMAP
4C
00
00
00
C4
44
48
48
28
30
30
10
20
20
C0
80
ENDCHAR
STARTCHAR Amacron
ENCODING 256
SWIDTH 677 0
DWIDTH 13 0
BBX 11 15 1 0
BITMAP
1F00
0000
0000
0400
0400
0A00
0A00
1300
1100
1F00
2180
2080
4080
40C0
F0E0
ENDCHAR
STARTCHAR amacron
ENCODING 257
SWIDTH 406 0
DWIDTH 8 0
BBX 6 11 1 0
BITMAP
7C
00
00
38
48
88
18
28
48
98
EC
ENDCHAR
STARTCHAR Abreve
ENCODING 258
SWIDTH 677 0
DWIDTH 13 0
BBX 11 16 1 0
BITMAP
1100
0900
0E00
0000
0400
0400
0A00
0A00
1300
1100
1F00
2180
2080
4080
40C0
F0E0
ENDCHAR
STARTCHAR abreve
ENCODING 259
SWIDTH 406 0
DWIDTH 8 0
BBX 7 11 1 0
BITMAP
44
48
38
30
48
88
08
38
48
88
FE
ENDCHAR
STARTCHAR Aogonek
ENCODING 260
SWIDTH 667 0
DWIDTH 13 0
BBX 12 15 1 -3
BITMAP
0400
0400
0A00
0A00
1300
1100
1F00
2180
2080
4080
40C0
F0E0
0040
0040
0070
ENDCHAR
STARTCHAR aogonek
ENCODING 261
SWIDTH 406 0
DWIDTH 8 0
BBX 8 11 1 -3
BITMAP
30
48
88
08
38
48
88
FE
08
08
07
ENDCHAR
STARTCHAR Cacute
ENCODING 262
SWIDTH 635 0
DWIDTH 12 0
BBX 10 17 1 -1
BITMAP
0100
0200
0400
0000
0F80
30C0
2040
4000
C000
C000
C000
C000
C000
C000
4000
2040
1FC0
ENDCHAR
STARTCHAR cacute
ENCODING 263
SWIDTH 417 0
DWIDTH 8 0
BBX 6 12 1 0
BITMAP
0C
18
20
00
38
4C
C0
80
80
80
C0
7C
ENDCHAR
STARTCHAR Ccircumflex
ENCODING 264
SWIDTH 635 0
DWIDTH 12 0
BBX 10 17 1 -1
BITMAP
0200
0500
0000
0000
0F80
30C0
2040
4000
C000
C000
C000
C000
C000
C000
4000
2040
1FC0
ENDCHAR
STARTCHAR ccircumflex
ENCODING 265
SWIDTH 417 0
DWIDTH 8 0
BBX 6 12 1 0
BITMAP
10
28
04
00
38
4C
C0
80
80
80
C0
7C
ENDCHAR
STARTCHAR Cdotaccent
ENCODING 266
SWIDTH 635 0
DWIDTH 12 0
BBX 10 16 1 -1
BITMAP
0200
0200
0000
0F80
30C0
2040
4000
C000
C000
C000
C000
C000
C000
4000
2040
1FC0
ENDCHAR
STARTCHAR cdotaccent
ENCODING 267
SWIDTH 417 0
DWIDTH 8 0
BBX 6 11 1 0
BITMAP
10
00
00
38
4C
C0
80
80
80
C0
7C
ENDCHAR
STARTCHAR Ccaron
ENCODING 268
SWIDTH 635 0
DWIDTH 12 0
BBX 10 17 1 -1
BITMAP
0900
0600
0200
0000
0F80
30C0
2040
4000
C000
C000
C000
C000
C000
C000
4000
2040
1FC0
ENDCHAR
STARTCHAR ccaron
ENCODING 269
SWIDTH 417 0
DWIDTH 8 0
BBX 6 12 1 0
BITMAP
20
18
10
00
38
4C
C0
80
80
80
C0
7C
ENDCHAR
STARTCHAR Dcaron
ENCODING 270
SWIDTH 771 0
DWIDTH 15 0
BBX 13 16 1 0
BITMAP
0200
0A00
0400
0000
FF80
61E0
6070
6030
6018
6018
6018
6018
6010
6030
6060
FF80
ENDCHAR
STARTCHAR dcaron
ENCODING 271
SWIDTH 646 0
DWIDTH 12 0
BBX 11 13 1 0
BITMAP
0E00
02E0
0220
0240
0280
3E00
4600
8200
8200
8200
8200
C600
7B00
ENDCHAR
STARTCHAR Eth.dup1
ENCODING 272
SWIDTH 771 0
DWIDTH 15 0
BBX 14 12 0 0
BITMAP
7FC0
3070
3018
3018
300C
FE0C
300C
3008
3018
3010
3070
FF80
ENDCHAR
STARTCHAR dcroat
ENCODING 273
SWIDTH 500 0
DWIDTH 10 0
BBX 9 13 1 0
BITMAP
0600
0200
0200
1F80
0200
0200
3E00
C600
8200
8200
8200
C600
7B00
ENDCHAR
STARTCHAR Emacron
ENCODING 274
SWIDTH 656 0
DWIDTH 12 0
BBX 11 15 1 0
BITMAP
1F00
0000
0000
7FC0
6040
6040
6080
6080
7F80
6080
6080
6000
6020
6060
FFE0
ENDCHAR
STARTCHAR emacron
ENCODING 275
SWIDTH 417 0
DWIDTH 8 0
BBX 6 11 1 0
BITMAP
F8
00
00
38
44
FC
80
80
80
C4
78
ENDCHAR
STARTCHAR Ebreve
ENCODING 276
SWIDTH 656 0
DWIDTH 12 0
BBX 11 16 1 0
BITMAP
1100
1200
0E00
0000
7FC0
6040
6040
6080
6080
7F80
6080
6080
6000
6020
6060
FFE0
ENDCHAR
STARTCHAR ebreve
ENCODING 277
SWIDTH 417 0
DWIDTH 8 0
BBX 6 11 1 0
BITMAP
04
48
38
48
84
FC
80
80
80
C4
78
ENDCHAR
STARTCHAR Edotaccent
ENCODING 278
SWIDTH 656 0
DWIDTH 12 0
BBX 11 15 1 0
BITMAP
0400
0400
0000
7FC0
6040
6040
6080
6080
7F80
6080
6080
6000
6020
6060
FFE0
ENDCHAR
STARTCHAR edotaccent
ENCODING 279
SWIDTH 417 0
DWIDTH 8 0
BBX 6 11 1 0
BITMAP
10
00
00
78
84
FC
80
80
80
C4
78
ENDCHAR
STARTCHAR Eogonek
ENCODING 280
SWIDTH 656 0
DWIDTH 12 0
BBX 11 15 1 -3
BITMAP
7FC0
6040
6040
6080
6080
7F80
6080
6080
6000
6020
6060
FFE0
0200
0200
0180
ENDCHAR
STARTCHAR eogonek
ENCODING 281
SWIDTH 417 0
DWIDTH 8 0
BBX 6 11 1 -3
BITMAP
78
84
FC
80
80
80
C4
78
20
20
18
ENDCHAR
STARTCHAR Ecaron
ENCODING 282
SWIDTH 656 0
DWIDTH 12 0
BBX 11 15 1 0
BITMAP
0A00
0400
0000
7FC0
6040
6040
6080
6080
7F80
6080
6080
6000
6020
6060
FFE0
ENDCHAR
STARTCHAR ecaron
ENCODING 283
SWIDTH 417 0
DWIDTH 8 0
BBX 6 12 1 0
BITMAP
48
30
30
00
38
44
FC
80
80
80
C4
78
ENDCHAR
STARTCHAR Gcircumflex
ENCODING 284
SWIDTH 771 0
DWIDTH 15 0
BBX 13 16 1 0
BITMAP
0100
0280
0400
0FC0
3020
6010
4000
C000
C000
C000
C0F8
C030
C030
6030
3030
1FC0
ENDCHAR
STARTCHAR gcircumflex
ENCODING 285
SWIDTH 448 0
DWIDTH 9 0
BBX 8 17 1 -5
BITMAP
08
14
20
00
38
47
46
46
44
3C
40
C0
3E
41
81
82
7C
ENDCHAR
STARTCHAR Gbreve
ENCODING 286
SWIDTH 771 0
DWIDTH 15 0
BBX 13 16 1 0
BITMAP
0800
0480
0700
0FC0
3020
6010
4000
C000
C000
C000
C0F8
C030
C030
6030
3030
1FC0
ENDCHAR
STARTCHAR gbreve
ENCODING 287
SWIDTH 448 0
DWIDTH 9 0
BBX 8 15 1 -5
BITMAP
24
18
38
47
46
46
44
3C
40
C0
3E
41
81
82
7C
ENDCHAR
STARTCHAR Gdotaccent
ENCODING 288
SWIDTH 771 0
DWIDTH 15 0
BBX 13 14 1 0
BITMAP
0300
0FC0
3020
6010
4000
C000
C000
C000
C0F8
C030
C030
6030
3030
1FC0
ENDCHAR
STARTCHAR gdotaccent
ENCODING 289
SWIDTH 448 0
DWIDTH 9 0
BBX 8 16 1 -5
BITMAP
18
00
00
38
47
46
46
44
3C
40
C0
3E
41
81
82
7C
ENDCHAR
STARTCHAR uni0122
ENCODING 290
SWIDTH 771 0
DWIDTH 15 0
BBX 13 19 1 -6
BITMAP
0FC0
3020
6010
4000
C000
C000
C000
C0F8
C030
C030
6030
3030
1FC0
0000
0200
0300
0100
0200
0400
ENDCHAR
STARTCHAR uni0123
ENCODING 291
SWIDTH 448 0
DWIDTH 9 0
BBX 8 18 1 -5
BITMAP
08
10
10
18
08
38
47
46
46
44
3C
40
C0
3E
41
81
82
7C
ENDCHAR
STARTCHAR Hcircumflex
ENCODING 292
SWIDTH 760 0
DWIDTH 14 0
BBX 14 16 0 0
BITMAP
0100
0280
0040
0000
7878
3010
3010
3010
3010
3FF0
3010
3010
3010
3010
3010
F87C
ENDCHAR
STARTCHAR hcircumflex
ENCODING 293
SWIDTH 510 0
DWIDTH 10 0
BBX 7 16 1 0
BITMAP
18
24
00
40
C0
40
40
40
4C
76
42
42
42
42
42
E2
ENDCHAR
STARTCHAR Hbar
ENCODING 294
SWIDTH 760 0
DWIDTH 14 0
BBX 14 12 0 0
BITMAP
7878
3010
3010
7FFC
3010
3FF0
3010
3010
3010
3010
3010
F87C
ENDCHAR
STARTCHAR hbar
ENCODING 295
SWIDTH 510 0
DWIDTH 10 0
BBX 8 13 0 0
BITMAP
60
20
20
F8
20
20
3F
21
21
21
21
21
71
ENDCHAR
STARTCHAR Itilde
ENCODING 296
SWIDTH 354 0
DWIDTH 7 0
BBX 5 15 1 0
BITMAP
E0
38
00
78
20
20
20
20
20
20
20
20
20
20
F0
ENDCHAR
STARTCHAR itilde
ENCODING 297
SWIDTH 229 0
DWIDTH 4 0
BBX 5 11 0 0
BITMAP
E0
38
00
20
60
20
20
20
20
20
60
ENDCHAR
STARTCHAR Imacron
ENCODING 298
SWIDTH 354 0
DWIDTH 7 0
BBX 5 15 1 0
BITMAP
F8
00
00
F0
20
20
20
20
20
20
20
20
20
20
F0
ENDCHAR
STARTCHAR imacron
ENCODING 299
SWIDTH 229 0
DWIDTH 4 0
BBX 4 11 0 0
BITMAP
F0
00
00
20
60
20
20
20
20
20
60
ENDCHAR
STARTCHAR Ibreve
ENCODING 300
SWIDTH 354 0
DWIDTH 7 0
BBX 5 16 1 0
BITMAP
08
90
70
00
78
20
20
20
20
20
20
20
20
20
20
F0
ENDCHAR
STARTCHAR ibreve
ENCODING 301
SWIDTH 229 0
DWIDTH 4 0
BBX 5 12 0 0
BITMAP
88
90
70
00
20
60
20
20
20
20
20
60
ENDCHAR
STARTCHAR Iogonek
ENCODING 302
SWIDTH 354 0
DWIDTH 7 0
BBX 5 15 1 -3
BITMAP
78
20
20
20
20
20
20
20
20
20
20
F8
40
40
78
ENDCHAR
STARTCHAR iogonek
ENCODING 303
SWIDTH 229 0
DWIDTH 4 0
BBX 3 15 1 -3
BITMAP
C0
00
00
00
40
C0
40
40
40
40
40
C0
80
80
E0
ENDCHAR
STARTCHAR Idotaccent
ENCODING 304
SWIDTH 354 0
DWIDTH 7 0
BBX 4 15 1 0
BITMAP
20
00
00
F0
20
20
20
20
20
20
20
20
20
20
F0
ENDCHAR
STARTCHAR dotlessi
ENCODING 305
SWIDTH 229 0
DWIDTH 4 0
BBX 2 8 1 0
BITMAP
40
C0
40
40
40
40
40
C0
ENDCHAR
STARTCHAR IJ
ENCODING 306
SWIDTH 688 0
DWIDTH 13 0
BBX 10 17 1 -5
BITMAP
F3C0
20C0
20C0
20C0
20C0
20C0
20C0
20C0
20C0
20C0
20C0
78C0
0080
0080
0080
0900
0E00
ENDCHAR
STARTCHAR ij
ENCODING 307
SWIDTH 479 0
DWIDTH 9 0
BBX 7 17 1 -5
BITMAP
C6
00
00
00
42
C6
46
46
46
46
46
C6
06
06
04
04
08
ENDCHAR
STARTCHAR Jcircumflex
ENCODING 308
SWIDTH 333 0
DWIDTH 6 0
BBX 6 21 -2 -5
BITMAP
0C
14
00
00
3C
0C
0C
0C
0C
0C
0C
0C
0C
0C
0C
0C
0C
08
08
D0
60
ENDCHAR
STARTCHAR jcircumflex
ENCODING 309
SWIDTH 229 0
DWIDTH 4 0
BBX 4 17 0 -5
BITMAP
20
50
80
00
20
60
20
20
20
20
20
20
20
20
20
40
80
ENDCHAR
STARTCHAR uni0136
ENCODING 310
SWIDTH 740 0
DWIDTH 14 0
BBX 12 16 1 -4
BITMAP
F8F0
6040
6080
6100
6600
6800
6C00
6600
6100
6080
6060
60F0
1800
0200
0100
0600
ENDCHAR
STARTCHAR uni0137
ENCODING 311
SWIDTH 469 0
DWIDTH 9 0
BBX 7 16 1 -4
BITMAP
C0
40
40
40
40
4C
48
50
70
58
44
CE
00
18
08
10
ENDCHAR
STARTCHAR kgreenlandic
ENCODING 312
SWIDTH 469 0
DWIDTH 9 0
BBX 7 7 1 0
BITMAP
84
88
90
A0
90
8C
86
ENDCHAR
STARTCHAR Lacute
ENCODING 313
SWIDTH 573 0
DWIDTH 11 0
BBX 10 16 1 0
BITMAP
0600
0C00
1000
0000
F800
6000
6000
6000
6000
6000
6000
6000
6000
6040
60C0
FFC0
ENDCHAR
STARTCHAR lacute
ENCODING 314
SWIDTH 229 0
DWIDTH 4 0
BBX 3 15 1 0
BITMAP
60
C0
40
C0
40
40
40
40
40
40
40
40
40
40
C0
ENDCHAR
STARTCHAR uni013B
ENCODING 315
SWIDTH 573 0
DWIDTH 11 0
BBX 10 16 1 -4
BITMAP
F800
6000
6000
6000
6000
6000
6000
6000
6000
6040
60C0
FFC0
0000
0C00
0200
0C00
ENDCHAR
STARTCHAR uni013C
ENCODING 316
SWIDTH 229 0
DWIDTH 4 0
BBX 3 17 1 -4
BITMAP
40
C0
40
40
40
40
40
40
40
40
40
40
C0
00
C0
20
C0
ENDCHAR
STARTCHAR Lcaron
ENCODING 317
SWIDTH 573 0
DWIDTH 11 0
BBX 10 12 1 0
BITMAP
FB80
6180
6080
6100
6000
6000
6000
6000
6000
6040
60C0
FFC0
ENDCHAR
STARTCHAR lcaron
ENCODING 318
SWIDTH 375 0
DWIDTH 7 0
BBX 6 13 1 0
BITMAP
40
D8
44
48
50
40
40
40
40
40
40
40
C0
ENDCHAR
STARTCHAR Ldot
ENCODING 319
SWIDTH 573 0
DWIDTH 11 0
BBX 10 12 1 0
BITMAP
F800
6000
6000
6000
6000
6200
6200
6000
6000
6040
60C0
FFC0
ENDCHAR
STARTCHAR ldot
ENCODING 320
SWIDTH 328 0
DWIDTH 6 0
BBX 5 13 1 0
BITMAP
40
C0
40
40
40
40
58
40
40
40
40
40
C0
ENDCHAR
STARTCHAR Lslash
ENCODING 321
SWIDTH 604 0
DWIDTH 11 0
BBX 11 12 0 0
BITMAP
7C00
3000
3000
3400
3800
3000
3000
7000
B000
3020
3060
7FE0
ENDCHAR
STARTCHAR lslash
ENCODING 322
SWIDTH 313 0
DWIDTH 6 0
BBX 4 12 1 0
BITMAP
E0
60
60
60
70
60
60
E0
60
60
60
60
ENDCHAR
STARTCHAR Nacute
ENCODING 323
SWIDTH 771 0
DWIDTH 15 0
BBX 13 16 1 0
BITMAP
0100
0200
0400
0000
E038
6010
7010
5810
4C10
4610
4310
4190
40D0
4070
4030
F010
ENDCHAR
STARTCHAR nacute
ENCODING 324
SWIDTH 510 0
DWIDTH 10 0
BBX 10 12 0 0
BITMAP
0400
0800
0000
0000
2E00
7100
2100
2100
2100
2100
2100
F3C0
ENDCHAR
STARTCHAR uni0145
ENCODING 325
SWIDTH 771 0
DWIDTH 15 0
BBX 13 16 1 -4
BITMAP
E038
6010
7010
5810
4C10
4610
4310
4190
40D0
4070
4030
F010
0000
0300
0100
0300
ENDCHAR
STARTCHAR uni0146
ENCODING 326
SWIDTH 510 0
DWIDTH 10 0
BBX 10 12 0 -4
BITMAP
2F00
7100
2100
2100
2100
2100
2100
F3C0
0000
0C00
0200
0C00
ENDCHAR
STARTCHAR Ncaron
ENCODING 327
SWIDTH 771 0
DWIDTH 15 0
BBX 13 15 1 0
BITMAP
0500
0200
0000
E038
6010
7010
5810
4C10
4610
4310
4190
40D0
4070
4030
F010
ENDCHAR
STARTCHAR ncaron
ENCODING 328
SWIDTH 510 0
DWIDTH 10 0
BBX 10 12 0 0
BITMAP
1200
0C00
0400
0000
2E00
7100
2100
2100
2100
2100
2100
F3C0
ENDCHAR
STARTCHAR napostrophe
ENCODING 329
SWIDTH 667 0
DWIDTH 13 0
BBX 12 12 1 0
BITMAP
C000
6000
4000
4000
8BC0
1C40
0840
0840
0840
0840
0840
3EF0
ENDCHAR
STARTCHAR Eng
ENCODING 330
BBX 11 12 2 0
BITMAP
4F80
D0C0
6060
4060
4060
4020
4020
4020
4C60
4C60
4840
E780
ENDCHAR
STARTCHAR eng
ENCODING 331
SWIDTH 473 0
DWIDTH 9 0
BBX 8 13 0 -5
BITMAP
3E
61
21
21
21
21
21
F1
01
01
01
09
0E
ENDCHAR
STARTCHAR Omacron
ENCODING 332
SWIDTH 781 0
DWIDTH 15 0
BBX 13 15 1 0
BITMAP
0F80
0000
0000
1F80
2060
6030
C010
C018
C018
C018
C018
C018
4010
2020
1FC0
ENDCHAR
STARTCHAR omacron
ENCODING 333
SWIDTH 510 0
DWIDTH 10 0
BBX 8 11 1 0
BITMAP
3E
00
00
3C
46
83
81
81
83
46
3C
ENDCHAR
STARTCHAR Obreve
ENCODING 334
SWIDTH 781 0
DWIDTH 15 0
BBX 13 16 1 0
BITMAP
0880
0900
0700
0000
1F80
2060
6030
C010
C018
C018
C018
C018
C018
4010
2020
1FC0
ENDCHAR
STARTCHAR obreve
ENCODING 335
SWIDTH 510 0
DWIDTH 10 0
BBX 8 10 1 0
BITMAP
24
18
38
46
82
83
81
83
C2
7C
ENDCHAR
STARTCHAR Ohungarumlaut
ENCODING 336
SWIDTH 781 0
DWIDTH 15 0
BBX 13 16 1 0
BITMAP
0340
0280
0500
0000
1F80
2060
6030
C010
C018
C018
C018
C018
C018
4010
2020
1FC0
ENDCHAR
STARTCHAR ohungarumlaut
ENCODING 337
SWIDTH 510 0
DWIDTH 10 0
BBX 8 12 1 0
BITMAP
0A
14
28
00
38
46
82
83
81
83
C2
7C
ENDCHAR
STARTCHAR OE
ENCODING 338
SWIDTH 938 0
DWIDTH 18 0
BBX 16 12 1 0
BITMAP
1FFF
20C1
40C1
C0C0
C0C2
C0C2
C0FE
C0C2
C0C2
40C1
60C1
1FFF
ENDCHAR
STARTCHAR oe
ENCODING 339
SWIDTH 698 0
DWIDTH 13 0
BBX 12 7 1 0
BITMAP
7DC0
8620
83F0
8200
8200
C620
7DC0
ENDCHAR
STARTCHAR Racute
ENCODING 340
SWIDTH 625 0
DWIDTH 12 0
BBX 12 16 0 0
BITMAP
0200
0400
0800
0000
7F80
3180
3080
3080
3080
3D00
3300
3100
3180
30C0
30E0
FC70
ENDCHAR
STARTCHAR racute
ENCODING 341
SWIDTH 333 0
DWIDTH 6 0
BBX 5 12 1 0
BITMAP
18
30
40
00
48
D8
60
40
40
40
40
E0
ENDCHAR
STARTCHAR uni0156
ENCODING 342
SWIDTH 625 0
DWIDTH 12 0
BBX 12 16 0 -4
BITMAP
7F80
3180
3080
3080
3080
3D00
3300
3100
3180
30C0
30E0
FC70
0000
0600
0100
0600
ENDCHAR
STARTCHAR uni0157
ENCODING 343
SWIDTH 333 0
DWIDTH 6 0
BBX 5 12 1 -4
BITMAP
48
D8
60
40
40
40
40
E0
00
60
20
60
ENDCHAR
STARTCHAR Rcaron
ENCODING 344
SWIDTH 625 0
DWIDTH 12 0
BBX 12 16 0 0
BITMAP
1200
0A00
0400
0000
7F80
3180
3080
3080
3080
3D00
3300
3100
3180
30C0
30E0
FC70
ENDCHAR
STARTCHAR rcaron
ENCODING 345
SWIDTH 333 0
DWIDTH 6 0
BBX 5 12 1 0
BITMAP
48
50
20
00
48
D8
60
40
40
40
40
E0
ENDCHAR
STARTCHAR Sacute
ENCODING 346
SWIDTH 479 0
DWIDTH 9 0
BBX 7 16 1 0
BITMAP
0C
18
20
00
7C
C4
82
80
40
30
0C
06
02
82
C6
FC
ENDCHAR
STARTCHAR sacute
ENCODING 347
SWIDTH 365 0
DWIDTH 7 0
BBX 5 12 1 0
BITMAP
18
10
20
00
78
88
C0
70
18
08
88
70
ENDCHAR
STARTCHAR Scircumflex
ENCODING 348
SWIDTH 479 0
DWIDTH 9 0
BBX 7 16 1 0
BITMAP
10
28
00
00
7C
C4
82
80
40
30
0C
06
02
82
C6
FC
ENDCHAR
STARTCHAR scircumflex
ENCODING 349
SWIDTH 365 0
DWIDTH 7 0
BBX 5 12 1 0
BITMAP
30
50
08
00
78
88
C0
70
18
08
88
70
ENDCHAR
STARTCHAR Scedilla
ENCODING 350
SWIDTH 479 0
DWIDTH 9 0
BBX 7 17 1 -5
BITMAP
3C
44
82
80
C0
70
3C
0E
06
02
82
86
78
10
10
50
20
ENDCHAR
STARTCHAR scedilla
ENCODING 351
SWIDTH 365 0
DWIDTH 7 0
BBX 5 11 1 -3
BITMAP
78
88
C0
70
18
08
88
70
20
20
E0
ENDCHAR
STARTCHAR Scaron
ENCODING 352
SWIDTH 479 0
DWIDTH 9 0
BBX 7 16 1 0
BITMAP
24
18
10
00
7C
C4
82
80
40
30
0C
06
02
82
C6
FC
ENDCHAR
STARTCHAR scaron
ENCODING 353
SWIDTH 365 0
DWIDTH 7 0
BBX 5 12 1 0
BITMAP
48
30
20
00
78
88
C0
70
18
08
88
70
ENDCHAR
STARTCHAR uni0162
ENCODING 354
SWIDTH 615 0
DWIDTH 12 0
BBX 12 18 0 -5
BITMAP
0010
7FF0
C610
8610
0600
0600
0600
0600
0600
0600
0600
0600
0600
0900
0600
0200
0200
0600
ENDCHAR
STARTCHAR uni0163
ENCODING 355
SWIDTH 292 0
DWIDTH 6 0
BBX 5 13 1 -5
BITMAP
40
F8
40
40
40
40
40
70
00
70
10
10
20
ENDCHAR
STARTCHAR Tcaron
ENCODING 356
SWIDTH 615 0
DWIDTH 12 0
BBX 12 16 0 0
BITMAP
0900
0600
0200
0010
7FF0
C610
8610
0600
0600
0600
0600
0600
0600
0600
0600
0F00
ENDCHAR
STARTCHAR tcaron
ENCODING 357
SWIDTH 500 0
DWIDTH 10 0
BBX 8 12 1 0
BITMAP
03
03
01
02
44
F8
40
40
40
40
40
70
ENDCHAR
STARTCHAR Tbar
ENCODING 358
SWIDTH 615 0
DWIDTH 12 0
BBX 12 13 0 0
BITMAP
0010
7FF0
C610
8610
0600
0600
7FE0
0600
0600
0600
0600
0600
0F00
ENDCHAR
STARTCHAR tbar
ENCODING 359
SWIDTH 292 0
DWIDTH 6 0
BBX 6 8 0 0
BITMAP
20
7C
20
F8
20
20
24
38
ENDCHAR
STARTCHAR Utilde
ENCODING 360
SWIDTH 708 0
DWIDTH 13 0
BBX 12 15 1 0
BITMAP
0C80
0300
00F0
F020
6020
6020
6020
6020
6020
6020
6020
6040
6040
3080
1F00
ENDCHAR
STARTCHAR utilde
ENCODING 361
SWIDTH 490 0
DWIDTH 9 0
BBX 8 11 1 0
BITMAP
32
4C
00
00
C6
42
42
42
42
46
7B
ENDCHAR
STARTCHAR Umacron
ENCODING 362
SWIDTH 708 0
DWIDTH 13 0
BBX 12 15 1 0
BITMAP
0F80
0000
00F0
F020
6020
6020
6020
6020
6020
6020
6020
6040
6040
3080
1F00
ENDCHAR
STARTCHAR umacron
ENCODING 363
SWIDTH 490 0
DWIDTH 9 0
BBX 8 11 1 0
BITMAP
3C
00
00
00
CE
42
42
42
42
46
7B
ENDCHAR
STARTCHAR Ubreve
ENCODING 364
SWIDTH 708 0
DWIDTH 13 0
BBX 12 15 1 0
BITMAP
0900
0600
00F0
F020
6020
6020
6020
6020
6020
6020
6020
6040
6040
3080
1F00
ENDCHAR
STARTCHAR ubreve
ENCODING 365
SWIDTH 490 0
DWIDTH 9 0
BBX 8 10 1 0
BITMAP
24
18
00
C6
42
42
42
42
46
7B
ENDCHAR
STARTCHAR Uring
ENCODING 366
SWIDTH 708 0
DWIDTH 13 0
BBX 12 16 1 0
BITMAP
0700
0500
0600
00F0
F020
6020
6020
6020
6020
6020
6020
6020
6040
6040
3080
1F00
ENDCHAR
STARTCHAR uring
ENCODING 367
SWIDTH 490 0
DWIDTH 9 0
BBX 8 12 1 0
BITMAP
18
24
28
10
00
C6
42
42
42
42
46
7B
ENDCHAR
STARTCHAR Uhungarumlaut
ENCODING 368
SWIDTH 708 0
DWIDTH 13 0
BBX 12 16 1 0
BITMAP
02C0
0580
0900
00F0
F020
6020
6020
6020
6020
6020
6020
6020
6040
6040
3080
1F00
ENDCHAR
STARTCHAR uhungarumlaut
ENCODING 369
SWIDTH 490 0
DWIDTH 9 0
BBX 8 12 1 0
BITMAP
1E
34
48
00
00
C6
42
42
42
42
46
7B
ENDCHAR
STARTCHAR Uogonek
ENCODING 370
SWIDTH 708 0
DWIDTH 13 0
BBX 12 16 1 -3
BITMAP
00F0
F020
6020
6020
6020
6020
6020
6020
6020
6040
6040
3080
1F00
0200
0200
01C0
ENDCHAR
STARTCHAR uogonek
ENCODING 371
SWIDTH 490 0
DWIDTH 9 0
BBX 8 10 1 -3
BITMAP
C6
42
42
42
42
46
7B
04
04
03
ENDCHAR
STARTCHAR Wcircumflex
ENCODING 372
SWIDTH 885 0
DWIDTH 17 0
BBX 17 17 0 -1
BITMAP
00C000
00A000
010000
000000
FFBB80
631100
632100
212200
31C200
10C200
18C400
18C400
096800
0D2800
063000
063000
041000
ENDCHAR
STARTCHAR wcircumflex
ENCODING 373
SWIDTH 667 0
DWIDTH 13 0
BBX 13 13 0 -1
BITMAP
0200
0500
0080
0000
0000
FF78
4210
6220
2320
3320
1540
1C80
0880
ENDCHAR
STARTCHAR Ycircumflex
ENCODING 374
SWIDTH 656 0
DWIDTH 12 0
BBX 13 17 0 -1
BITMAP
0200
0500
0080
0000
F878
6020
3020
1840
1880
0D00
0700
0600
0200
0200
0200
0200
1F80
ENDCHAR
STARTCHAR ycircumflex
ENCODING 375
SWIDTH 417 0
DWIDTH 8 0
BBX 6 17 1 -5
BITMAP
10
28
40
00
00
C4
44
48
48
28
30
30
10
20
20
C0
80
ENDCHAR
STARTCHAR Ydieresis
ENCODING 376
SWIDTH 656 0
DWIDTH 12 0
BBX 13 16 0 -1
BITMAP
0480
0C80
0000
F878
6020
3020
1840
1880
0D00
0700
0600
0200
0200
0200
0200
1F80
ENDCHAR
STARTCHAR Zacute
ENCODING 377
SWIDTH 656 0
DWIDTH 12 0
BBX 11 16 1 0
BITMAP
0300
0600
0800
0000
7FC0
8080
0100
0300
0600
0400
0800
1000
3020
2020
4060
FFE0
ENDCHAR
STARTCHAR zacute
ENCODING 378
SWIDTH 427 0
DWIDTH 8 0
BBX 6 12 1 0
BITMAP
08
10
20
00
00
FC
88
10
10
20
44
FC
ENDCHAR
STARTCHAR Zdotaccent
ENCODING 379
SWIDTH 656 0
DWIDTH 12 0
BBX 11 15 1 0
BITMAP
0400
0400
0000
7FC0
8080
0100
0300
0600
0400
0800
1000
3020
2020
4060
FFE0
ENDCHAR
STARTCHAR zdotaccent
ENCODING 380
SWIDTH 427 0
DWIDTH 8 0
BBX 6 11 1 0
BITMAP
10
00
00
00
FC
88
10
10
20
44
FC
ENDCHAR
STARTCHAR Zcaron
ENCODING 381
SWIDTH 656 0
DWIDTH 12 0
BBX 11 16 1 0
BITMAP
0900
0A00
0400
0000
7FC0
8080
0100
0300
0600
0400
0800
1000
3020
2020
4060
FFE0
ENDCHAR
STARTCHAR zcaron
ENCODING 382
SWIDTH 427 0
DWIDTH 8 0
BBX 6 12 1 0
BITMAP
48
28
10
00
00
FC
88
10
10
20
44
FC
ENDCHAR
STARTCHAR longs
ENCODING 383
SWIDTH 312 0
DWIDTH 6 0
BBX 5 13 2 0
BITMAP
18
78
40
80
80
80
80
80
80
80
80
80
C0
ENDCHAR
STARTCHAR florin
ENCODING 402
SWIDTH 615 0
DWIDTH 12 0
BBX 12 17 0 -5
BITMAP
0070
0080
0080
0100
0100
0780
0200
0200
0200
0200
0400
0400
0400
0800
0800
9000
6000
ENDCHAR
STARTCHAR uni01CE
ENCODING 462
SWIDTH 406 0
DWIDTH 8 0
BBX 6 12 1 0
BITMAP
08
30
10
00
38
48
88
18
28
48
98
EC
ENDCHAR
STARTCHAR uni01D0
ENCODING 464
SWIDTH 229 0
DWIDTH 4 0
BBX 3 12 1 0
BITMAP
20
C0
40
00
40
C0
40
40
40
40
40
C0
ENDCHAR
STARTCHAR uni01D2
ENCODING 466
SWIDTH 510 0
DWIDTH 10 0
BBX 8 12 1 0
BITMAP
24
18
10
00
3C
46
83
81
81
83
46
3C
ENDCHAR
STARTCHAR uni01D4
ENCODING 468
SWIDTH 490 0
DWIDTH 9 0
BBX 8 12 1 0
BITMAP
20
18
10
00
00
CE
42
42
42
42
46
7B
ENDCHAR
STARTCHAR uni01D6
ENCODING 470
SWIDTH 490 0
DWIDTH 9 0
BBX 8 11 1 0
BITMAP
7C
64
64
00
CE
42
42
42
42
46
7B
ENDCHAR
STARTCHAR uni01D8
ENCODING 472
SWIDTH 490 0
DWIDTH 9 0
BBX 8 13 1 0
BITMAP
0C
18
00
64
64
00
CE
42
42
42
42
46
7B
ENDCHAR
STARTCHAR uni01DA
ENCODING 474
SWIDTH 490 0
DWIDTH 9 0
BBX 8 13 1 0
BITMAP
04
28
10
64
64
00
CE
42
42
42
42
46
7B
ENDCHAR
STARTCHAR uni01DC
ENCODING 476
SWIDTH 490 0
DWIDTH 9 0
BBX 8 13 1 0
BITMAP
20
30
00
64
64
00
CE
42
42
42
42
46
7B
ENDCHAR
STARTCHAR Aringacute
ENCODING 506
SWIDTH 677 0
DWIDTH 13 0
BBX 13 19 0 0
BITMAP
0100
0300
0400
0200
0500
0500
0200
0200
0700
0500
0900
0980
0880
1FC0
10C0
1040
2060
2020
F0F8
ENDCHAR
STARTCHAR aringacute
ENCODING 507
SWIDTH 406 0
DWIDTH 8 0
BBX 7 15 1 0
BITMAP
08
10
00
30
48
50
20
30
48
88
08
38
48
88
FE
ENDCHAR
STARTCHAR AEacute
ENCODING 508
SWIDTH 854 0
DWIDTH 16 0
BBX 17 16 -1 0
BITMAP
001000
003000
004000
000000
07FF00
01C300
02C100
04C000
04C400
07FC00
08C400
10C000
10C080
20C080
20C100
F1FF00
ENDCHAR
STARTCHAR aeacute
ENCODING 509
SWIDTH 583 0
DWIDTH 11 0
BBX 10 12 1 0
BITMAP
0200
0400
0800
0000
3700
4880
8FC0
0800
3800
4800
9C40
E780
ENDCHAR
STARTCHAR Oslashacute
ENCODING 510
SWIDTH 781 0
DWIDTH 15 0
BBX 13 17 1 -1
BITMAP
0080
0180
0200
0000
0F90
3060
6030
C050
C098
C118
C218
C418
C818
4810
3020
38C0
4700
ENDCHAR
STARTCHAR oslashacute
ENCODING 511
SWIDTH 510 0
DWIDTH 10 0
BBX 8 12 1 0
BITMAP
04
08
10
00
38
46
87
8B
91
A3
C2
7C
ENDCHAR
STARTCHAR uni0251
ENCODING 593
SWIDTH 406 0
DWIDTH 8 0
BBX 6 8 1 0
BITMAP
38
48
88
18
28
48
98
EC
ENDCHAR
STARTCHAR uni0261
ENCODING 609
SWIDTH 470 0
DWIDTH 9 0
BBX 7 13 1 -4
BITMAP
3E
46
82
82
82
82
82
C6
7A
02
02
8C
78
ENDCHAR
STARTCHAR circumflex
ENCODING 710
SWIDTH 333 0
DWIDTH 6 0
BBX 4 3 1 9
BITMAP
20
50
80
ENDCHAR
STARTCHAR caron
ENCODING 711
BBX 5 5 7 10
BITMAP
88
88
50
70
20
ENDCHAR
STARTCHAR uni02C9
ENCODING 713
BBX 7 1 6 12
BITMAP
FE
ENDCHAR
STARTCHAR uni02CA
ENCODING 714
BBX 6 4 7 11
BITMAP
0C
10
60
80
ENDCHAR
STARTCHAR uni02CB
ENCODING 715
BBX 5 4 7 11
BITMAP
C0
60
10
08
ENDCHAR
STARTCHAR breve
ENCODING 728
SWIDTH 333 0
DWIDTH 6 0
BBX 5 3 1 8
BITMAP
88
88
70
ENDCHAR
STARTCHAR dotaccent
ENCODING 729
BBX 3 2 8 12
BITMAP
40
E0
ENDCHAR
STARTCHAR ring
ENCODING 730
SWIDTH 333 0
DWIDTH 6 0
BBX 3 3 2 9
BITMAP
40
A0
E0
ENDCHAR
STARTCHAR ogonek
ENCODING 731
SWIDTH 333 0
DWIDTH 6 0
BBX 4 3 2 -3
BITMAP
80
80
70
ENDCHAR
STARTCHAR tilde
ENCODING 732
SWIDTH 333 0
DWIDTH 6 0
BBX 5 2 1 9
BITMAP
E0
38
ENDCHAR
STARTCHAR hungarumlaut
ENCODING 733
SWIDTH 333 0
DWIDTH 6 0
BBX 5 3 2 9
BITMAP
68
D0
20
ENDCHAR
STARTCHAR tonos
ENCODING 900
SWIDTH 333 0
DWIDTH 6 0
BBX 1 3 3 9
BITMAP
80
80
80
ENDCHAR
STARTCHAR dieresistonos
ENCODING 901
SWIDTH 333 0
DWIDTH 6 0
BBX 6 3 0 9
BITMAP
30
D4
10
ENDCHAR
STARTCHAR Alphatonos
ENCODING 902
SWIDTH 677 0
DWIDTH 13 0
BBX 11 12 1 0
BITMAP
C400
8400
8A00
0A00
1300
1100
1F00
2180
2080
4080
40C0
F0E0
ENDCHAR
STARTCHAR anoteleia
ENCODING 903
SWIDTH 219 0
DWIDTH 4 0
BBX 2 2 1 5
BITMAP
C0
C0
ENDCHAR
STARTCHAR Epsilontonos
ENCODING 904
SWIDTH 721 0
DWIDTH 14 0
BBX 13 12 0 0
BITMAP
9FF0
8810
8810
8800
0820
0FE0
0820
0800
0800
0808
0808
1FF8
ENDCHAR
STARTCHAR Etatonos
ENCODING 905
SWIDTH 806 0
DWIDTH 15 0
BBX 15 12 0 0
BITMAP
BC3C
9808
9808
9808
1808
1FF8
1808
1808
1808
1808
1808
3E3E
ENDCHAR
STARTCHAR Iotatonos
ENCODING 906
SWIDTH 427 0
DWIDTH 8 0
BBX 7 12 0 0
BITMAP
BE
8C
8C
8C
0C
0C
0C
0C
0C
0C
0C
3E
ENDCHAR
STARTCHAR Omicrontonos
ENCODING 908
SWIDTH 781 0
DWIDTH 15 0
BBX 14 12 0 0
BITMAP
87E0
9810
B008
A00C
600C
600C
600C
600C
200C
3008
1010
0FE0
ENDCHAR
STARTCHAR Upsilontonos
ENCODING 910
SWIDTH 670 0
DWIDTH 13 0
BBX 13 13 0 0
BITMAP
1010
8838
8440
8480
8280
0280
0300
0300
0300
0300
0300
0300
0FC0
ENDCHAR
STARTCHAR Omegatonos
ENCODING 911
SWIDTH 781 0
DWIDTH 15 0
BBX 14 12 0 0
BITMAP
87E0
9810
B008
A00C
200C
200C
200C
3008
0830
4640
4284
7EFC
ENDCHAR
STARTCHAR iotadieresistonos
ENCODING 912
SWIDTH 229 0
DWIDTH 4 0
BBX 6 12 -1 0
BITMAP
30
AC
20
00
00
20
20
20
20
20
20
30
ENDCHAR
STARTCHAR Alpha
ENCODING 913
SWIDTH 677 0
DWIDTH 13 0
BBX 11 12 1 0
BITMAP
0400
0400
0A00
0A00
1300
1100
1F00
2180
2080
4080
40C0
F0E0
ENDCHAR
STARTCHAR Beta
ENCODING 914
SWIDTH 615 0
DWIDTH 12 0
BBX 11 12 0 0
BITMAP
FF00
3080
30C0
30C0
3180
3F00
30C0
3060
3060
3060
3040
7F80
ENDCHAR
STARTCHAR Gamma
ENCODING 915
SWIDTH 573 0
DWIDTH 11 0
BBX 10 12 1 0
BITMAP
FF80
60C0
6040
6000
6000
6000
6000
6000
6000
6000
6000
F800
ENDCHAR
STARTCHAR uni0394
ENCODING 916
SWIDTH 625 0
DWIDTH 12 0
BBX 12 12 0 0
BITMAP
0600
0600
0B00
0900
0980
1180
10C0
20C0
2040
4060
4060
FFF0
ENDCHAR
STARTCHAR Epsilon
ENCODING 917
SWIDTH 656 0
DWIDTH 12 0
BBX 11 12 1 0
BITMAP
7FC0
6040
6040
6080
6080
7F80
6080
6080
6000
6020
6060
FFE0
ENDCHAR
STARTCHAR Zeta
ENCODING 918
SWIDTH 656 0
DWIDTH 12 0
BBX 11 12 1 0
BITMAP
7FC0
8080
0100
0300
0600
0400
0800
1000
3020
2020
4060
FFE0
ENDCHAR
STARTCHAR Eta
ENCODING 919
SWIDTH 760 0
DWIDTH 14 0
BBX 14 12 0 0
BITMAP
7878
3010
3010
3010
3010
3FF0
3010
3010
3010
3010
3010
F87C
ENDCHAR
STARTCHAR Theta
ENCODING 920
SWIDTH 781 0
DWIDTH 15 0
BBX 13 12 1 0
BITMAP
1F80
2060
6030
D010
D058
DF98
D098
D018
C018
4010
2020
1FC0
ENDCHAR
STARTCHAR Iota
ENCODING 921
SWIDTH 354 0
DWIDTH 7 0
BBX 4 12 1 0
BITMAP
F0
20
20
20
20
20
20
20
20
20
20
F0
ENDCHAR
STARTCHAR Kappa
ENCODING 922
SWIDTH 740 0
DWIDTH 14 0
BBX 12 13 1 -1
BITMAP
F8F0
6040
6080
6100
6600
6800
6C00
6600
6100
6080
6060
60F0
1800
ENDCHAR
STARTCHAR Lambda
ENCODING 923
SWIDTH 677 0
DWIDTH 13 0
BBX 13 13 0 0
BITMAP
0200
0200
0700
0500
0980
0980
0880
10C0
1040
1040
2060
2020
F8F8
ENDCHAR
STARTCHAR Mu
ENCODING 924
SWIDTH 833 0
DWIDTH 16 0
BBX 15 12 0 0
BITMAP
F00E
381C
281C
2C2C
242C
262C
264C
234C
238C
218C
210C
7812
ENDCHAR
STARTCHAR Nu
ENCODING 925
SWIDTH 771 0
DWIDTH 15 0
BBX 13 12 1 0
BITMAP
E038
6010
7010
5810
4C10
4610
4310
4190
40D0
4070
4030
F010
ENDCHAR
STARTCHAR Xi
ENCODING 926
SWIDTH 679 0
DWIDTH 13 0
BBX 11 12 1 0
BITMAP
7FC0
4040
0000
0000
2080
3F80
2080
0000
0000
8020
8020
FFE0
ENDCHAR
STARTCHAR Omicron
ENCODING 927
SWIDTH 781 0
DWIDTH 15 0
BBX 13 12 1 0
BITMAP
1F80
2060
6030
C010
C018
C018
C018
C018
C018
4010
2020
1FC0
ENDCHAR
STARTCHAR Pi
ENCODING 928
SWIDTH 760 0
DWIDTH 14 0
BBX 13 12 1 0
BITMAP
FFF8
6020
6020
6020
6020
6020
6020
6020
6020
6020
6020
E070
ENDCHAR
STARTCHAR Rho
ENCODING 929
SWIDTH 563 0
DWIDTH 11 0
BBX 10 12 0 0
BITMAP
FF00
3180
30C0
30C0
3040
30C0
3180
3600
3000
3000
3000
3800
ENDCHAR
STARTCHAR Sigma
ENCODING 931
SWIDTH 639 0
DWIDTH 12 0
BBX 10 12 1 0
BITMAP
FFC0
4040
2040
1000
1800
0C00
0800
1800
3000
2000
4040
FFC0
ENDCHAR
STARTCHAR Tau
ENCODING 932
SWIDTH 615 0
DWIDTH 12 0
BBX 12 13 0 0
BITMAP
0010
7FF0
C610
8610
0600
0600
0600
0600
0600
0600
0600
0600
0F00
ENDCHAR
STARTCHAR Upsilon
ENCODING 933
SWIDTH 579 0
DWIDTH 11 0
BBX 10 13 1 0
BITMAP
8080
41C0
2200
3400
1400
1400
1800
1800
1800
1800
1800
1800
7E00
ENDCHAR
STARTCHAR Phi
ENCODING 934
SWIDTH 808 0
DWIDTH 15 0
BBX 13 12 1 0
BITMAP
0780
1FE0
7230
C218
C208
C208
C208
C218
6210
1EE0
0300
0F00
ENDCHAR
STARTCHAR Chi
ENCODING 935
SWIDTH 698 0
DWIDTH 13 0
BBX 12 12 0 0
BITMAP
F870
3020
1840
0C80
0D00
0600
0300
0580
0880
1040
1060
7CF0
ENDCHAR
STARTCHAR Psi
ENCODING 936
SWIDTH 756 0
DWIDTH 14 0
BBX 14 12 0 0
BITMAP
CF8C
6308
6308
6308
6318
6318
3330
0FE0
0300
0300
0300
0F80
ENDCHAR
STARTCHAR uni03A9
ENCODING 937
SWIDTH 740 0
DWIDTH 14 0
BBX 13 13 1 0
BITMAP
1F80
30E0
6060
C030
C030
C030
C030
C030
6060
30C0
0908
F9F8
F9F8
ENDCHAR
STARTCHAR Iotadieresis
ENCODING 938
SWIDTH 354 0
DWIDTH 7 0
BBX 5 15 1 0
BITMAP
08
D8
00
78
20
20
20
20
20
20
20
20
20
20
F0
ENDCHAR
STARTCHAR Upsilondieresis
ENCODING 939
SWIDTH 579 0
DWIDTH 11 0
BBX 10 15 1 0
BITMAP
1200
3200
8080
41C0
2200
3400
1400
1400
1800
1800
1800
1800
1800
1800
7E00
ENDCHAR
STARTCHAR alphatonos
ENCODING 940
SWIDTH 483 0
DWIDTH 9 0
BBX 7 12 1 0
BITMAP
10
10
10
00
20
76
94
8C
88
88
94
F6
ENDCHAR
STARTCHAR epsilontonos
ENCODING 941
SWIDTH 374 0
DWIDTH 7 0
BBX 5 12 1 0
BITMAP
20
20
20
00
70
88
80
D0
B0
80
88
70
ENDCHAR
STARTCHAR etatonos
ENCODING 942
SWIDTH 491 0
DWIDTH 9 0
BBX 7 17 1 -5
BITMAP
10
10
10
00
04
CE
32
22
22
22
42
42
02
02
02
02
02
ENDCHAR
STARTCHAR iotatonos
ENCODING 943
SWIDTH 229 0
DWIDTH 4 0
BBX 2 12 1 0
BITMAP
C0
C0
80
00
00
C0
80
80
80
80
80
C0
ENDCHAR
STARTCHAR upsilondieresistonos
ENCODING 944
SWIDTH 417 0
DWIDTH 8 0
BBX 6 12 1 0
BITMAP
30
FC
20
00
80
88
84
84
84
84
8C
78
ENDCHAR
STARTCHAR alpha
ENCODING 945
SWIDTH 483 0
DWIDTH 9 0
BBX 7 8 1 0
BITMAP
20
76
94
8C
88
88
94
F6
ENDCHAR
STARTCHAR beta
ENCODING 946
SWIDTH 491 0
DWIDTH 9 0
BBX 8 17 1 -5
BITMAP
1C
62
42
42
44
5C
82
42
41
82
46
BE
40
40
C0
C0
40
ENDCHAR
STARTCHAR gamma
ENCODING 947
SWIDTH 413 0
DWIDTH 8 0
BBX 7 12 0 -4
BITMAP
42
E2
22
12
12
14
14
08
08
18
18
18
ENDCHAR
STARTCHAR delta
ENCODING 948
SWIDTH 481 0
DWIDTH 9 0
BBX 7 12 1 0
BITMAP
78
4C
46
20
10
6C
C6
82
82
82
82
7C
ENDCHAR
STARTCHAR epsilon
ENCODING 949
SWIDTH 374 0
DWIDTH 7 0
BBX 5 8 1 0
BITMAP
70
88
80
D0
B0
80
88
70
ENDCHAR
STARTCHAR zeta
ENCODING 950
SWIDTH 381 0
DWIDTH 7 0
BBX 6 15 1 -3
BITMAP
8C
98
70
60
40
80
80
80
80
80
80
78
04
04
18
ENDCHAR
STARTCHAR eta
ENCODING 951
SWIDTH 491 0
DWIDTH 9 0
BBX 7 13 1 -5
BITMAP
04
CE
32
22
22
22
42
42
02
02
02
02
02
ENDCHAR
STARTCHAR theta
ENCODING 952
SWIDTH 445 0
DWIDTH 8 0
BBX 7 12 1 0
BITMAP
38
44
84
84
86
FE
86
86
86
84
44
78
ENDCHAR
STARTCHAR iota
ENCODING 953
SWIDTH 229 0
DWIDTH 4 0
BBX 2 7 1 0
BITMAP
C0
80
80
80
80
80
C0
ENDCHAR
STARTCHAR kappa
ENCODING 954
SWIDTH 451 0
DWIDTH 9 0
BBX 7 8 1 0
BITMAP
82
C6
4C
54
58
68
C8
86
ENDCHAR
STARTCHAR lambda
ENCODING 955
SWIDTH 421 0
DWIDTH 8 0
BBX 8 12 0 0
BITMAP
60
A0
10
10
10
10
10
28
28
64
45
C3
ENDCHAR
STARTCHAR uni03BC
ENCODING 956
SWIDTH 500 0
DWIDTH 10 0
BBX 9 11 1 -4
BITMAP
8600
8600
8600
8600
8600
CE80
F300
8000
8000
8000
8000
ENDCHAR
STARTCHAR nu
ENCODING 957
SWIDTH 378 0
DWIDTH 7 0
BBX 6 7 1 0
BITMAP
84
C4
44
48
38
30
20
ENDCHAR
STARTCHAR xi
ENCODING 958
SWIDTH 381 0
DWIDTH 7 0
BBX 6 15 1 -3
BITMAP
8C
98
E0
40
88
98
60
40
80
80
80
F8
04
04
18
ENDCHAR
STARTCHAR omicron
ENCODING 959
SWIDTH 493 0
DWIDTH 9 0
BBX 8 8 1 0
BITMAP
18
66
C2
83
83
83
86
7C
ENDCHAR
STARTCHAR pi
ENCODING 960
SWIDTH 476 0
DWIDTH 9 0
BBX 7 7 1 0
BITMAP
FE
A4
24
28
28
48
C6
ENDCHAR
STARTCHAR rho
ENCODING 961
SWIDTH 493 0
DWIDTH 9 0
BBX 8 12 1 -5
BITMAP
3E
42
C1
81
83
C3
E6
98
80
40
3C
02
ENDCHAR
STARTCHAR sigma1
ENCODING 962
SWIDTH 360 0
DWIDTH 7 0
BBX 6 10 1 -3
BITMAP
7C
80
80
80
80
80
78
04
04
38
ENDCHAR
STARTCHAR sigma
ENCODING 963
SWIDTH 477 0
DWIDTH 9 0
BBX 8 7 1 0
BITMAP
7F
C4
82
82
82
86
7C
ENDCHAR
STARTCHAR tau
ENCODING 964
SWIDTH 372 0
DWIDTH 7 0
BBX 6 7 1 0
BITMAP
FC
A0
20
20
20
20
38
ENDCHAR
STARTCHAR upsilon
ENCODING 965
SWIDTH 417 0
DWIDTH 8 0
BBX 6 8 1 0
BITMAP
80
88
84
84
84
84
8C
78
ENDCHAR
STARTCHAR phi
ENCODING 966
SWIDTH 492 0
DWIDTH 9 0
BBX 8 13 1 -5
BITMAP
04
CA
91
91
91
92
96
7C
10
10
10
18
18
ENDCHAR
STARTCHAR chi
ENCODING 967
SWIDTH 477 0
DWIDTH 9 0
BBX 8 12 1 -5
BITMAP
C2
24
24
28
18
10
10
28
28
49
C6
82
ENDCHAR
STARTCHAR psi
ENCODING 968
SWIDTH 501 0
DWIDTH 10 0
BBX 8 17 1 -5
BITMAP
18
18
10
10
90
91
91
91
91
93
56
3C
10
10
18
18
18
ENDCHAR
STARTCHAR omega
ENCODING 969
SWIDTH 572 0
DWIDTH 11 0
BBX 9 7 1 0
BITMAP
4100
C080
8880
8880
8880
8880
7700
ENDCHAR
STARTCHAR iotadieresis
ENCODING 970
SWIDTH 229 0
DWIDTH 4 0
BBX 5 11 0 0
BITMAP
98
00
00
00
60
40
40
40
40
40
60
ENDCHAR
STARTCHAR upsilondieresis
ENCODING 971
SWIDTH 417 0
DWIDTH 8 0
BBX 6 11 1 0
BITMAP
48
00
00
80
88
84
84
84
84
8C
78
ENDCHAR
STARTCHAR omicrontonos
ENCODING 972
SWIDTH 493 0
DWIDTH 9 0
BBX 8 12 1 0
BITMAP
10
10
10
00
18
66
C2
83
83
83
86
7C
ENDCHAR
STARTCHAR upsilontonos
ENCODING 973
SWIDTH 417 0
DWIDTH 8 0
BBX 6 12 1 0
BITMAP
30
20
20
00
80
88
84
84
84
84
8C
78
ENDCHAR
STARTCHAR omegatonos
ENCODING 974
SWIDTH 572 0
DWIDTH 11 0
BBX 9 12 1 0
BITMAP
0800
0800
0800
0000
0000
4100
C080
8880
8880
8880
8880
7700
ENDCHAR
STARTCHAR uni0401
ENCODING 1025
SWIDTH 656 0
DWIDTH 12 0
BBX 11 15 1 0
BITMAP
0100
1B00
0000
7FC0
6040
6040
6080
6080
7F80
6080
6080
6000
6020
6060
FFE0
ENDCHAR
STARTCHAR uni0402
ENCODING 1026
SWIDTH 755 0
DWIDTH 14 0
BBX 14 16 0 -3
BITMAP
0010
7FF0
C610
8610
0600
0600
07F0
0618
0608
060C
060C
060C
0608
0908
0010
0020
ENDCHAR
STARTCHAR uni0403
ENCODING 1027
SWIDTH 540 0
DWIDTH 10 0
BBX 9 16 1 0
BITMAP
0600
0400
0800
0000
FF80
6080
6080
6000
6000
6000
6000
6000
6000
6000
6000
F800
ENDCHAR
STARTCHAR uni0404
ENCODING 1028
SWIDTH 635 0
DWIDTH 12 0
BBX 10 12 1 0
BITMAP
0F80
30C0
6040
C000
C200
FE00
C200
C000
C000
4000
2040
1FC0
ENDCHAR
STARTCHAR uni0405
ENCODING 1029
SWIDTH 479 0
DWIDTH 9 0
BBX 7 12 1 0
BITMAP
7C
C4
82
80
40
30
0C
06
02
82
C6
FC
ENDCHAR
STARTCHAR uni0406
ENCODING 1030
SWIDTH 354 0
DWIDTH 7 0
BBX 4 12 1 0
BITMAP
F0
20
20
20
20
20
20
20
20
20
20
F0
ENDCHAR
STARTCHAR uni0407
ENCODING 1031
SWIDTH 354 0
DWIDTH 7 0
BBX 5 15 1 0
BITMAP
80
D8
00
F0
20
20
20
20
20
20
20
20
20
20
78
ENDCHAR
STARTCHAR uni0408
ENCODING 1032
SWIDTH 333 0
DWIDTH 6 0
BBX 6 17 -2 -5
BITMAP
3C
0C
0C
0C
0C
0C
0C
0C
0C
0C
0C
0C
0C
08
08
D0
60
ENDCHAR
STARTCHAR uni0409
ENCODING 1033
SWIDTH 958 0
DWIDTH 18 0
BBX 16 13 1 0
BITMAP
0400
0400
0E00
0A00
1200
1300
11FE
1F03
2183
2081
4081
40C3
F0FC
ENDCHAR
STARTCHAR uni040A
ENCODING 1034
SWIDTH 988 0
BBX 17 12 1 0
BITMAP
78E000
604000
604000
604000
604000
7FFF00
604300
604180
604180
604180
604100
E0FE00
ENDCHAR
STARTCHAR uni040B
ENCODING 1035
SWIDTH 756 0
DWIDTH 14 0
BBX 13 12 0 0
BITMAP
7FE0
C620
8610
0600
0600
06F0
0718
0618
0618
0618
0618
0F18
ENDCHAR
STARTCHAR uni040C
ENCODING 1036
SWIDTH 660 0
DWIDTH 13 0
BBX 11 16 1 0
BITMAP
0300
0600
0400
F0C0
61C0
6200
6200
6400
6800
7C00
6C00
6600
6300
6180
6080
F0E0
ENDCHAR
STARTCHAR uni040E
ENCODING 1038
SWIDTH 656 0
DWIDTH 12 0
BBX 11 15 1 0
BITMAP
1980
0F00
0000
F0E0
4040
6040
2080
3080
1100
1100
0A00
0A00
0400
2800
7000
ENDCHAR
STARTCHAR uni040F
ENCODING 1039
SWIDTH 751 0
DWIDTH 14 0
BBX 12 14 1 -2
BITMAP
E070
4060
4060
4060
4060
4060
4060
4060
4060
4060
4060
FFF0
0400
0400
ENDCHAR
STARTCHAR uni0410
ENCODING 1040
SWIDTH 677 0
DWIDTH 13 0
BBX 11 12 1 0
BITMAP
0400
0400
0A00
0A00
1300
1100
1F00
2180
2080
4080
40C0
F0E0
ENDCHAR
STARTCHAR uni0411
ENCODING 1041
SWIDTH 623 0
DWIDTH 12 0
BBX 10 12 1 0
BITMAP
FF80
6080
6080
6000
6000
7F00
6180
60C0
60C0
60C0
6080
FF00
ENDCHAR
STARTCHAR uni0412
ENCODING 1042
SWIDTH 615 0
DWIDTH 12 0
BBX 11 12 0 0
BITMAP
FF00
3080
30C0
30C0
3180
3F00
30C0
3060
3060
3060
3040
7F80
ENDCHAR
STARTCHAR uni0413
ENCODING 1043
SWIDTH 540 0
DWIDTH 10 0
BBX 9 12 1 0
BITMAP
FF80
6180
6080
6000
6000
6000
6000
6000
6000
6000
6000
F800
ENDCHAR
STARTCHAR uni0414
ENCODING 1044
SWIDTH 654 0
DWIDTH 12 0
BBX 13 16 0 -3
BITMAP
0200
0200
0600
0500
0900
0980
0880
1080
10C0
1040
2040
2060
7FF0
8010
8008
0008
ENDCHAR
STARTCHAR uni0415
ENCODING 1045
SWIDTH 656 0
DWIDTH 12 0
BBX 11 12 1 0
BITMAP
7FC0
6040
6040
6080
6080
7F80
6080
6080
6000
6020
6060
FFE0
ENDCHAR
STARTCHAR uni0416
ENCODING 1046
SWIDTH 1010 0
BBX 19 13 0 0
BITMAP
31F080
6841C0
084200
044400
044400
024800
03F800
064C00
0C4600
184300
184100
304180
E0F0E0
ENDCHAR
STARTCHAR uni0417
ENCODING 1047
SWIDTH 539 0
DWIDTH 10 0
BBX 10 12 0 0
BITMAP
1E00
6300
4180
0180
0300
1F00
0180
0080
40C0
C080
6180
3E00
ENDCHAR
STARTCHAR uni0418
ENCODING 1048
SWIDTH 760 0
DWIDTH 14 0
BBX 14 13 0 -1
BITMAP
7C7C
3010
3030
3050
3090
3110
3110
3210
3410
3810
3010
3010
F87C
ENDCHAR
STARTCHAR uni0419
ENCODING 1049
SWIDTH 760 0
DWIDTH 14 0
BBX 14 16 0 -1
BITMAP
04C0
0780
0000
7C7C
3010
3030
3050
3090
3110
3110
3210
3410
3810
3010
3010
F87C
ENDCHAR
STARTCHAR uni041A
ENCODING 1050
SWIDTH 660 0
DWIDTH 13 0
BBX 10 12 2 0
BITMAP
3180
C380
C400
C400
C800
D000
F800
CC00
C600
C700
C380
F1C0
ENDCHAR
STARTCHAR uni041B
ENCODING 1051
SWIDTH 677 0
DWIDTH 13 0
BBX 13 13 0 0
BITMAP
0200
0200
0700
0500
0980
0980
0880
10C0
1040
1040
2060
2020
F8F8
ENDCHAR
STARTCHAR uni041C
ENCODING 1052
SWIDTH 833 0
DWIDTH 16 0
BBX 15 12 0 0
BITMAP
F00E
381C
281C
2C2C
242C
262C
264C
234C
238C
218C
210C
7812
ENDCHAR
STARTCHAR uni041D
ENCODING 1053
SWIDTH 760 0
DWIDTH 14 0
BBX 14 12 0 0
BITMAP
7878
3010
3010
3010
3010
3FF0
3010
3010
3010
3010
3010
F87C
ENDCHAR
STARTCHAR uni041E
ENCODING 1054
SWIDTH 781 0
DWIDTH 15 0
BBX 13 12 1 0
BITMAP
1F80
2060
6030
C010
C018
C018
C018
C018
C018
4010
2020
1FC0
ENDCHAR
STARTCHAR uni041F
ENCODING 1055
SWIDTH 751 0
DWIDTH 14 0
BBX 13 12 1 0
BITMAP
FFF8
6020
6020
6020
6020
6020
6020
6020
6020
6020
6020
E070
ENDCHAR
STARTCHAR uni0420
ENCODING 1056
SWIDTH 563 0
DWIDTH 11 0
BBX 10 12 0 0
BITMAP
FF00
3180
30C0
30C0
3040
30C0
3180
3600
3000
3000
3000
3800
ENDCHAR
STARTCHAR uni0421
ENCODING 1057
SWIDTH 635 0
DWIDTH 12 0
BBX 10 13 1 -1
BITMAP
0F80
30C0
2040
4000
C000
C000
C000
C000
C000
C000
4000
2040
1FC0
ENDCHAR
STARTCHAR uni0422
ENCODING 1058
SWIDTH 615 0
DWIDTH 12 0
BBX 12 13 0 0
BITMAP
0010
7FF0
C610
8610
0600
0600
0600
0600
0600
0600
0600
0600
0F00
ENDCHAR
STARTCHAR uni0423
ENCODING 1059
SWIDTH 656 0
DWIDTH 12 0
BBX 13 13 0 -1
BITMAP
F878
2020
3020
1040
1840
0880
0880
0D00
0500
0600
0200
3400
1800
ENDCHAR
STARTCHAR uni0424
ENCODING 1060
SWIDTH 736 0
DWIDTH 14 0
BBX 12 12 1 0
BITMAP
0F80
0600
3FC0
6660
C630
C630
C630
E660
3FC0
0600
0600
1F00
ENDCHAR
STARTCHAR uni0425
ENCODING 1061
SWIDTH 698 0
DWIDTH 13 0
BBX 12 12 0 0
BITMAP
F870
3020
1840
0C80
0D00
0600
0300
0580
0880
1040
1060
7CF0
ENDCHAR
STARTCHAR uni0426
ENCODING 1062
SWIDTH 753 0
DWIDTH 14 0
BBX 13 14 1 -2
BITMAP
E070
6060
6060
6060
6060
6060
6060
6060
6060
6060
6060
FFF0
0008
0008
ENDCHAR
STARTCHAR uni0427
ENCODING 1063
SWIDTH 662 0
DWIDTH 13 0
BBX 12 12 0 0
BITMAP
F9F0
2040
2040
2040
2040
2040
30C0
1F40
0040
0040
0040
03E0
ENDCHAR
STARTCHAR uni0428
ENCODING 1064
SWIDTH 1049 0
DWIDTH 20 0
BBX 18 12 1 0
BITMAP
E1C380
60C180
60C180
60C180
60C180
60C180
60C180
60C180
60C180
60C180
60C180
FFFFC0
ENDCHAR
STARTCHAR uni0429
ENCODING 1065
SWIDTH 1033 0
DWIDTH 20 0
BBX 19 15 1 -3
BITMAP
E1C380
60C180
60C180
60C180
60C180
60C180
60C180
60C180
60C180
60C180
60C180
FFFF80
000040
000040
000020
ENDCHAR
STARTCHAR uni042A
ENCODING 1066
SWIDTH 767 0
DWIDTH 15 0
BBX 14 12 0 0
BITMAP
FF00
8600
8600
0600
0600
07F0
0618
060C
060C
0608
0618
0FE0
ENDCHAR
STARTCHAR uni042B
ENCODING 1067
SWIDTH 908 0
DWIDTH 17 0
BBX 16 12 1 0
BITMAP
F01E
200C
200C
200C
200C
3F8C
21CC
20CC
20CC
20CC
218C
7F3F
ENDCHAR
STARTCHAR uni042C
ENCODING 1068
SWIDTH 623 0
DWIDTH 12 0
BBX 10 12 1 0
BITMAP
F000
2000
2000
2000
2000
3F00
21C0
20C0
20C0
20C0
6180
7F00
ENDCHAR
STARTCHAR uni042D
ENCODING 1069
SWIDTH 635 0
DWIDTH 12 0
BBX 10 12 1 0
BITMAP
7E00
C300
8180
00C0
10C0
1FC0
10C0
00C0
00C0
0080
8180
FE00
ENDCHAR
STARTCHAR uni042E
ENCODING 1070
SWIDTH 1111 0
DWIDTH 21 0
BBX 20 13 0 -1
BITMAP
7C1F80
306040
30C020
308030
318030
318030
3F8030
318030
318030
30C030
30C060
F070C0
001F00
ENDCHAR
STARTCHAR uni042F
ENCODING 1071
SWIDTH 625 0
DWIDTH 12 0
BBX 12 12 0 0
BITMAP
1FC0
18C0
30C0
10C0
10C0
0BC0
0CC0
18C0
18C0
30C0
70C0
E3F0
ENDCHAR
STARTCHAR uni0430
ENCODING 1072
SWIDTH 406 0
DWIDTH 8 0
BBX 7 8 1 0
BITMAP
30
48
88
08
38
48
88
FE
ENDCHAR
STARTCHAR uni0431
ENCODING 1073
SWIDTH 510 0
DWIDTH 10 0
BBX 8 12 1 0
BITMAP
7E
40
80
80
FC
C2
83
81
81
83
42
3C
ENDCHAR
STARTCHAR uni0432
ENCODING 1074
SWIDTH 428 0
DWIDTH 8 0
BBX 6 8 1 0
BITMAP
F8
4C
4C
78
44
44
44
F8
ENDCHAR
STARTCHAR uni0433
ENCODING 1075
SWIDTH 356 0
DWIDTH 7 0
BBX 7 8 0 -1
BITMAP
7E
22
22
20
20
20
20
F8
ENDCHAR
STARTCHAR uni0434
ENCODING 1076
SWIDTH 469 0
DWIDTH 9 0
BBX 9 10 0 -2
BITMAP
0800
0800
1400
2400
2400
2200
4200
7F00
8080
8080
ENDCHAR
STARTCHAR uni0435
ENCODING 1077
SWIDTH 417 0
DWIDTH 8 0
BBX 6 8 1 0
BITMAP
78
84
FC
80
80
80
C4
78
ENDCHAR
STARTCHAR uni0436
ENCODING 1078
SWIDTH 628 0
DWIDTH 12 0
BBX 12 9 0 -1
BITMAP
4020
A640
2680
1680
1F80
36C0
2640
6760
C030
ENDCHAR
STARTCHAR uni0437
ENCODING 1079
SWIDTH 385 0
DWIDTH 7 0
BBX 5 8 1 0
BITMAP
F0
88
18
30
18
08
88
F8
ENDCHAR
STARTCHAR uni0438
ENCODING 1080
SWIDTH 543 0
DWIDTH 10 0
BBX 8 7 1 0
BITMAP
E3
46
4A
52
52
62
E3
ENDCHAR
STARTCHAR uni0439
ENCODING 1081
SWIDTH 543 0
DWIDTH 10 0
BBX 8 12 1 0
BITMAP
22
26
18
00
00
E3
46
4A
52
52
62
E3
ENDCHAR
STARTCHAR uni043A
ENCODING 1082
SWIDTH 434 0
DWIDTH 8 0
BBX 8 9 0 0
BITMAP
03
65
24
28
38
24
24
22
F3
ENDCHAR
STARTCHAR uni043B
ENCODING 1083
SWIDTH 493 0
DWIDTH 9 0
BBX 9 8 0 0
BITMAP
0800
1400
1400
1600
2200
2300
4100
E780
ENDCHAR
STARTCHAR uni043C
ENCODING 1084
SWIDTH 588 0
DWIDTH 11 0
BBX 10 7 1 0
BITMAP
C1C0
6180
A380
B580
9580
8980
E000
ENDCHAR
STARTCHAR uni043D
ENCODING 1085
SWIDTH 543 0
DWIDTH 10 0
BBX 10 8 0 0
BITMAP
7180
2100
2100
3F00
2100
2100
2100
FBC0
ENDCHAR
STARTCHAR uni043E
ENCODING 1086
SWIDTH 510 0
DWIDTH 10 0
BBX 8 8 1 0
BITMAP
38
46
83
81
81
83
C2
7C
ENDCHAR
STARTCHAR uni043F
ENCODING 1087
SWIDTH 543 0
DWIDTH 10 0
BBX 10 8 0 -1
BITMAP
7FC0
2100
2100
2100
2100
2100
2100
FBC0
ENDCHAR
STARTCHAR uni0440
ENCODING 1088
SWIDTH 510 0
DWIDTH 10 0
BBX 9 14 0 -5
BITMAP
2000
7E00
6300
6180
6080
6080
6180
6100
7E00
6000
6000
6000
6000
F000
ENDCHAR
STARTCHAR uni0441
ENCODING 1089
SWIDTH 417 0
DWIDTH 8 0
BBX 6 8 1 0
BITMAP
38
4C
C0
80
80
80
C0
7C
ENDCHAR
STARTCHAR uni0442
ENCODING 1090
SWIDTH 411 0
DWIDTH 8 0
BBX 8 9 0 -1
BITMAP
01
FF
99
18
18
18
18
18
3C
ENDCHAR
STARTCHAR uni0443
ENCODING 1091
SWIDTH 417 0
DWIDTH 8 0
BBX 6 12 1 -5
BITMAP
C4
C4
48
48
28
30
30
10
20
20
40
80
ENDCHAR
STARTCHAR uni0444
ENCODING 1092
SWIDTH 764 0
DWIDTH 15 0
BBX 13 18 1 -5
BITMAP
0200
0600
0200
0200
0200
3FE0
4630
C218
8218
8218
8218
8210
6F20
12C0
0200
0200
0200
0F80
ENDCHAR
STARTCHAR uni0445
ENCODING 1093
BBX 8 7 0 0
BITMAP
F6
24
14
18
14
22
71
ENDCHAR
STARTCHAR uni0446
ENCODING 1094
SWIDTH 543 0
DWIDTH 10 0
BBX 10 10 0 -2
BITMAP
7BC0
2100
2100
2100
2100
2100
2100
FF80
0040
0040
ENDCHAR
STARTCHAR uni0447
ENCODING 1095
SWIDTH 510 0
DWIDTH 10 0
BBX 10 8 0 0
BITMAP
F7C0
2100
2100
2300
3D00
0100
0100
0780
ENDCHAR
STARTCHAR uni0448
ENCODING 1096
SWIDTH 794 0
DWIDTH 15 0
BBX 15 8 0 0
BITMAP
FBDE
2108
2108
2108
2108
2108
2108
FFFE
ENDCHAR
STARTCHAR uni0449
ENCODING 1097
SWIDTH 794 0
DWIDTH 15 0
BBX 15 10 0 -2
BITMAP
FBDE
2108
2108
2108
2108
2108
2108
FFFC
0002
0002
ENDCHAR
STARTCHAR uni044A
ENCODING 1098
SWIDTH 522 0
DWIDTH 10 0
BBX 9 7 0 0
BITMAP
F800
9800
1F00
1980
1880
1880
3F00
ENDCHAR
STARTCHAR uni044B
ENCODING 1099
SWIDTH 624 0
DWIDTH 12 0
BBX 12 8 0 0
BITMAP
F800
20F0
2040
3E40
2240
2340
2240
7DE0
ENDCHAR
STARTCHAR uni044C
ENCODING 1100
SWIDTH 434 0
DWIDTH 8 0
BBX 8 8 0 0
BITMAP
F8
20
20
3E
23
23
22
FC
ENDCHAR
STARTCHAR uni044D
ENCODING 1101
SWIDTH 405 0
DWIDTH 8 0
BBX 6 8 1 0
BITMAP
70
88
84
04
7C
04
8C
70
ENDCHAR
STARTCHAR uni044E
ENCODING 1102
SWIDTH 779 0
DWIDTH 15 0
BBX 14 9 0 -1
BITMAP
00F0
7108
220C
2204
3E04
2204
230C
F118
00F0
ENDCHAR
STARTCHAR uni044F
ENCODING 1103
SWIDTH 412 0
DWIDTH 8 0
BBX 8 8 0 0
BITMAP
3E
64
64
3C
34
24
64
CF
ENDCHAR
STARTCHAR uni0451
ENCODING 1105
SWIDTH 417 0
DWIDTH 8 0
BBX 6 11 1 0
BITMAP
6C
00
00
78
84
FC
80
80
80
C4
78
ENDCHAR
STARTCHAR uni0452
ENCODING 1106
SWIDTH 499 0
DWIDTH 9 0
BBX 9 15 0 -3
BITMAP
6000
2000
FC00
2000
2000
2F00
3100
2180
2180
2180
2180
2100
5100
0100
0200
ENDCHAR
STARTCHAR uni0453
ENCODING 1107
SWIDTH 356 0
DWIDTH 7 0
BBX 7 13 0 -1
BITMAP
0C
18
00
00
00
7E
22
22
20
20
20
20
F0
ENDCHAR
STARTCHAR uni0454
ENCODING 1108
SWIDTH 417 0
DWIDTH 8 0
BBX 6 9 1 0
BITMAP
30
4C
C0
80
F8
80
C0
40
3C
ENDCHAR
STARTCHAR uni0455
ENCODING 1109
SWIDTH 365 0
DWIDTH 7 0
BBX 5 8 1 0
BITMAP
78
88
C0
70
18
08
88
70
ENDCHAR
STARTCHAR uni0456
ENCODING 1110
SWIDTH 229 0
DWIDTH 4 0
BBX 2 12 1 0
BITMAP
C0
00
00
00
40
C0
40
40
40
40
40
C0
ENDCHAR
STARTCHAR uni0457
ENCODING 1111
SWIDTH 229 0
DWIDTH 4 0
BBX 5 11 0 0
BITMAP
D8
00
00
20
60
20
20
20
20
20
60
ENDCHAR
STARTCHAR uni0458
ENCODING 1112
SWIDTH 229 0
DWIDTH 4 0
BBX 3 17 0 -5
BITMAP
60
00
00
00
20
60
20
20
20
20
20
20
20
20
20
40
80
ENDCHAR
STARTCHAR uni0459
ENCODING 1113
SWIDTH 682 0
DWIDTH 13 0
BBX 12 8 0 0
BITMAP
0800
0C00
1400
17F0
2230
2210
4310
C3E0
ENDCHAR
STARTCHAR uni045A
ENCODING 1114
SWIDTH 710 0
DWIDTH 13 0
BBX 13 9 0 -1
BITMAP
03C0
7100
2100
21F0
3F18
2108
2118
21B0
DA40
ENDCHAR
STARTCHAR uni045B
ENCODING 1115
SWIDTH 506 0
DWIDTH 10 0
BBX 8 13 0 0
BITMAP
20
60
20
FC
20
20
2F
31
21
21
21
21
71
ENDCHAR
STARTCHAR uni045C
ENCODING 1116
SWIDTH 434 0
DWIDTH 8 0
BBX 7 13 1 -1
BITMAP
0C
18
00
00
06
CA
48
50
70
48
48
C4
06
ENDCHAR
STARTCHAR uni045E
ENCODING 1118
SWIDTH 417 0
DWIDTH 8 0
BBX 6 17 1 -5
BITMAP
44
CC
30
00
00
C4
44
48
48
28
30
30
10
20
20
C0
80
ENDCHAR
STARTCHAR uni045F
ENCODING 1119
SWIDTH 543 0
DWIDTH 10 0
BBX 9 10 0 -2
BITMAP
F800
2380
2100
2100
2100
2100
2100
FF80
0400
0400
ENDCHAR
STARTCHAR uni0490
ENCODING 1168
SWIDTH 490 0
DWIDTH 9 0
BBX 9 15 0 0
BITMAP
0080
0080
FF80
3000
3000
3000
3000
3000
3000
3000
3000
3000
3000
3000
7C00
ENDCHAR
STARTCHAR uni0491
ENCODING 1169
SWIDTH 347 0
DWIDTH 7 0
BBX 7 9 0 -1
BITMAP
02
7E
20
20
20
20
20
20
F0
ENDCHAR
STARTCHAR Wgrave
ENCODING 7808
SWIDTH 885 0
DWIDTH 17 0
BBX 17 17 0 -1
BITMAP
010000
018000
000000
000000
FFBB80
631100
632100
212200
31C200
10C200
18C400
18C400
096800
0D2800
063000
063000
041000
ENDCHAR
STARTCHAR wgrave
ENCODING 7809
SWIDTH 667 0
DWIDTH 13 0
BBX 13 13 0 -1
BITMAP
0400
0200
0100
0000
0000
FF78
4210
6220
2320
3320
1540
1C80
0880
ENDCHAR
STARTCHAR Wacute
ENCODING 7810
SWIDTH 885 0
DWIDTH 17 0
BBX 17 17 0 -1
BITMAP
002000
004000
008000
000000
FFBB80
631100
632100
212200
31C200
10C200
18C400
18C400
096800
0D2800
063000
063000
041000
ENDCHAR
STARTCHAR wacute
ENCODING 7811
SWIDTH 667 0
DWIDTH 13 0
BBX 13 13 0 -1
BITMAP
0180
0300
0000
0000
0000
FF78
4210
6220
2320
3320
1540
1C80
0880
ENDCHAR
STARTCHAR Wdieresis
ENCODING 7812
SWIDTH 885 0
DWIDTH 17 0
BBX 17 13 0 -1
BITMAP
FFBB80
631100
632100
212200
31C200
10C200
18C400
18C400
096800
0D2800
063000
063000
041000
ENDCHAR
STARTCHAR wdieresis
ENCODING 7813
SWIDTH 667 0
DWIDTH 13 0
BBX 13 12 0 -1
BITMAP
0C80
0000
0000
0000
FF78
4210
6220
2320
3320
1540
1C80
0880
ENDCHAR
STARTCHAR Ygrave
ENCODING 7922
SWIDTH 656 0
DWIDTH 12 0
BBX 13 17 0 -1
BITMAP
0C00
0600
0000
0000
F878
6020
3020
1840
1880
0D00
0700
0600
0200
0200
0200
0200
1F80
ENDCHAR
STARTCHAR ygrave
ENCODING 7923
SWIDTH 417 0
DWIDTH 8 0
BBX 6 17 1 -5
BITMAP
60
20
10
00
00
C4
44
48
48
28
30
30
10
20
20
C0
80
ENDCHAR
STARTCHAR uni2010
ENCODING 8208
BBX 5 1 7 5
BITMAP
F8
ENDCHAR
STARTCHAR endash
ENCODING 8211
BBX 8 1 6 5
BITMAP
FF
ENDCHAR
STARTCHAR emdash
ENCODING 8212
BBX 19 1 0 5
BITMAP
FFFFE0
ENDCHAR
STARTCHAR uni2015
ENCODING 8213
BBX 17 1 1 5
BITMAP
FFFF80
ENDCHAR
STARTCHAR uni2016
ENCODING 8214
BBX 3 18 8 -3
BITMAP
A0
A0
A0
A0
A0
A0
A0
A0
A0
A0
A0
A0
A0
A0
A0
A0
A0
A0
ENDCHAR
STARTCHAR underscoredbl
ENCODING 8215
SWIDTH 500 0
DWIDTH 10 0
BBX 10 3 0 -5
BITMAP
FFC0
0000
FFC0
ENDCHAR
STARTCHAR quoteleft
ENCODING 8216
BBX 3 5 13 10
BITMAP
20
40
40
E0
40
ENDCHAR
STARTCHAR quoteright
ENCODING 8217
BBX 3 5 3 10
BITMAP
60
60
20
40
80
ENDCHAR
STARTCHAR quotesinglbase
ENCODING 8218
SWIDTH 219 0
DWIDTH 4 0
BBX 3 4 1 -3
BITMAP
C0
20
40
80
ENDCHAR
STARTCHAR quotereversed
ENCODING 8219
SWIDTH 219 0
DWIDTH 4 0
BBX 3 4 1 8
BITMAP
E0
C0
80
40
ENDCHAR
STARTCHAR quotedblleft
ENCODING 8220
BBX 5 4 12 11
BITMAP
48
90
90
D8
ENDCHAR
STARTCHAR quotedblright
ENCODING 8221
BBX 6 5 2 10
BITMAP
58
6C
48
50
80
ENDCHAR
STARTCHAR quotedblbase
ENCODING 8222
SWIDTH 448 0
DWIDTH 9 0
BBX 7 4 1 -3
BITMAP
CC
46
42
84
ENDCHAR
STARTCHAR dagger
ENCODING 8224
SWIDTH 427 0
DWIDTH 8 0
BBX 8 18 0 -5
BITMAP
18
18
18
08
08
EF
FF
10
08
08
08
18
18
18
18
18
18
18
ENDCHAR
STARTCHAR daggerdbl
ENCODING 8225
SWIDTH 427 0
DWIDTH 8 0
BBX 8 17 0 -5
BITMAP
18
18
08
08
EF
FF
08
08
18
08
08
FF
FF
08
08
18
08
ENDCHAR
STARTCHAR bullet
ENCODING 8226
SWIDTH 354 0
DWIDTH 7 0
BBX 5 5 1 4
BITMAP
20
F0
F8
F8
70
ENDCHAR
STARTCHAR twodotenleader
ENCODING 8229
BBX 8 2 6 5
BITMAP
82
C3
ENDCHAR
STARTCHAR ellipsis
ENCODING 8230
BBX 15 2 2 5
BITMAP
C106
C106
ENDCHAR
STARTCHAR perthousand
ENCODING 8240
BBX 17 17 1 -3
BITMAP
300800
281000
482000
442000
444000
488000
290000
390000
02C300
052500
092480
092880
112880
212480
412480
40C300
800000
ENDCHAR
STARTCHAR minute
ENCODING 8242
BBX 2 4 2 11
BITMAP
40
80
80
80
ENDCHAR
STARTCHAR second
ENCODING 8243
BBX 5 4 2 11
BITMAP
48
D0
90
90
ENDCHAR
STARTCHAR uni2035
ENCODING 8245
BBX 3 5 8 10
BITMAP
C0
40
40
20
20
ENDCHAR
STARTCHAR guilsinglleft
ENCODING 8249
SWIDTH 198 0
DWIDTH 4 0
BBX 3 6 0 1
BITMAP
20
20
40
C0
40
20
ENDCHAR
STARTCHAR guilsinglright
ENCODING 8250
SWIDTH 198 0
DWIDTH 4 0
BBX 3 8 0 0
BITMAP
80
40
40
20
20
60
40
80
ENDCHAR
STARTCHAR uni203B
ENCODING 8251
BBX 13 13 3 -1
BITMAP
8008
4210
2020
1040
0880
4510
6230
0500
0880
1040
2220
4210
8008
ENDCHAR
STARTCHAR exclamdbl
ENCODING 8252
SWIDTH 396 0
DWIDTH 8 0
BBX 5 12 1 0
BITMAP
C8
C8
C8
48
48
48
48
48
08
00
48
C8
ENDCHAR
STARTCHAR uni203E
ENCODING 8254
SWIDTH 440 0
DWIDTH 8 0
BBX 9 1 0 16
BITMAP
FF80
ENDCHAR
STARTCHAR fraction
ENCODING 8260
SWIDTH 188 0
DWIDTH 4 0
BBX 9 13 -3 -1
BITMAP
0080
0100
0100
0200
0400
0400
0800
1000
1000
2000
4000
4000
8000
ENDCHAR
STARTCHAR uni207F
ENCODING 8319
SWIDTH 333 0
DWIDTH 6 0
BBX 6 5 0 5
BITMAP
78
48
48
48
EC
ENDCHAR
STARTCHAR franc
ENCODING 8355
SWIDTH 642 0
DWIDTH 12 0
BBX 12 12 0 0
BITMAP
7FC0
3040
3000
3000
3000
30B0
3FC0
3080
3080
3080
3080
F9E0
ENDCHAR
STARTCHAR lira
ENCODING 8356
SWIDTH 573 0
DWIDTH 11 0
BBX 10 17 1 -5
BITMAP
03C0
0400
0400
0800
0800
0800
1800
1000
FE00
1000
FC00
2000
2000
40C0
7840
8C80
8300
ENDCHAR
STARTCHAR peseta
ENCODING 8359
SWIDTH 1010 0
BBX 18 12 0 0
BITMAP
FF0000
308000
30C000
305000
30D180
30FE40
37B400
303300
3030C0
303440
303440
7C1FC0
ENDCHAR
STARTCHAR Euro
ENCODING 8364
SWIDTH 712 0
DWIDTH 14 0
BBX 12 12 1 0
BITMAP
07C0
1820
3010
2000
FFE0
6000
FFC0
6000
2000
3010
1010
0FE0
ENDCHAR
STARTCHAR uni2103
ENCODING 8451
BBX 13 15 2 -1
BITMAP
E000
A000
A1F0
E618
0C08
0800
1800
1000
1000
1000
1000
1800
0C08
0610
03E0
ENDCHAR
STARTCHAR uni2105
ENCODING 8453
BBX 14 15 3 -2
BITMAP
7008
8810
8020
8040
8040
8880
7100
0200
0478
08C8
1084
1084
2084
40C8
0078
ENDCHAR
STARTCHAR uni2109
ENCODING 8457
BBX 15 14 2 0
BITMAP
E000
A7FE
A102
E102
0102
0108
0108
01F0
0108
0108
0100
0100
0100
07C0
ENDCHAR
STARTCHAR uni2113
ENCODING 8467
SWIDTH 479 0
DWIDTH 9 0
BBX 6 13 2 0
BITMAP
30
48
48
48
48
50
60
40
C0
40
40
44
78
ENDCHAR
STARTCHAR uni2116
ENCODING 8470
BBX 17 14 1 0
BITMAP
301C00
181400
182400
1C2000
162000
162000
132700
112480
11A880
10E880
D0E480
D06700
A02000
602F80
ENDCHAR
STARTCHAR uni2121
ENCODING 8481
BBX 7 5 6 7
BITMAP
D8
54
54
16
1E
ENDCHAR
STARTCHAR trademark
ENCODING 8482
SWIDTH 979 0
BBX 18 8 0 4
BITMAP
FEE1C0
996180
187280
185280
185A80
184C80
184880
18E9C0
ENDCHAR
STARTCHAR Omega
ENCODING 8486
SWIDTH 775 0
DWIDTH 15 0
BBX 13 12 1 0
BITMAP
1F80
2060
6030
C010
C010
C010
4010
6030
3060
0988
8508
FDF8
ENDCHAR
STARTCHAR estimated
ENCODING 8494
SWIDTH 600 0
DWIDTH 11 0
BBX 10 10 1 0
BITMAP
3F00
4080
C080
C080
FFC0
C000
C000
C080
6100
3E00
ENDCHAR
STARTCHAR oneeighth
ENCODING 8539
SWIDTH 813 0
DWIDTH 15 0
BBX 13 13 2 -1
BITMAP
8040
8080
8100
8100
8200
C220
0450
0890
0870
1088
2088
2070
4000
ENDCHAR
STARTCHAR threeeighths
ENCODING 8540
SWIDTH 823 0
DWIDTH 16 0
BBX 14 13 1 -1
BITMAP
6020
9040
2080
5080
1100
1110
E228
0448
0438
0844
1044
1038
2000
ENDCHAR
STARTCHAR fiveeighths
ENCODING 8541
SWIDTH 823 0
DWIDTH 16 0
BBX 14 12 1 0
BITMAP
7020
4040
7040
1080
0900
F110
022C
0224
0438
0824
0824
1038
ENDCHAR
STARTCHAR seveneighths
ENCODING 8542
SWIDTH 823 0
DWIDTH 16 0
BBX 14 13 1 -1
BITMAP
F020
1040
1080
2080
2100
4110
0228
0448
0438
0844
1044
1038
2000
ENDCHAR
STARTCHAR uni2160
ENCODING 8544
BBX 6 13 7 0
BITMAP
F8
20
20
20
20
20
20
20
20
20
20
20
FC
ENDCHAR
STARTCHAR uni2161
ENCODING 8545
BBX 9 13 5 0
BITMAP
FF80
2200
2200
2200
2200
2200
2200
2200
2200
2200
2200
2200
FF80
ENDCHAR
STARTCHAR uni2162
ENCODING 8546
BBX 13 13 3 0
BITMAP
FFF0
2220
2220
2220
2220
2220
2220
2220
2220
2220
2220
2220
FFF8
ENDCHAR
STARTCHAR uni2163
ENCODING 8547
BBX 13 13 3 0
BITMAP
FF38
2410
2210
2210
2220
2120
2120
2120
2140
20C0
20C0
2080
F000
ENDCHAR
STARTCHAR uni2164
ENCODING 8548
BBX 11 13 4 0
BITMAP
F1E0
6040
2080
2080
1080
1100
1100
0900
0900
0A00
0600
0400
0400
ENDCHAR
STARTCHAR uni2165
ENCODING 8549
BBX 13 13 3 0
BITMAP
E3F8
4120
4220
2220
2220
2220
2420
1420
1420
1420
0820
0820
0878
ENDCHAR
STARTCHAR uni2166
ENCODING 8550
BBX 13 13 3 0
BITMAP
EFF8
4490
4490
4490
4890
2890
2890
2890
3090
3090
1090
1090
01F8
ENDCHAR
STARTCHAR uni2167
ENCODING 8551
BBX 13 13 3 0
BITMAP
DFF8
8A50
8A50
4A50
4A50
5250
5250
5250
5250
2250
2250
2250
27F8
ENDCHAR
STARTCHAR uni2168
ENCODING 8552
BBX 13 13 3 0
BITMAP
FE38
4410
4220
4220
4140
40C0
4080
4140
4140
4220
4210
4410
FF38
ENDCHAR
STARTCHAR uni2169
ENCODING 8553
BBX 12 13 4 0
BITMAP
F1E0
4040
2080
1100
0900
0A00
0400
0A00
1100
1100
2080
4040
F1F0
ENDCHAR
STARTCHAR uni216A
ENCODING 8554
BBX 13 13 3 0
BITMAP
E3F8
4110
2210
2210
1410
1410
0810
1410
1410
2210
2210
4110
F3F8
ENDCHAR
STARTCHAR uni216B
ENCODING 8555
BBX 14 13 2 0
BITMAP
73FC
2148
2248
1248
1448
0C48
0848
0C48
1448
1248
2248
2248
F7FC
ENDCHAR
STARTCHAR uni2170
ENCODING 8560
BBX 3 12 8 0
BITMAP
40
00
00
40
C0
40
40
40
40
40
40
E0
ENDCHAR
STARTCHAR uni2171
ENCODING 8561
BBX 8 12 5 0
BITMAP
63
00
00
22
E6
22
22
22
22
22
22
77
ENDCHAR
STARTCHAR uni2172
ENCODING 8562
BBX 13 12 3 0
BITMAP
2220
0000
0000
2220
6660
2220
2220
2220
2220
2220
2220
F778
ENDCHAR
STARTCHAR uni2173
ENCODING 8563
BBX 11 13 4 -1
BITMAP
4000
0000
0000
4000
DCE0
4840
4840
4440
4480
4280
4280
4300
A100
ENDCHAR
STARTCHAR uni2174
ENCODING 8564
BBX 8 9 5 -1
BITMAP
E3
42
62
22
24
14
14
08
08
ENDCHAR
STARTCHAR uni2175
ENCODING 8565
BBX 12 13 3 -1
BITMAP
0030
0000
0000
0020
F3E0
4120
2220
2220
1220
1420
1C20
0830
0840
ENDCHAR
STARTCHAR uni2176
ENCODING 8566
BBX 14 13 2 -1
BITMAP
0098
0000
0000
0088
E798
4488
4488
2488
2488
2888
1888
11DC
1000
ENDCHAR
STARTCHAR uni2177
ENCODING 8567
BBX 15 12 2 0
BITMAP
0358
0000
0000
ED00
47D8
4948
2948
2948
2948
3148
1148
17FE
ENDCHAR
STARTCHAR uni2178
ENCODING 8568
BBX 12 12 4 0
BITMAP
6000
0000
0000
0000
CE70
4420
4240
4180
4280
4240
4440
ECF0
ENDCHAR
STARTCHAR uni2179
ENCODING 8569
BBX 9 8 5 0
BITMAP
7380
2100
1200
0C00
1400
2200
2200
E780
ENDCHAR
STARTCHAR arrowleft
ENCODING 8592
BBX 17 7 1 2
BITMAP
040000
180000
200000
FFFF80
200000
180000
040000
ENDCHAR
STARTCHAR arrowup
ENCODING 8593
BBX 5 17 7 -3
BITMAP
20
30
70
A8
20
20
20
20
20
20
20
20
20
20
20
20
20
ENDCHAR
STARTCHAR arrowright
ENCODING 8594
BBX 17 5 1 3
BITMAP
000C00
000200
FFFF80
000200
000C00
ENDCHAR
STARTCHAR arrowdown
ENCODING 8595
BBX 5 17 7 -3
BITMAP
20
20
20
20
20
20
20
20
20
20
20
20
A8
A8
70
20
20
ENDCHAR
STARTCHAR arrowboth
ENCODING 8596
BBX 17 7 1 1
BITMAP
100400
300600
600300
FFFF80
600300
300600
100400
ENDCHAR
STARTCHAR arrowupdn
ENCODING 8597
SWIDTH 500 0
DWIDTH 10 0
BBX 7 17 1 -4
BITMAP
18
38
74
92
10
10
10
10
10
10
10
10
90
56
3C
18
10
ENDCHAR
STARTCHAR uni2196
ENCODING 8598
BBX 15 15 2 -2
BITMAP
C000
7800
6000
5000
0800
0400
0200
0100
0080
0040
0020
0010
0008
0004
0002
ENDCHAR
STARTCHAR uni2197
ENCODING 8599
BBX 15 15 2 -2
BITMAP
0006
003C
000C
0014
0020
0040
0080
0100
0200
0400
0800
1000
2000
4000
8000
ENDCHAR
STARTCHAR uni2198
ENCODING 8600
BBX 15 15 2 -2
BITMAP
8000
4000
2000
1000
0800
0400
0200
0100
0080
0040
0024
0014
000C
001E
0002
ENDCHAR
STARTCHAR uni2199
ENCODING 8601
BBX 15 15 2 -2
BITMAP
0002
0004
0008
0010
0020
0040
0080
0100
0200
0400
4800
5000
6000
F000
8000
ENDCHAR
STARTCHAR arrowupdnbse
ENCODING 8616
SWIDTH 500 0
DWIDTH 10 0
BBX 7 19 1 -6
BITMAP
18
38
74
92
10
10
10
10
10
10
10
10
90
56
3C
18
10
00
FE
ENDCHAR
STARTCHAR partialdiff
ENCODING 8706
SWIDTH 490 0
DWIDTH 9 0
BBX 8 13 1 0
BITMAP
1E
23
41
01
0D
33
41
C1
81
82
82
84
F8
ENDCHAR
STARTCHAR Delta
ENCODING 8710
SWIDTH 615 0
DWIDTH 12 0
BBX 11 12 0 0
BITMAP
0600
0600
0A00
0B00
0900
1180
1180
20C0
20C0
4040
4060
FFE0
ENDCHAR
STARTCHAR element
ENCODING 8712
BBX 8 13 5 -1
BITMAP
0F
30
60
40
80
80
FF
80
80
40
60
38
07
ENDCHAR
STARTCHAR product
ENCODING 8719
BBX 16 16 2 -2
BITMAP
FFFE
3018
3018
3018
3018
3018
3018
3018
3018
3018
3018
3018
3018
3018
3018
FC7F
ENDCHAR
STARTCHAR summation
ENCODING 8721
BBX 15 16 2 -2
BITMAP
FFFC
4004
2002
1002
1802
0800
0400
0600
0400
0400
0800
1002
2002
4002
4002
FFFE
ENDCHAR
STARTCHAR minus
ENCODING 8722
SWIDTH 667 0
DWIDTH 13 0
BBX 10 1 1 5
BITMAP
FFC0
ENDCHAR
STARTCHAR uni2215
ENCODING 8725
BBX 9 16 5 -2
BITMAP
0080
0080
0100
0100
0200
0400
0400
0800
0800
1000
1000
2000
2000
4000
4000
8000
ENDCHAR
STARTCHAR uni2219
ENCODING 8729
SWIDTH 219 0
DWIDTH 4 0
BBX 2 2 1 5
BITMAP
C0
C0
ENDCHAR
STARTCHAR radical
ENCODING 8730
BBX 17 16 2 -2
BITMAP
000080
000100
000200
000200
000400
000800
000800
E01000
202000
104000
104000
088000
090000
060000
060000
040000
ENDCHAR
STARTCHAR proportional
ENCODING 8733
BBX 16 7 2 2
BITMAP
3C3F
C340
8180
8080
8180
C360
3C1F
ENDCHAR
STARTCHAR infinity
ENCODING 8734
BBX 17 7 1 2
BITMAP
3C1E00
422100
814080
808080
814080
432100
3C1E00
ENDCHAR
STARTCHAR orthogonal
ENCODING 8735
BBX 13 13 3 -1
BITMAP
8000
8000
8000
8000
8000
8000
8000
8000
8000
8000
8000
8000
FFF8
ENDCHAR
STARTCHAR angle
ENCODING 8736
BBX 12 15 3 -2
BITMAP
0010
0020
0040
0080
0080
0100
0200
0400
0400
0800
1000
2000
2000
4000
FFF0
ENDCHAR
STARTCHAR uni2223
ENCODING 8739
BBX 1 14 9 -1
BITMAP
80
80
80
80
80
80
80
80
80
80
80
80
80
80
ENDCHAR
STARTCHAR uni2225
ENCODING 8741
BBX 7 14 6 -1
BITMAP
12
12
12
22
24
24
24
44
48
48
48
90
90
90
ENDCHAR
STARTCHAR logicaland
ENCODING 8743
BBX 10 13 4 0
BITMAP
0400
0400
0A00
0A00
1200
1100
2100
2080
4080
4080
4040
8040
8040
ENDCHAR
STARTCHAR logicalor
ENCODING 8744
BBX 11 14 4 -2
BITMAP
8020
8020
4040
4040
2040
2080
2080
1100
1100
0A00
0A00
0A00
0400
0400
ENDCHAR
STARTCHAR intersection
ENCODING 8745
BBX 11 14 4 -2
BITMAP
1F00
20C0
4040
8020
8020
8020
8020
8020
8020
8020
8020
8020
8020
8020
ENDCHAR
STARTCHAR union
ENCODING 8746
BBX 11 14 4 -1
BITMAP
8020
8020
8020
8020
8020
8020
8020
8020
8020
8020
8020
4040
20C0
1F00
ENDCHAR
STARTCHAR integral
ENCODING 8747
BBX 10 17 5 -3
BITMAP
01C0
0240
0240
0400
0400
0400
0400
0C00
0C00
0800
0800
0800
0800
1000
9000
B000
E000
ENDCHAR
STARTCHAR uni222E
ENCODING 8750
BBX 11 17 5 -3
BITMAP
01C0
0260
0240
0200
0400
1E00
2500
4480
4C80
4880
2900
1E00
0800
0800
D000
9000
6000
ENDCHAR
STARTCHAR therefore
ENCODING 8756
BBX 11 10 4 1
BITMAP
0400
0400
0000
0000
0000
0000
0000
0000
0020
C060
ENDCHAR
STARTCHAR uni2235
ENCODING 8757
BBX 11 10 4 1
BITMAP
8020
C060
0000
0000
0000
0000
0000
0000
0400
0400
ENDCHAR
STARTCHAR uni2236
ENCODING 8758
BBX 1 9 9 1
BITMAP
80
80
00
00
00
00
00
80
80
ENDCHAR
STARTCHAR uni2237
ENCODING 8759
BBX 11 11 4 0
BITMAP
C060
0000
0000
0000
0000
0000
0000
0000
0000
C060
C020
ENDCHAR
STARTCHAR uni223D
ENCODING 8765
BBX 17 7 1 2
BITMAP
381E00
402100
804080
808080
408100
410700
3E0000
ENDCHAR
STARTCHAR approxequal
ENCODING 8776
BBX 14 7 2 2
BITMAP
1C00
2704
4188
1CF0
6704
8188
00F0
ENDCHAR
STARTCHAR uni224C
ENCODING 8780
BBX 16 11 2 1
BITMAP
703C
8042
8081
8101
8101
C602
3C0C
0000
FFFF
0000
FFFF
ENDCHAR
STARTCHAR uni2252
ENCODING 8786
BBX 13 9 3 1
BITMAP
6000
0000
0000
FFF8
0000
FFF8
0000
0030
0030
ENDCHAR
STARTCHAR notequal
ENCODING 8800
BBX 13 9 3 1
BITMAP
0080
0100
FFF8
0200
0400
FFF8
0800
0800
1000
ENDCHAR
STARTCHAR equivalence
ENCODING 8801
BBX 13 7 3 2
BITMAP
FFF8
0000
0000
FFF8
0000
0000
FFF8
ENDCHAR
STARTCHAR lessequal
ENCODING 8804
BBX 13 11 2 0
BITMAP
0018
00E0
0300
1C00
6000
3C00
C380
3870
0708
00E0
0018
ENDCHAR
STARTCHAR greaterequal
ENCODING 8805
BBX 13 11 3 0
BITMAP
E000
1800
0700
00E0
0018
0060
0788
3870
C380
1C00
6000
ENDCHAR
STARTCHAR uni2266
ENCODING 8806
BBX 13 11 3 1
BITMAP
0038
01C0
0E00
7000
0F00
00F0
0000
0000
FFF8
0000
FFF8
ENDCHAR
STARTCHAR uni2267
ENCODING 8807
BBX 13 11 3 1
BITMAP
E000
1E00
0180
0070
0780
7800
0000
0000
FFF8
0000
FFF8
ENDCHAR
STARTCHAR uni226E
ENCODING 8814
BBX 14 12 2 0
BITMAP
0100
010C
0130
01C0
0F00
3100
C100
3900
0700
0180
0170
010C
ENDCHAR
STARTCHAR uni226F
ENCODING 8815
BBX 13 11 4 0
BITMAP
C400
3400
0C00
0780
0460
0418
04E0
0700
1C00
6400
8400
ENDCHAR
STARTCHAR circleplus
ENCODING 8853
BBX 7 8 6 2
BITMAP
38
D6
92
92
FE
92
92
7C
ENDCHAR
STARTCHAR uni2299
ENCODING 8857
BBX 15 14 2 -1
BITMAP
07C0
1830
2008
4004
4004
8002
8102
8102
8002
4004
4004
2008
1830
07C0
ENDCHAR
STARTCHAR perpendicular
ENCODING 8869
BBX 14 15 3 -1
BITMAP
0200
0200
0200
0200
0200
0200
0200
0200
0200
0200
0200
0200
0200
0200
FFFC
ENDCHAR
STARTCHAR uni22BF
ENCODING 8895
BBX 14 14 3 -1
BITMAP
0004
000C
0014
0024
0044
0084
0104
0204
0404
0804
1004
2004
4004
FFFC
ENDCHAR
STARTCHAR house
ENCODING 8962
SWIDTH 604 0
DWIDTH 11 0
BBX 9 10 1 0
BITMAP
0C00
1200
2100
4080
8080
8080
8080
8080
8080
FF80
ENDCHAR
STARTCHAR revlogicalnot
ENCODING 8976
SWIDTH 667 0
DWIDTH 13 0
BBX 10 6 1 3
BITMAP
FFC0
8000
8000
8000
8000
8000
ENDCHAR
STARTCHAR uni2312
ENCODING 8978
BBX 13 6 3 4
BITMAP
0F80
1040
2020
4010
8008
8008
ENDCHAR
STARTCHAR integraltp
ENCODING 8992
SWIDTH 604 0
DWIDTH 11 0
BBX 4 21 5 -5
BITMAP
70
90
80
80
80
80
80
80
80
80
80
80
80
80
80
80
80
80
80
80
80
ENDCHAR
STARTCHAR integralbt
ENCODING 8993
SWIDTH 604 0
DWIDTH 11 0
BBX 4 21 2 -5
BITMAP
10
10
10
10
10
10
10
10
10
10
10
10
10
10
10
10
10
10
10
D0
60
ENDCHAR
STARTCHAR uni2460
ENCODING 9312
BBX 17 17 1 -3
BITMAP
07E000
181C00
208600
478100
408100
808080
808080
808080
808080
808080
808080
808080
408080
47F100
200200
180C00
07F000
ENDCHAR
STARTCHAR uni2461
ENCODING 9313
BBX 17 17 1 -3
BITMAP
07E000
181C00
21C600
422100
443100
863080
802080
806080
804080
818080
820080
821080
441080
47F100
200200
180C00
07F000
ENDCHAR
STARTCHAR uni2462
ENCODING 9314
BBX 17 17 1 -3
BITMAP
07E000
181C00
21C600
422100
463100
823080
802080
804080
81E080
803080
863080
863080
442080
43C100
200200
180C00
07F000
ENDCHAR
STARTCHAR uni2463
ENCODING 9315
BBX 17 17 1 -3
BITMAP
07E000
181C00
204600
404100
40C100
814080
814080
824080
824080
844080
884080
8FF080
404080
41F100
200200
180C00
07F000
ENDCHAR
STARTCHAR uni2464
ENCODING 9316
BBX 17 17 1 -3
BITMAP
07E000
181C00
23F600
420100
420100
820080
83E080
823080
801080
801080
861080
863080
422080
41C100
200200
180C00
07F000
ENDCHAR
STARTCHAR uni2465
ENCODING 9317
BBX 17 17 1 -3
BITMAP
07E000
181C00
21E600
432100
423100
862080
840080
85E080
863080
861080
841080
863080
422080
41C100
200200
180C00
07F000
ENDCHAR
STARTCHAR uni2466
ENCODING 9318
BBX 17 17 1 -3
BITMAP
07E000
181C00
27F600
442100
442100
804080
804080
808080
808080
818080
818080
818080
418080
410100
200200
180C00
07F000
ENDCHAR
STARTCHAR uni2467
ENCODING 9319
BBX 17 17 1 -3
BITMAP
07E000
181C00
21C600
422100
441100
841080
822080
81C080
822080
841080
841080
841080
462080
43C100
200200
180C00
07F000
ENDCHAR
STARTCHAR uni2468
ENCODING 9320
BBX 17 17 1 -3
BITMAP
07E000
181C00
21C600
422100
421100
861080
861080
861080
823080
81D080
801080
832080
422080
41C100
200200
180C00
07F000
ENDCHAR
STARTCHAR uni2469
ENCODING 9321
BBX 17 17 1 -3
BITMAP
07E000
181C00
243E00
5C4900
444500
844480
844480
844480
844480
844480
844480
844480
444880
5F3900
200200
180C00
07F000
ENDCHAR
STARTCHAR uni2474
ENCODING 9332
BBX 17 17 1 -3
BITMAP
200200
200200
408100
478100
808080
808080
808080
808080
808080
808080
808080
808080
808080
47F100
400100
200200
200000
ENDCHAR
STARTCHAR uni2475
ENCODING 9333
BBX 17 17 1 -3
BITMAP
200200
200200
41C100
422100
843080
863080
802080
806080
804080
818080
820080
821080
841080
47F100
400100
200200
200000
ENDCHAR
STARTCHAR uni2476
ENCODING 9334
BBX 17 17 1 -3
BITMAP
200200
200200
41C100
422100
863080
863080
802080
804080
81E080
803080
863080
863080
842080
43C100
400100
200200
200000
ENDCHAR
STARTCHAR uni2477
ENCODING 9335
BBX 17 17 1 -3
BITMAP
200200
200200
404100
404100
80C080
814080
814080
824080
824080
844080
884080
8FF080
804080
43F100
400100
200200
200000
ENDCHAR
STARTCHAR uni2478
ENCODING 9336
BBX 17 17 1 -3
BITMAP
200200
201200
43F100
420100
820080
820080
83E080
823080
801080
801080
861080
863080
822080
41C100
400100
200200
200000
ENDCHAR
STARTCHAR uni2479
ENCODING 9337
BBX 17 17 1 -3
BITMAP
200200
200200
40E100
412100
823080
862080
860080
85E080
863080
861080
841080
863080
822080
41C100
400100
200200
200000
ENDCHAR
STARTCHAR uni247A
ENCODING 9338
BBX 17 17 1 -3
BITMAP
200200
200200
47F100
442100
842080
804080
804080
808080
808080
818080
818080
818080
818080
410100
400100
200200
200000
ENDCHAR
STARTCHAR uni247B
ENCODING 9339
BBX 17 17 1 -3
BITMAP
200200
200200
41C100
422100
841080
841080
822080
81C080
822080
841080
841080
841080
862080
43C100
400100
200200
200000
ENDCHAR
STARTCHAR uni247C
ENCODING 9340
BBX 17 17 1 -3
BITMAP
200200
200200
41C100
422100
821080
861080
861080
861080
823080
81D080
801080
832080
822080
41C100
400100
200200
200000
ENDCHAR
STARTCHAR uni247D
ENCODING 9341
BBX 17 17 1 -3
BITMAP
200200
200200
443900
5C4900
844480
844480
844480
844480
844480
844480
844480
844480
844880
5F3900
400100
200200
200000
ENDCHAR
STARTCHAR uni247E
ENCODING 9342
BBX 17 17 1 -3
BITMAP
200200
200200
441100
5C7100
841080
841080
841080
841080
841080
841080
841080
841080
841080
5F7D00
400100
200200
200000
ENDCHAR
STARTCHAR uni247F
ENCODING 9343
BBX 17 17 1 -3
BITMAP
200200
200200
443900
5C4D00
844480
844480
840480
840880
840880
841080
842080
844080
844480
5F7D00
400100
200200
200000
ENDCHAR
STARTCHAR uni2480
ENCODING 9344
BBX 17 17 1 -3
BITMAP
200200
200200
443900
5C4D00
844480
844480
840880
841080
843C80
840C80
84C480
84C480
844C80
5F3900
400100
200200
200000
ENDCHAR
STARTCHAR uni2481
ENCODING 9345
BBX 17 17 1 -3
BITMAP
200200
240200
440900
5C0900
841880
841880
843880
845880
845880
845880
849880
84FC80
841880
5F3D00
400100
200200
200000
ENDCHAR
STARTCHAR uni2482
ENCODING 9346
BBX 17 17 1 -3
BITMAP
200200
200600
447D00
5C4100
844080
844080
847880
844C80
840480
840480
844480
84C480
844880
5F3900
400100
200200
200000
ENDCHAR
STARTCHAR uni2483
ENCODING 9347
BBX 17 17 1 -3
BITMAP
200200
200200
443900
5C2500
844C80
844080
844080
84F880
84CC80
84C480
844480
844480
844C80
5F3900
400100
200200
200000
ENDCHAR
STARTCHAR uni2484
ENCODING 9348
BBX 17 17 1 -3
BITMAP
200200
200200
44FD00
5C8900
848880
841080
841080
841080
842080
842080
842080
842080
842080
5F2100
400100
200200
200000
ENDCHAR
STARTCHAR uni2485
ENCODING 9349
BBX 17 17 1 -3
BITMAP
200200
200200
443900
5C4500
844480
844480
844880
843880
844480
844480
848480
848480
844480
5F3900
400100
200200
200000
ENDCHAR
STARTCHAR uni2486
ENCODING 9350
BBX 17 16 1 -2
BITMAP
200200
200200
443900
5C4900
844480
844480
844480
844480
844C80
843480
840480
844480
844880
5F3100
400100
200200
ENDCHAR
STARTCHAR uni2487
ENCODING 9351
BBX 17 17 1 -3
BITMAP
200200
200200
4E1900
512500
914480
994480
814480
824480
824480
844480
884480
904480
90A480
5F1900
400100
200200
200000
ENDCHAR
STARTCHAR uni2488
ENCODING 9352
BBX 10 13 5 0
BITMAP
1000
1000
F000
3000
3000
3000
3000
3000
3000
3000
3000
3080
FCC0
ENDCHAR
STARTCHAR uni2489
ENCODING 9353
BBX 10 12 5 0
BITMAP
7800
8C00
8400
C400
0400
0800
1000
2000
4000
8200
8280
FCC0
ENDCHAR
STARTCHAR uni248A
ENCODING 9354
BBX 11 12 4 0
BITMAP
3C00
4600
6200
6200
0400
0800
3E00
0600
C200
C200
4640
3860
ENDCHAR
STARTCHAR uni248B
ENCODING 9355
BBX 11 12 4 0
BITMAP
0400
0800
0800
1800
2800
2800
4800
8800
8800
FE00
0840
3E60
ENDCHAR
STARTCHAR uni248C
ENCODING 9356
BBX 11 12 4 0
BITMAP
7E00
4000
4000
4000
7C00
4600
4200
0200
C200
C200
4440
3860
ENDCHAR
STARTCHAR uni248D
ENCODING 9357
BBX 11 12 4 0
BITMAP
1C00
2200
6600
4000
4000
5C00
E200
4200
4200
4200
6240
3C60
ENDCHAR
STARTCHAR uni248E
ENCODING 9358
BBX 11 12 4 0
BITMAP
FE00
8400
8400
0800
0800
1000
1000
3000
3000
3000
3040
2060
ENDCHAR
STARTCHAR uni248F
ENCODING 9359
BBX 11 12 4 0
BITMAP
3C00
4600
4200
4200
4400
3800
4400
8200
8200
8200
4640
3C60
ENDCHAR
STARTCHAR uni2490
ENCODING 9360
BBX 10 12 5 0
BITMAP
7800
CC00
8400
8400
8400
8400
CC00
7400
0400
C400
8880
70C0
ENDCHAR
STARTCHAR uni2491
ENCODING 9361
BBX 16 13 2 0
BITMAP
1000
10E0
F090
3110
3118
3118
3108
3108
3118
3118
3110
3092
FCE3
ENDCHAR
STARTCHAR uni2492
ENCODING 9362
BBX 16 13 2 0
BITMAP
1000
1040
F1C0
3040
3040
3040
3040
3040
3040
3040
3040
3042
FDFB
ENDCHAR
STARTCHAR uni2493
ENCODING 9363
BBX 16 13 2 0
BITMAP
1000
10F0
F098
3108
3188
3018
3010
3020
3040
3080
3080
310A
FDFB
ENDCHAR
STARTCHAR uni2494
ENCODING 9364
BBX 16 13 2 0
BITMAP
1000
10F0
F118
3198
3198
3030
30E0
3010
3008
3188
3118
3112
FCE3
ENDCHAR
STARTCHAR uni2495
ENCODING 9365
BBX 16 13 2 0
BITMAP
1000
1010
F030
3030
3070
3070
30B0
3130
3130
3230
33F8
3032
FCFB
ENDCHAR
STARTCHAR uni2496
ENCODING 9366
BBX 16 13 2 0
BITMAP
1008
11F8
F100
3100
3100
31F0
3118
3108
3008
3188
3118
3112
FCE3
ENDCHAR
STARTCHAR uni2497
ENCODING 9367
BBX 16 13 2 0
BITMAP
1000
1070
F088
3098
3110
3100
3170
3198
3108
3108
3108
3192
FCF3
ENDCHAR
STARTCHAR uni2498
ENCODING 9368
BBX 16 12 2 0
BITMAP
13F8
E210
2210
2020
2020
2040
2040
2040
20C0
20C0
3082
FC83
ENDCHAR
STARTCHAR uni2499
ENCODING 9369
BBX 16 13 2 0
BITMAP
1000
10E0
F110
3108
3108
3110
30E0
3110
3108
3208
3108
3112
FCE3
ENDCHAR
STARTCHAR uni249A
ENCODING 9370
BBX 16 13 2 0
BITMAP
1000
10E0
F190
3118
3108
3108
3118
3198
30E8
3010
3190
3112
FCE3
ENDCHAR
STARTCHAR uni249B
ENCODING 9371
BBX 16 12 2 0
BITMAP
38E0
4C90
8510
C508
0508
0908
1108
2108
4108
4110
8492
FC63
ENDCHAR
STARTCHAR SF100000
ENCODING 9472
BBX 19 1 0 5
BITMAP
FFFFE0
ENDCHAR
STARTCHAR uni2501
ENCODING 9473
BBX 19 1 0 5
BITMAP
FFFFE0
ENDCHAR
STARTCHAR SF110000
ENCODING 9474
BBX 1 19 9 -4
BITMAP
80
80
80
80
80
80
80
80
80
80
80
80
80
80
80
80
80
80
80
ENDCHAR
STARTCHAR uni2503
ENCODING 9475
BBX 1 19 9 -4
BITMAP
80
80
80
80
80
80
80
80
80
80
80
80
80
80
80
80
80
80
80
ENDCHAR
STARTCHAR uni2504
ENCODING 9476
BBX 17 1 1 5
BITMAP
F1C780
ENDCHAR
STARTCHAR uni2505
ENCODING 9477
BBX 17 1 1 5
BITMAP
F1C780
ENDCHAR
STARTCHAR uni2506
ENCODING 9478
BBX 1 17 9 -3
BITMAP
80
80
80
80
00
00
80
80
80
80
00
00
00
80
80
80
80
ENDCHAR
STARTCHAR uni2507
ENCODING 9479
BBX 1 17 9 -3
BITMAP
80
80
80
80
00
00
80
80
80
80
00
00
00
80
80
80
80
ENDCHAR
STARTCHAR uni2508
ENCODING 9480
BBX 17 1 1 5
BITMAP
E77380
ENDCHAR
STARTCHAR uni2509
ENCODING 9481
BBX 17 1 1 5
BITMAP
E77380
ENDCHAR
STARTCHAR uni250A
ENCODING 9482
BBX 1 18 9 -3
BITMAP
80
80
80
00
00
80
80
80
00
00
80
80
80
00
00
80
80
80
ENDCHAR
STARTCHAR uni250B
ENCODING 9483
BBX 1 18 9 -3
BITMAP
80
80
80
00
00
80
80
80
00
00
80
80
80
00
00
80
80
80
ENDCHAR
STARTCHAR SF010000
ENCODING 9484
BBX 10 10 9 -4
BITMAP
FFC0
8000
8000
8000
8000
8000
8000
8000
8000
8000
ENDCHAR
STARTCHAR uni250D
ENCODING 9485
BBX 10 10 9 -4
BITMAP
FFC0
8000
8000
8000
8000
8000
8000
8000
8000
8000
ENDCHAR
STARTCHAR uni250E
ENCODING 9486
BBX 10 10 9 -4
BITMAP
FFC0
8000
8000
8000
8000
8000
8000
8000
8000
8000
ENDCHAR
STARTCHAR uni250F
ENCODING 9487
BBX 10 10 9 -4
BITMAP
FFC0
8000
8000
8000
8000
8000
8000
8000
8000
8000
ENDCHAR
STARTCHAR SF030000
ENCODING 9488
BBX 10 10 0 -4
BITMAP
FFC0
0040
0040
0040
0040
0040
0040
0040
0040
0040
ENDCHAR
STARTCHAR uni2511
ENCODING 9489
BBX 10 10 0 -4
BITMAP
FFC0
0040
0040
0040
0040
0040
0040
0040
0040
0040
ENDCHAR
STARTCHAR uni2512
ENCODING 9490
BBX 10 10 0 -4
BITMAP
FFC0
0040
0040
0040
0040
0040
0040
0040
0040
0040
ENDCHAR
STARTCHAR uni2513
ENCODING 9491
BBX 10 10 0 -4
BITMAP
FFC0
0040
0040
0040
0040
0040
0040
0040
0040
0040
ENDCHAR
STARTCHAR SF020000
ENCODING 9492
BBX 10 10 9 5
BITMAP
8000
8000
8000
8000
8000
8000
8000
8000
8000
FFC0
ENDCHAR
STARTCHAR uni2515
ENCODING 9493
BBX 10 10 9 5
BITMAP
8000
8000
8000
8000
8000
8000
8000
8000
8000
FFC0
ENDCHAR
STARTCHAR uni2516
ENCODING 9494
BBX 10 10 9 5
BITMAP
8000
8000
8000
8000
8000
8000
8000
8000
8000
FFC0
ENDCHAR
STARTCHAR uni2517
ENCODING 9495
BBX 10 10 9 5
BITMAP
8000
8000
8000
8000
8000
8000
8000
8000
8000
FFC0
ENDCHAR
STARTCHAR SF040000
ENCODING 9496
BBX 10 10 0 5
BITMAP
0040
0040
0040
0040
0040
0040
0040
0040
0040
FFC0
ENDCHAR
STARTCHAR uni2519
ENCODING 9497
BBX 10 10 0 5
BITMAP
0040
0040
0040
0040
0040
0040
0040
0040
0040
FFC0
ENDCHAR
STARTCHAR uni251A
ENCODING 9498
BBX 10 10 0 5
BITMAP
0040
0040
0040
0040
0040
0040
0040
0040
0040
FFC0
ENDCHAR
STARTCHAR uni251B
ENCODING 9499
BBX 10 10 0 5
BITMAP
0040
0040
0040
0040
0040
0040
0040
0040
0040
FFC0
ENDCHAR
STARTCHAR SF080000
ENCODING 9500
BBX 10 19 9 -4
BITMAP
8000
8000
8000
8000
8000
8000
8000
8000
8000
FFC0
8000
8000
8000
8000
8000
8000
8000
8000
8000
ENDCHAR
STARTCHAR uni251D
ENCODING 9501
BBX 10 19 9 -4
BITMAP
8000
8000
8000
8000
8000
8000
8000
8000
8000
FFC0
8000
8000
8000
8000
8000
8000
8000
8000
8000
ENDCHAR
STARTCHAR uni251E
ENCODING 9502
BBX 10 19 9 -4
BITMAP
8000
8000
8000
8000
8000
8000
8000
8000
8000
FFC0
8000
8000
8000
8000
8000
8000
8000
8000
8000
ENDCHAR
STARTCHAR uni251F
ENCODING 9503
BBX 10 19 9 -4
BITMAP
8000
8000
8000
8000
8000
8000
8000
8000
8000
FFC0
8000
8000
8000
8000
8000
8000
8000
8000
8000
ENDCHAR
STARTCHAR uni2520
ENCODING 9504
BBX 10 19 9 -4
BITMAP
8000
8000
8000
8000
8000
8000
8000
8000
8000
FFC0
8000
8000
8000
8000
8000
8000
8000
8000
8000
ENDCHAR
STARTCHAR uni2521
ENCODING 9505
BBX 10 19 9 -4
BITMAP
8000
8000
8000
8000
8000
8000
8000
8000
8000
FFC0
8000
8000
8000
8000
8000
8000
8000
8000
8000
ENDCHAR
STARTCHAR uni2522
ENCODING 9506
BBX 10 19 9 -4
BITMAP
8000
8000
8000
8000
8000
8000
8000
8000
8000
FFC0
8000
8000
8000
8000
8000
8000
8000
8000
8000
ENDCHAR
STARTCHAR uni2523
ENCODING 9507
BBX 10 19 9 -4
BITMAP
8000
8000
8000
8000
8000
8000
8000
8000
8000
FFC0
8000
8000
8000
8000
8000
8000
8000
8000
8000
ENDCHAR
STARTCHAR SF090000
ENCODING 9508
BBX 10 19 0 -4
BITMAP
0040
0040
0040
0040
0040
0040
0040
0040
0040
FFC0
0040
0040
0040
0040
0040
0040
0040
0040
0040
ENDCHAR
STARTCHAR uni2525
ENCODING 9509
BBX 10 19 0 -4
BITMAP
0040
0040
0040
0040
0040
0040
0040
0040
0040
FFC0
0040
0040
0040
0040
0040
0040
0040
0040
0040
ENDCHAR
STARTCHAR uni2526
ENCODING 9510
BBX 10 19 0 -4
BITMAP
0040
0040
0040
0040
0040
0040
0040
0040
0040
FFC0
0040
0040
0040
0040
0040
0040
0040
0040
0040
ENDCHAR
STARTCHAR uni2527
ENCODING 9511
BBX 10 19 0 -4
BITMAP
0040
0040
0040
0040
0040
0040
0040
0040
0040
FFC0
0040
0040
0040
0040
0040
0040
0040
0040
0040
ENDCHAR
STARTCHAR uni2528
ENCODING 9512
BBX 10 19 0 -4
BITMAP
0040
0040
0040
0040
0040
0040
0040
0040
0040
FFC0
0040
0040
0040
0040
0040
0040
0040
0040
0040
ENDCHAR
STARTCHAR uni2529
ENCODING 9513
BBX 10 19 0 -4
BITMAP
0040
0040
0040
0040
0040
0040
0040
0040
0040
FFC0
0040
0040
0040
0040
0040
0040
0040
0040
0040
ENDCHAR
STARTCHAR uni252A
ENCODING 9514
BBX 10 19 0 -4
BITMAP
0040
0040
0040
0040
0040
0040
0040
0040
0040
FFC0
0040
0040
0040
0040
0040
0040
0040
0040
0040
ENDCHAR
STARTCHAR uni252B
ENCODING 9515
BBX 10 19 0 -4
BITMAP
0040
0040
0040
0040
0040
0040
0040
0040
0040
FFC0
0040
0040
0040
0040
0040
0040
0040
0040
0040
ENDCHAR
STARTCHAR SF060000
ENCODING 9516
BBX 19 10 0 -4
BITMAP
FFFFE0
004000
004000
004000
004000
004000
004000
004000
004000
004000
ENDCHAR
STARTCHAR uni252D
ENCODING 9517
BBX 19 10 0 -4
BITMAP
FFFFE0
004000
004000
004000
004000
004000
004000
004000
004000
004000
ENDCHAR
STARTCHAR uni252E
ENCODING 9518
BBX 19 10 0 -4
BITMAP
FFFFE0
004000
004000
004000
004000
004000
004000
004000
004000
004000
ENDCHAR
STARTCHAR uni252F
ENCODING 9519
BBX 19 10 0 -4
BITMAP
FFFFE0
004000
004000
004000
004000
004000
004000
004000
004000
004000
ENDCHAR
STARTCHAR uni2530
ENCODING 9520
BBX 19 10 0 -4
BITMAP
FFFFE0
004000
004000
004000
004000
004000
004000
004000
004000
004000
ENDCHAR
STARTCHAR uni2531
ENCODING 9521
BBX 19 10 0 -4
BITMAP
FFFFE0
004000
004000
004000
004000
004000
004000
004000
004000
004000
ENDCHAR
STARTCHAR uni2532
ENCODING 9522
BBX 19 10 0 -4
BITMAP
FFFFE0
004000
004000
004000
004000
004000
004000
004000
004000
004000
ENDCHAR
STARTCHAR uni2533
ENCODING 9523
BBX 19 10 0 -4
BITMAP
FFFFE0
004000
004000
004000
004000
004000
004000
004000
004000
004000
ENDCHAR
STARTCHAR SF070000
ENCODING 9524
BBX 19 10 0 5
BITMAP
004000
004000
004000
004000
004000
004000
004000
004000
004000
FFFFE0
ENDCHAR
STARTCHAR uni2535
ENCODING 9525
BBX 19 10 0 5
BITMAP
004000
004000
004000
004000
004000
004000
004000
004000
004000
FFFFE0
ENDCHAR
STARTCHAR uni2536
ENCODING 9526
BBX 19 10 0 5
BITMAP
004000
004000
004000
004000
004000
004000
004000
004000
004000
FFFFE0
ENDCHAR
STARTCHAR uni2537
ENCODING 9527
BBX 19 10 0 5
BITMAP
004000
004000
004000
004000
004000
004000
004000
004000
004000
FFFFE0
ENDCHAR
STARTCHAR uni2538
ENCODING 9528
BBX 19 10 0 5
BITMAP
004000
004000
004000
004000
004000
004000
004000
004000
004000
FFFFE0
ENDCHAR
STARTCHAR uni2539
ENCODING 9529
BBX 19 10 0 5
BITMAP
004000
004000
004000
004000
004000
004000
004000
004000
004000
FFFFE0
ENDCHAR
STARTCHAR uni253A
ENCODING 9530
BBX 19 10 0 5
BITMAP
004000
004000
004000
004000
004000
004000
004000
004000
004000
FFFFE0
ENDCHAR
STARTCHAR uni253B
ENCODING 9531
BBX 19 10 0 5
BITMAP
004000
004000
004000
004000
004000
004000
004000
004000
004000
FFFFE0
ENDCHAR
STARTCHAR SF050000
ENCODING 9532
BBX 19 19 0 -4
BITMAP
004000
004000
004000
004000
004000
004000
004000
004000
004000
FFFFE0
004000
004000
004000
004000
004000
004000
004000
004000
004000
ENDCHAR
STARTCHAR uni253D
ENCODING 9533
BBX 19 19 0 -4
BITMAP
004000
004000
004000
004000
004000
004000
004000
004000
004000
FFFFE0
004000
004000
004000
004000
004000
004000
004000
004000
004000
ENDCHAR
STARTCHAR uni253E
ENCODING 9534
BBX 19 19 0 -4
BITMAP
004000
004000
004000
004000
004000
004000
004000
004000
004000
FFFFE0
004000
004000
004000
004000
004000
004000
004000
004000
004000
ENDCHAR
STARTCHAR uni253F
ENCODING 9535
BBX 19 19 0 -4
BITMAP
004000
004000
004000
004000
004000
004000
004000
004000
004000
FFFFE0
004000
004000
004000
004000
004000
004000
004000
004000
004000
ENDCHAR
STARTCHAR uni2540
ENCODING 9536
BBX 19 19 0 -4
BITMAP
004000
004000
004000
004000
004000
004000
004000
004000
004000
FFFFE0
004000
004000
004000
004000
004000
004000
004000
004000
004000
ENDCHAR
STARTCHAR uni2541
ENCODING 9537
BBX 19 19 0 -4
BITMAP
004000
004000
004000
004000
004000
004000
004000
004000
004000
FFFFE0
004000
004000
004000
004000
004000
004000
004000
004000
004000
ENDCHAR
STARTCHAR uni2542
ENCODING 9538
BBX 19 19 0 -4
BITMAP
004000
004000
004000
004000
004000
004000
004000
004000
004000
FFFFE0
004000
004000
004000
004000
004000
004000
004000
004000
004000
ENDCHAR
STARTCHAR uni2543
ENCODING 9539
BBX 19 19 0 -4
BITMAP
004000
004000
004000
004000
004000
004000
004000
004000
004000
FFFFE0
004000
004000
004000
004000
004000
004000
004000
004000
004000
ENDCHAR
STARTCHAR uni2544
ENCODING 9540
BBX 19 19 0 -4
BITMAP
004000
004000
004000
004000
004000
004000
004000
004000
004000
FFFFE0
004000
004000
004000
004000
004000
004000
004000
004000
004000
ENDCHAR
STARTCHAR uni2545
ENCODING 9541
BBX 19 19 0 -4
BITMAP
004000
004000
004000
004000
004000
004000
004000
004000
004000
FFFFE0
004000
004000
004000
004000
004000
004000
004000
004000
004000
ENDCHAR
STARTCHAR uni2546
ENCODING 9542
BBX 19 19 0 -4
BITMAP
004000
004000
004000
004000
004000
004000
004000
004000
004000
FFFFE0
004000
004000
004000
004000
004000
004000
004000
004000
004000
ENDCHAR
STARTCHAR uni2547
ENCODING 9543
BBX 19 19 0 -4
BITMAP
004000
004000
004000
004000
004000
004000
004000
004000
004000
FFFFE0
004000
004000
004000
004000
004000
004000
004000
004000
004000
ENDCHAR
STARTCHAR uni2548
ENCODING 9544
BBX 19 19 0 -4
BITMAP
004000
004000
004000
004000
004000
004000
004000
004000
004000
FFFFE0
004000
004000
004000
004000
004000
004000
004000
004000
004000
ENDCHAR
STARTCHAR uni2549
ENCODING 9545
BBX 19 19 0 -4
BITMAP
004000
004000
004000
004000
004000
004000
004000
004000
004000
FFFFE0
004000
004000
004000
004000
004000
004000
004000
004000
004000
ENDCHAR
STARTCHAR uni254A
ENCODING 9546
BBX 19 19 0 -4
BITMAP
004000
004000
004000
004000
004000
004000
004000
004000
004000
FFFFE0
004000
004000
004000
004000
004000
004000
004000
004000
004000
ENDCHAR
STARTCHAR uni254B
ENCODING 9547
BBX 19 19 0 -4
BITMAP
004000
004000
004000
004000
004000
004000
004000
004000
004000
FFFFE0
004000
004000
004000
004000
004000
004000
004000
004000
004000
ENDCHAR
STARTCHAR SF430000
ENCODING 9552
SWIDTH 708 0
DWIDTH 13 0
BBX 14 5 0 3
BITMAP
FFFC
FFFC
0000
FFFC
FFFC
ENDCHAR
STARTCHAR SF240000
ENCODING 9553
SWIDTH 708 0
DWIDTH 13 0
BBX 5 23 4 -6
BITMAP
C8
C8
C8
C8
C8
C8
C8
C8
C8
C8
C8
C8
C8
C8
C8
C8
C8
C8
C8
C8
C8
C8
C8
ENDCHAR
STARTCHAR SF510000
ENCODING 9554
SWIDTH 708 0
DWIDTH 13 0
BBX 8 14 6 -6
BITMAP
FF
FF
C0
FF
FF
C0
C0
C0
C0
C0
C0
C0
C0
C0
ENDCHAR
STARTCHAR SF520000
ENCODING 9555
SWIDTH 708 0
DWIDTH 13 0
BBX 10 13 4 -6
BITMAP
FFC0
FFC0
C800
C800
C800
C800
C800
C800
C800
C800
C800
C800
C800
ENDCHAR
STARTCHAR SF390000
ENCODING 9556
SWIDTH 708 0
DWIDTH 13 0
BBX 10 14 4 -6
BITMAP
FFC0
FFC0
C000
CFC0
CFC0
C800
C800
C800
C800
C800
C800
C800
C800
C800
ENDCHAR
STARTCHAR SF220000
ENCODING 9557
SWIDTH 708 0
DWIDTH 13 0
BBX 8 14 0 -6
BITMAP
FF
FF
03
FF
FF
03
03
03
03
03
03
03
03
03
ENDCHAR
STARTCHAR SF210000
ENCODING 9558
SWIDTH 708 0
DWIDTH 13 0
BBX 9 13 0 -6
BITMAP
FF80
FF80
0C80
0C80
0C80
0C80
0C80
0C80
0C80
0C80
0C80
0C80
0C80
ENDCHAR
STARTCHAR SF250000
ENCODING 9559
SWIDTH 708 0
DWIDTH 13 0
BBX 9 14 0 -6
BITMAP
FF80
FF80
0080
FC80
FC80
0C80
0C80
0C80
0C80
0C80
0C80
0C80
0C80
0C80
ENDCHAR
STARTCHAR SF500000
ENCODING 9560
SWIDTH 708 0
DWIDTH 13 0
BBX 8 14 6 3
BITMAP
C0
C0
C0
C0
C0
C0
C0
C0
C0
FF
FF
C0
FF
FF
ENDCHAR
STARTCHAR SF490000
ENCODING 9561
SWIDTH 708 0
DWIDTH 13 0
BBX 10 12 4 5
BITMAP
C800
C800
C800
C800
C800
C800
C800
C800
C800
C800
FFC0
FFC0
ENDCHAR
STARTCHAR SF380000
ENCODING 9562
SWIDTH 708 0
DWIDTH 13 0
BBX 10 14 4 3
BITMAP
C800
C800
C800
C800
C800
C800
C800
C800
C800
CFC0
CFC0
C000
FFC0
FFC0
ENDCHAR
STARTCHAR SF280000
ENCODING 9563
SWIDTH 708 0
DWIDTH 13 0
BBX 8 14 0 3
BITMAP
03
03
03
03
03
03
03
03
03
FF
FF
03
FF
FF
ENDCHAR
STARTCHAR SF270000
ENCODING 9564
SWIDTH 708 0
DWIDTH 13 0
BBX 9 12 0 5
BITMAP
0C80
0C80
0C80
0C80
0C80
0C80
0C80
0C80
0C80
0C80
FF80
FF80
ENDCHAR
STARTCHAR SF260000
ENCODING 9565
SWIDTH 708 0
DWIDTH 13 0
BBX 9 14 0 3
BITMAP
0C80
0C80
0C80
0C80
0C80
0C80
0C80
0C80
0C80
FC80
FC80
0080
FF80
FF80
ENDCHAR
STARTCHAR SF360000
ENCODING 9566
SWIDTH 708 0
DWIDTH 13 0
BBX 8 23 6 -6
BITMAP
C0
C0
C0
C0
C0
C0
C0
C0
C0
FF
FF
C0
FF
FF
C0
C0
C0
C0
C0
C0
C0
C0
C0
ENDCHAR
STARTCHAR SF370000
ENCODING 9567
SWIDTH 708 0
DWIDTH 13 0
BBX 10 23 4 -6
BITMAP
C800
C800
C800
C800
C800
C800
C800
C800
C800
C800
CFC0
CFC0
C800
C800
C800
C800
C800
C800
C800
C800
C800
C800
C800
ENDCHAR
STARTCHAR SF420000
ENCODING 9568
SWIDTH 708 0
DWIDTH 13 0
BBX 10 23 4 -6
BITMAP
C800
C800
C800
C800
C800
C800
C800
C800
C800
CFC0
CFC0
C000
CFC0
CFC0
C800
C800
C800
C800
C800
C800
C800
C800
C800
ENDCHAR
STARTCHAR SF190000
ENCODING 9569
SWIDTH 708 0
DWIDTH 13 0
BBX 8 23 0 -6
BITMAP
03
03
03
03
03
03
03
03
03
FF
FF
03
FF
FF
03
03
03
03
03
03
03
03
03
ENDCHAR
STARTCHAR SF200000
ENCODING 9570
SWIDTH 708 0
DWIDTH 13 0
BBX 9 23 0 -6
BITMAP
0C80
0C80
0C80
0C80
0C80
0C80
0C80
0C80
0C80
0C80
FC80
FC80
0C80
0C80
0C80
0C80
0C80
0C80
0C80
0C80
0C80
0C80
0C80
ENDCHAR
STARTCHAR SF230000
ENCODING 9571
SWIDTH 708 0
DWIDTH 13 0
BBX 9 23 0 -6
BITMAP
0C80
0C80
0C80
0C80
0C80
0C80
0C80
0C80
0C80
FC80
FC80
0080
FC80
FC80
0C80
0C80
0C80
0C80
0C80
0C80
0C80
0C80
0C80
ENDCHAR
STARTCHAR SF470000
ENCODING 9572
SWIDTH 708 0
DWIDTH 13 0
BBX 14 14 0 -6
BITMAP
FFFC
FFFC
0000
FFFC
FFFC
0300
0300
0300
0300
0300
0300
0300
0300
0300
ENDCHAR
STARTCHAR SF480000
ENCODING 9573
SWIDTH 708 0
DWIDTH 13 0
BBX 14 13 0 -6
BITMAP
FFFC
FFFC
0C80
0C80
0C80
0C80
0C80
0C80
0C80
0C80
0C80
0C80
0C80
ENDCHAR
STARTCHAR SF410000
ENCODING 9574
SWIDTH 708 0
DWIDTH 13 0
BBX 14 14 0 -6
BITMAP
FFFC
FFFC
0000
FCFC
FCFC
0C80
0C80
0C80
0C80
0C80
0C80
0C80
0C80
0C80
ENDCHAR
STARTCHAR SF450000
ENCODING 9575
SWIDTH 708 0
DWIDTH 13 0
BBX 14 14 0 3
BITMAP
0300
0300
0300
0300
0300
0300
0300
0300
0300
FFFC
FFFC
0000
FFFC
FFFC
ENDCHAR
STARTCHAR SF460000
ENCODING 9576
SWIDTH 708 0
DWIDTH 13 0
BBX 14 12 0 5
BITMAP
0C80
0C80
0C80
0C80
0C80
0C80
0C80
0C80
0C80
0C80
FFFC
FFFC
ENDCHAR
STARTCHAR SF400000
ENCODING 9577
SWIDTH 708 0
DWIDTH 13 0
BBX 14 14 0 3
BITMAP
0C80
0C80
0C80
0C80
0C80
0C80
0C80
0C80
0C80
FCFC
FCFC
0000
FFFC
FFFC
ENDCHAR
STARTCHAR SF540000
ENCODING 9578
SWIDTH 708 0
DWIDTH 13 0
BBX 14 23 0 -6
BITMAP
0300
0300
0300
0300
0300
0300
0300
0300
0300
FFFC
FFFC
0300
FFFC
FFFC
0300
0300
0300
0300
0300
0300
0300
0300
0300
ENDCHAR
STARTCHAR SF530000
ENCODING 9579
SWIDTH 708 0
DWIDTH 13 0
BBX 14 23 0 -6
BITMAP
0C80
0C80
0C80
0C80
0C80
0C80
0C80
0C80
0C80
0C80
FFFC
FFFC
0C80
0C80
0C80
0C80
0C80
0C80
0C80
0C80
0C80
0C80
0C80
ENDCHAR
STARTCHAR SF440000
ENCODING 9580
SWIDTH 708 0
DWIDTH 13 0
BBX 14 23 0 -6
BITMAP
0C80
0C80
0C80
0C80
0C80
0C80
0C80
0C80
0C80
FCFC
FCFC
0000
FCFC
FCFC
0C80
0C80
0C80
0C80
0C80
0C80
0C80
0C80
0C80
ENDCHAR
STARTCHAR uni256D
ENCODING 9581
BBX 9 9 10 -3
BITMAP
0380
0C00
1000
2000
4000
8000
8000
8000
8000
ENDCHAR
STARTCHAR uni256E
ENCODING 9582
BBX 10 9 0 -3
BITMAP
E000
1800
0400
0200
0100
0080
0080
0080
0040
ENDCHAR
STARTCHAR uni256F
ENCODING 9583
BBX 10 9 0 5
BITMAP
0040
0080
0080
0080
0100
0200
0400
1800
E000
ENDCHAR
STARTCHAR uni2570
ENCODING 9584
BBX 9 9 10 5
BITMAP
8000
8000
8000
8000
4000
2000
1000
0C00
0380
ENDCHAR
STARTCHAR uni2571
ENCODING 9585
BBX 19 19 0 -4
BITMAP
000020
000040
000080
000100
000200
000400
000800
001000
002000
004000
008000
010000
020000
040000
080000
100000
200000
400000
800000
ENDCHAR
STARTCHAR uni2572
ENCODING 9586
BBX 19 19 0 -4
BITMAP
800000
400000
200000
100000
080000
040000
020000
010000
008000
004000
002000
001000
000800
000400
000200
000100
000080
000040
000020
ENDCHAR
STARTCHAR uni2573
ENCODING 9587
BBX 19 19 0 -4
BITMAP
800020
400040
200080
100100
080200
040400
020800
011000
00A000
004000
00A000
011000
020800
040400
080200
100100
200080
400040
800020
ENDCHAR
STARTCHAR upblock
ENCODING 9600
SWIDTH 708 0
DWIDTH 13 0
BBX 14 11 0 6
BITMAP
FFFC
FFFC
FFFC
FFFC
FFFC
FFFC
FFFC
FFFC
FFFC
FFFC
FFFC
ENDCHAR
STARTCHAR uni2581
ENCODING 9601
BBX 19 3 0 -4
BITMAP
FFFFE0
FFFFE0
FFFFE0
ENDCHAR
STARTCHAR uni2582
ENCODING 9602
BBX 19 5 0 -4
BITMAP
FFFFE0
FFFFE0
FFFFE0
FFFFE0
FFFFE0
ENDCHAR
STARTCHAR uni2583
ENCODING 9603
BBX 19 7 0 -4
BITMAP
FFFFE0
FFFFE0
FFFFE0
FFFFE0
FFFFE0
FFFFE0
FFFFE0
ENDCHAR
STARTCHAR dnblock
ENCODING 9604
BBX 19 10 0 -4
BITMAP
FFFFE0
FFFFE0
FFFFE0
FFFFE0
FFFFE0
FFFFE0
FFFFE0
FFFFE0
FFFFE0
FFFFE0
ENDCHAR
STARTCHAR uni2585
ENCODING 9605
BBX 19 12 0 -4
BITMAP
FFFFE0
FFFFE0
FFFFE0
FFFFE0
FFFFE0
FFFFE0
FFFFE0
FFFFE0
FFFFE0
FFFFE0
FFFFE0
FFFFE0
ENDCHAR
STARTCHAR uni2586
ENCODING 9606
BBX 19 14 0 -4
BITMAP
FFFFE0
FFFFE0
FFFFE0
FFFFE0
FFFFE0
FFFFE0
FFFFE0
FFFFE0
FFFFE0
FFFFE0
FFFFE0
FFFFE0
FFFFE0
FFFFE0
ENDCHAR
STARTCHAR uni2587
ENCODING 9607
BBX 19 17 0 -4
BITMAP
FFFFE0
FFFFE0
FFFFE0
FFFFE0
FFFFE0
FFFFE0
FFFFE0
FFFFE0
FFFFE0
FFFFE0
FFFFE0
FFFFE0
FFFFE0
FFFFE0
FFFFE0
FFFFE0
FFFFE0
ENDCHAR
STARTCHAR block
ENCODING 9608
BBX 19 19 0 -4
BITMAP
FFFFE0
FFFFE0
FFFFE0
FFFFE0
FFFFE0
FFFFE0
FFFFE0
FFFFE0
FFFFE0
FFFFE0
FFFFE0
FFFFE0
FFFFE0
FFFFE0
FFFFE0
FFFFE0
FFFFE0
FFFFE0
FFFFE0
ENDCHAR
STARTCHAR uni2589
ENCODING 9609
BBX 17 19 0 -4
BITMAP
FFFF80
FFFF80
FFFF80
FFFF80
FFFF80
FFFF80
FFFF80
FFFF80
FFFF80
FFFF80
FFFF80
FFFF80
FFFF80
FFFF80
FFFF80
FFFF80
FFFF80
FFFF80
FFFF80
ENDCHAR
STARTCHAR uni258A
ENCODING 9610
BBX 14 19 0 -4
BITMAP
FFFC
FFFC
FFFC
FFFC
FFFC
FFFC
FFFC
FFFC
FFFC
FFFC
FFFC
FFFC
FFFC
FFFC
FFFC
FFFC
FFFC
FFFC
FFFC
ENDCHAR
STARTCHAR uni258B
ENCODING 9611
BBX 12 19 0 -4
BITMAP
FFF0
FFF0
FFF0
FFF0
FFF0
FFF0
FFF0
FFF0
FFF0
FFF0
FFF0
FFF0
FFF0
FFF0
FFF0
FFF0
FFF0
FFF0
FFF0
ENDCHAR
STARTCHAR lfblock
ENCODING 9612
BBX 10 19 0 -4
BITMAP
FFC0
FFC0
FFC0
FFC0
FFC0
FFC0
FFC0
FFC0
FFC0
FFC0
FFC0
FFC0
FFC0
FFC0
FFC0
FFC0
FFC0
FFC0
FFC0
ENDCHAR
STARTCHAR uni258D
ENCODING 9613
BBX 7 19 0 -4
BITMAP
FE
FE
FE
FE
FE
FE
FE
FE
FE
FE
FE
FE
FE
FE
FE
FE
FE
FE
FE
ENDCHAR
STARTCHAR uni258E
ENCODING 9614
BBX 5 19 0 -4
BITMAP
F8
F8
F8
F8
F8
F8
F8
F8
F8
F8
F8
F8
F8
F8
F8
F8
F8
F8
F8
ENDCHAR
STARTCHAR uni258F
ENCODING 9615
BBX 2 19 0 -4
BITMAP
C0
C0
C0
C0
C0
C0
C0
C0
C0
C0
C0
C0
C0
C0
C0
C0
C0
C0
C0
ENDCHAR
STARTCHAR rtblock
ENCODING 9616
SWIDTH 708 0
DWIDTH 13 0
BBX 7 23 7 -6
BITMAP
FE
FE
FE
FE
FE
FE
FE
FE
FE
FE
FE
FE
FE
FE
FE
FE
FE
FE
FE
FE
FE
FE
FE
ENDCHAR
STARTCHAR ltshade
ENCODING 9617
SWIDTH 708 0
DWIDTH 13 0
BBX 12 22 0 -5
BITMAP
8C40
0000
2110
0000
0000
0000
0000
8C40
0000
2110
0000
8C40
0000
2110
0000
8C40
0000
2110
0000
8C40
0000
2110
ENDCHAR
STARTCHAR shade
ENCODING 9618
SWIDTH 708 0
DWIDTH 13 0
BBX 13 22 0 -5
BITMAP
52A8
0000
AD50
0000
0000
0000
0000
52A8
0000
AD50
0000
52A8
0000
AD50
0000
52A8
0000
AD50
0000
52A8
0000
AD50
ENDCHAR
STARTCHAR dkshade
ENCODING 9619
BBX 19 19 0 -4
BITMAP
FFFFE0
99CCE0
99CCE0
FFFFE0
E67320
E67320
FFFFE0
99CCE0
99CCE0
FFFFE0
E67320
E67320
FFFFE0
99CCE0
99CCE0
FFFFE0
E67320
E67320
FFFFE0
ENDCHAR
STARTCHAR uni2594
ENCODING 9620
BBX 19 2 0 13
BITMAP
FFFFE0
FFFFE0
ENDCHAR
STARTCHAR uni2595
ENCODING 9621
BBX 2 19 17 -4
BITMAP
C0
C0
C0
C0
C0
C0
C0
C0
C0
C0
C0
C0
C0
C0
C0
C0
C0
C0
C0
ENDCHAR
STARTCHAR filledbox
ENCODING 9632
BBX 14 14 2 -1
BITMAP
FFFC
FFFC
FFFC
FFFC
FFFC
FFFC
FFFC
FFFC
FFFC
FFFC
FFFC
FFFC
FFFC
FFFC
ENDCHAR
STARTCHAR H22073
ENCODING 9633
BBX 15 15 2 -2
BITMAP
FFFE
8002
8002
8002
8002
8002
8002
8002
8002
8002
8002
8002
8002
8002
FFFE
ENDCHAR
STARTCHAR H18543
ENCODING 9642
SWIDTH 355 0
DWIDTH 7 0
BBX 5 5 1 4
BITMAP
F8
F8
F8
F8
F8
ENDCHAR
STARTCHAR H18551
ENCODING 9643
SWIDTH 355 0
DWIDTH 7 0
BBX 5 5 1 4
BITMAP
F8
88
88
88
F8
ENDCHAR
STARTCHAR filledrect
ENCODING 9644
BBX 19 4 0 3
BITMAP
FFFFE0
FFFFE0
FFFFE0
FFFFE0
ENDCHAR
STARTCHAR triagup
ENCODING 9650
BBX 15 14 2 -1
BITMAP
0100
0100
0380
0380
07C0
07E0
0FE0
1FF0
1FF0
3FF8
3FF8
7FFC
7FFE
FFFE
ENDCHAR
STARTCHAR uni25B3
ENCODING 9651
BBX 15 14 2 -1
BITMAP
0100
0100
0280
0480
0440
0820
0820
1010
1010
2008
2008
4004
8002
FFFE
ENDCHAR
STARTCHAR triagrt
ENCODING 9658
SWIDTH 990 0
BBX 13 13 3 0
BITMAP
8000
E000
F800
FE00
FF80
FFE0
FFF8
FFE0
FF80
FE00
F800
E000
8000
ENDCHAR
STARTCHAR triagdn
ENCODING 9660
BBX 13 14 3 -1
BITMAP
FFF8
FFF8
7FF0
7FF0
3FE0
3FE0
1FC0
1FC0
0F80
0F80
0700
0700
0200
0200
ENDCHAR
STARTCHAR uni25BD
ENCODING 9661
BBX 13 14 3 -1
BITMAP
FFF8
8008
8008
4010
4010
2020
2020
1040
1040
0880
0880
0500
0500
0200
ENDCHAR
STARTCHAR triaglf
ENCODING 9668
SWIDTH 990 0
BBX 13 13 3 0
BITMAP
0008
0038
00F8
03F8
0FF8
3FF8
FFF8
3FF8
0FF8
03F8
00F8
0038
0008
ENDCHAR
STARTCHAR uni25C6
ENCODING 9670
BBX 15 16 2 -2
BITMAP
0100
0380
07C0
0FE0
1FF0
3FF8
7FFC
FFFE
FFFE
7FFC
3FF8
1FF0
0FE0
07C0
0380
0100
ENDCHAR
STARTCHAR uni25C7
ENCODING 9671
BBX 17 17 1 -3
BITMAP
008000
014000
022000
041000
080800
100400
200200
400100
800080
400100
200200
100400
080800
041000
022000
014000
008000
ENDCHAR
STARTCHAR lozenge
ENCODING 9674
SWIDTH 494 0
DWIDTH 9 0
BBX 9 13 0 0
BITMAP
0800
1400
1200
2200
4100
4100
8080
4100
2100
2200
1200
1400
0800
ENDCHAR
STARTCHAR circle
ENCODING 9675
BBX 14 14 2 -1
BITMAP
07C0
1830
2008
4004
4004
8004
8004
8004
8004
4004
4004
2008
1830
07C0
ENDCHAR
STARTCHAR uni25CE
ENCODING 9678
BBX 15 14 2 -1
BITMAP
07C0
1830
27C8
4824
5014
900A
A00A
A00A
900A
5014
4824
27C8
1830
07C0
ENDCHAR
STARTCHAR H18533
ENCODING 9679
BBX 14 14 2 -1
BITMAP
0380
0FE0
3FF8
3FF8
7FFC
7FFC
FFFC
FFFC
FFFC
7FFC
7FFC
3FF8
1FF0
0FE0
ENDCHAR
STARTCHAR invbullet
ENCODING 9688
SWIDTH 604 0
DWIDTH 11 0
BBX 9 9 1 0
BITMAP
FF80
FF80
FF80
E380
E180
E380
FF80
FF80
FF80
ENDCHAR
STARTCHAR invcircle
ENCODING 9689
SWIDTH 604 0
DWIDTH 11 0
BBX 11 11 0 0
BITMAP
FFE0
FFE0
EEE0
DF60
DFA0
FFA0
FFA0
DFE0
EF60
F1E0
FFE0
ENDCHAR
STARTCHAR uni25E2
ENCODING 9698
BBX 14 14 3 -1
BITMAP
0004
000C
001C
003C
007C
00FC
01FC
03FC
07FC
0FFC
1FFC
3FFC
7FFC
FFFC
ENDCHAR
STARTCHAR uni25E3
ENCODING 9699
BBX 14 14 2 -1
BITMAP
8000
C000
E000
F000
F800
FC00
FE00
FF00
FF80
FFC0
FFE0
FFF0
FFF8
FFFC
ENDCHAR
STARTCHAR uni25E4
ENCODING 9700
BBX 14 14 2 -1
BITMAP
FFFC
FFF8
FFF0
FFE0
FFC0
FF80
FF00
FE00
FC00
F800
F000
E000
C000
8000
ENDCHAR
STARTCHAR uni25E5
ENCODING 9701
BBX 14 14 3 -1
BITMAP
FFFC
7FFC
3FFC
1FFC
0FFC
07FC
03FC
01FC
00FC
007C
003C
001C
000C
0004
ENDCHAR
STARTCHAR openbullet
ENCODING 9702
SWIDTH 355 0
DWIDTH 7 0
BBX 5 5 1 4
BITMAP
70
88
88
88
F0
ENDCHAR
STARTCHAR uni2605
ENCODING 9733
BBX 15 15 2 -1
BITMAP
0100
0100
0100
0380
0380
0380
FFFE
7FFC
1FF0
0FE0
0FE0
0FE0
1EF0
1870
1010
ENDCHAR
STARTCHAR uni2606
ENCODING 9734
BBX 15 16 2 -2
BITMAP
0100
0100
0300
0280
0280
0480
FC7E
4004
2008
1030
0820
1020
1390
1450
1830
2000
ENDCHAR
STARTCHAR uni2609
ENCODING 9737
BBX 7 8 6 2
BITMAP
38
C6
82
82
92
82
C6
38
ENDCHAR
STARTCHAR smileface
ENCODING 9786
BBX 11 12 4 -1
BITMAP
0E00
3180
4040
8020
9120
9120
8020
8020
9120
4E40
60C0
1F00
ENDCHAR
STARTCHAR invsmileface
ENCODING 9787
BBX 11 12 4 -1
BITMAP
0E00
3F80
7FC0
FFE0
EEE0
EEE0
FFE0
FFE0
EEE0
71C0
7FC0
1F00
ENDCHAR
STARTCHAR sun
ENCODING 9788
SWIDTH 917 0
DWIDTH 17 0
BBX 17 17 0 -2
BITMAP
008000
008000
208200
13E400
0C1800
080800
100400
100400
F00780
100400
080400
080800
0C1800
13E400
208200
008000
008000
ENDCHAR
STARTCHAR female
ENCODING 9792
BBX 7 13 6 -1
BITMAP
38
44
82
82
82
44
38
10
10
FE
10
10
10
ENDCHAR
STARTCHAR male
ENCODING 9794
BBX 7 12 6 0
BITMAP
10
38
54
92
10
10
3C
46
82
82
46
3C
ENDCHAR
STARTCHAR spade
ENCODING 9824
SWIDTH 656 0
DWIDTH 12 0
BBX 9 11 2 0
BITMAP
0800
1C00
3E00
7F00
FF00
FF80
F780
6B00
0800
1C00
7F00
ENDCHAR
STARTCHAR club
ENCODING 9827
SWIDTH 656 0
DWIDTH 12 0
BBX 11 11 1 0
BITMAP
1E00
1F00
1F00
7EC0
FFE0
FFE0
FFE0
F7C0
0400
0C00
3F80
ENDCHAR
STARTCHAR heart
ENCODING 9829
SWIDTH 656 0
DWIDTH 12 0
BBX 10 10 1 1
BITMAP
7BC0
FFC0
FFC0
7FC0
7F80
3F80
1F00
1E00
0C00
0400
ENDCHAR
STARTCHAR diamond
ENCODING 9830
SWIDTH 656 0
DWIDTH 12 0
BBX 8 11 2 0
BITMAP
08
18
3C
3E
7F
FF
7F
3E
3C
18
08
ENDCHAR
STARTCHAR musicalnote
ENCODING 9834
SWIDTH 500 0
DWIDTH 10 0
BBX 9 13 0 0
BITMAP
0F00
0F80
0880
0880
0800
0800
0800
0800
0800
7800
F800
F800
7000
ENDCHAR
STARTCHAR musicalnotedbl
ENCODING 9835
SWIDTH 750 0
DWIDTH 14 0
BBX 11 15 1 -1
BITMAP
0060
03E0
0FE0
0E20
0820
0820
0820
0820
0820
09E0
0BE0
FBE0
F9E0
F800
F000
ENDCHAR
STARTCHAR uni3000
ENCODING 12288
BBX 1 1 0 0
BITMAP
00
ENDCHAR
STARTCHAR uni3001
ENCODING 12289
BBX 4 4 2 0
BITMAP
80
60
30
10
ENDCHAR
STARTCHAR uni3002
ENCODING 12290
BBX 4 4 3 -1
BITMAP
E0
90
90
E0
ENDCHAR
STARTCHAR uni3003
ENCODING 12291
BBX 7 6 6 3
BITMAP
42
44
44
84
88
88
ENDCHAR
STARTCHAR uni3005
ENCODING 12293
BBX 12 13 3 -1
BITMAP
0200
0200
0400
0820
0FF0
1020
2040
2080
4080
8500
0200
0100
0100
ENDCHAR
STARTCHAR uni3006
ENCODING 12294
BBX 9 11 4 1
BITMAP
0080
0080
0100
0100
3200
4A00
4400
8A00
9200
A000
C000
ENDCHAR
STARTCHAR uni3007
ENCODING 12295
BBX 15 17 2 -3
BITMAP
0FE0
1010
2008
4004
4002
8002
8002
8002
8002
8002
8002
8002
4004
4004
2008
1830
07C0
ENDCHAR
STARTCHAR uni3008
ENCODING 12296
BBX 5 11 12 0
BITMAP
10
20
20
40
80
80
80
40
20
10
08
ENDCHAR
STARTCHAR uni3009
ENCODING 12297
BBX 5 11 2 0
BITMAP
40
20
20
10
08
08
08
10
20
40
80
ENDCHAR
STARTCHAR uni300A
ENCODING 12298
BBX 9 12 9 0
BITMAP
0880
1100
1200
2200
4400
8800
8800
4800
2400
2200
1100
0880
ENDCHAR
STARTCHAR uni300B
ENCODING 12299
BBX 9 12 1 0
BITMAP
8800
4400
2400
2200
1100
0880
0880
0900
1200
2200
4400
8800
ENDCHAR
STARTCHAR uni300C
ENCODING 12300
BBX 4 13 12 1
BITMAP
F0
80
80
80
80
80
80
80
80
80
80
80
80
ENDCHAR
STARTCHAR uni300D
ENCODING 12301
BBX 4 13 3 -2
BITMAP
10
10
10
10
10
10
10
10
10
10
10
10
F0
ENDCHAR
STARTCHAR uni300E
ENCODING 12302
BBX 7 13 11 1
BITMAP
FE
82
BE
A0
A0
A0
A0
A0
A0
A0
A0
A0
E0
ENDCHAR
STARTCHAR uni300F
ENCODING 12303
BBX 7 12 1 -2
BITMAP
0E
0A
0A
0A
0A
0A
0A
0A
0A
FA
82
FE
ENDCHAR
STARTCHAR uni3010
ENCODING 12304
BBX 6 16 11 -2
BITMAP
FC
FC
F8
F8
F0
F0
F0
F0
F0
F0
F0
F0
F8
F8
F8
FC
ENDCHAR
STARTCHAR uni3011
ENCODING 12305
BBX 6 16 2 -2
BITMAP
FC
FC
7C
7C
3C
3C
3C
3C
3C
3C
3C
3C
3C
7C
7C
FC
ENDCHAR
STARTCHAR uni3012
ENCODING 12306
BBX 15 13 2 -1
BITMAP
FFFE
0000
0000
0000
FFFE
0100
0100
0100
0100
0100
0100
0100
0100
ENDCHAR
STARTCHAR uni3013
ENCODING 12307
BBX 14 14 3 -1
BITMAP
FFFC
FFFC
FFFC
FFFC
FFFC
FFFC
0000
0000
0000
FFFC
FFFC
FFFC
FFFC
FFFC
ENDCHAR
STARTCHAR uni3014
ENCODING 12308
BBX 4 16 12 -2
BITMAP
10
60
80
80
80
80
80
80
80
80
80
80
80
80
C0
30
ENDCHAR
STARTCHAR uni3015
ENCODING 12309
BBX 4 16 3 -2
BITMAP
C0
20
10
10
10
10
10
10
10
10
10
10
10
10
30
C0
ENDCHAR
STARTCHAR uni3016
ENCODING 12310
BBX 6 17 11 -3
BITMAP
FC
84
88
88
90
90
90
90
90
90
90
90
90
88
88
84
FC
ENDCHAR
STARTCHAR uni3017
ENCODING 12311
BBX 6 17 2 -3
BITMAP
FC
84
44
44
24
24
24
24
24
24
24
24
24
44
44
84
FC
ENDCHAR
STARTCHAR uni301D
ENCODING 12317
BBX 4 4 12 10
BITMAP
B0
90
90
50
ENDCHAR
STARTCHAR uni301E
ENCODING 12318
BBX 5 4 3 10
BITMAP
58
90
90
90
ENDCHAR
STARTCHAR uni3021
ENCODING 12321
BBX 1 14 9 -1
BITMAP
80
80
80
80
80
80
80
80
80
80
80
80
80
80
ENDCHAR
STARTCHAR uni3022
ENCODING 12322
BBX 6 15 7 -2
BITMAP
0C
08
88
88
88
88
88
88
88
88
88
88
88
08
08
ENDCHAR
STARTCHAR uni3023
ENCODING 12323
BBX 11 15 4 -2
BITMAP
8020
8020
8420
8420
8420
8420
8420
8420
8420
8420
8420
8420
8420
8020
0020
ENDCHAR
STARTCHAR uni3024
ENCODING 12324
BBX 8 10 5 1
BITMAP
01
01
02
24
14
0C
14
20
40
80
ENDCHAR
STARTCHAR uni3025
ENCODING 12325
BBX 7 14 6 -1
BITMAP
40
20
44
84
84
E8
38
44
84
82
82
82
84
78
ENDCHAR
STARTCHAR uni3026
ENCODING 12326
BBX 15 7 2 5
BITMAP
0100
0100
0100
0100
0100
0104
FFFE
ENDCHAR
STARTCHAR uni3027
ENCODING 12327
BBX 15 10 2 1
BITMAP
0100
0100
0100
0100
0104
FFFE
0000
0000
0004
FFFE
ENDCHAR
STARTCHAR uni3028
ENCODING 12328
BBX 15 13 2 0
BITMAP
0100
0100
0100
0104
7FFE
0000
0000
0008
7FFC
0000
0000
0004
FFFE
ENDCHAR
STARTCHAR uni3029
ENCODING 12329
BBX 13 17 3 -3
BITMAP
0400
0400
0800
0800
1FF8
1040
2840
4440
0280
0180
0100
0180
0240
0440
0800
3000
C000
ENDCHAR
STARTCHAR uni3041
ENCODING 12353
BBX 11 13 4 -1
BITMAP
0800
0800
0B80
7C00
0A00
0F00
39C0
4A20
8C20
8820
9020
E0C0
0300
ENDCHAR
STARTCHAR uni3042
ENCODING 12354
BBX 13 15 3 -2
BITMAP
0400
0200
0420
05C0
7E00
0480
0FC0
18B0
6488
4508
8608
8408
8408
9810
E0E0
ENDCHAR
STARTCHAR uni3043
ENCODING 12355
BBX 11 10 4 0
BITMAP
8000
80C0
8020
8020
8020
8820
9020
9020
6000
2000
ENDCHAR
STARTCHAR uni3044
ENCODING 12356
BBX 14 12 3 -1
BITMAP
8000
8030
8008
8008
8004
8004
8404
8804
8804
5000
7000
3000
ENDCHAR
STARTCHAR uni3045
ENCODING 12357
BBX 9 13 5 -1
BITMAP
3E00
0800
1000
0E00
3100
E080
0080
0080
0080
0100
0300
0600
3800
ENDCHAR
STARTCHAR uni3046
ENCODING 12358
BBX 11 16 4 -3
BITMAP
1F00
0300
0C00
0000
0780
1840
A020
C020
0020
0020
0020
0040
0040
0180
0700
1800
ENDCHAR
STARTCHAR uni3047
ENCODING 12359
BBX 11 12 4 0
BITMAP
0E00
0400
0000
2F80
3300
0400
0800
1E00
2200
4200
8220
01E0
ENDCHAR
STARTCHAR uni3048
ENCODING 12360
BBX 15 14 2 -1
BITMAP
0780
0100
0000
0000
11F0
1E60
0080
0100
0200
0780
08C0
1040
6044
C07E
ENDCHAR
STARTCHAR uni3049
ENCODING 12361
BBX 11 13 4 -1
BITMAP
1000
1800
12C0
1C20
F000
1000
17C0
1860
1020
3020
D060
B380
1000
ENDCHAR
STARTCHAR uni304A
ENCODING 12362
BBX 15 15 2 -2
BITMAP
0C00
0400
0408
04C6
070E
FC00
04F8
070C
0404
0C04
1404
6404
D408
0CF0
0400
ENDCHAR
STARTCHAR uni304B
ENCODING 12363
BBX 16 15 2 -2
BITMAP
0400
0600
0400
0400
0788
1C44
6842
0841
1041
104F
2040
2080
4C80
8300
0200
ENDCHAR
STARTCHAR uni304C
ENCODING 12364
BBX 17 15 1 -2
BITMAP
040180
020400
020200
020000
078C00
0C4200
744100
084100
084100
104700
104000
204000
448000
C38000
010000
ENDCHAR
STARTCHAR uni304D
ENCODING 12365
BBX 12 15 4 -2
BITMAP
0C00
0400
04C0
0380
3E00
0170
03C0
FC80
0080
1FC0
2060
4020
4000
2000
1FC0
ENDCHAR
STARTCHAR uni304E
ENCODING 12366
BBX 15 15 3 -2
BITMAP
0C04
0412
04C8
0380
3E00
0170
0380
FC80
0080
0040
3F40
40E0
4000
4000
3F80
ENDCHAR
STARTCHAR uni304F
ENCODING 12367
BBX 9 15 5 -2
BITMAP
0100
0100
0600
0C00
1000
2000
C000
8000
C000
2000
1800
0400
0200
0100
0080
ENDCHAR
STARTCHAR uni3050
ENCODING 12368
BBX 14 15 4 -2
BITMAP
0300
0180
0318
0444
1820
2000
4000
8000
C000
2000
1800
0C00
0200
0100
0080
ENDCHAR
STARTCHAR uni3051
ENCODING 12369
BBX 14 15 3 -2
BITMAP
0060
8020
4020
4020
403C
87E0
8020
8020
A020
A020
A020
4040
4040
0080
0700
ENDCHAR
STARTCHAR uni3052
ENCODING 12370
BBX 16 17 2 -3
BITMAP
0002
0009
0025
4020
4020
4020
403C
87E0
8020
8020
A020
A020
4020
4020
4040
0080
0700
ENDCHAR
STARTCHAR uni3053
ENCODING 12371
BBX 12 12 5 0
BITMAP
0780
3980
0200
0000
0000
0000
0000
8000
8000
8000
4030
3FE0
ENDCHAR
STARTCHAR uni3054
ENCODING 12372
BBX 15 14 4 -1
BITMAP
0004
0012
3FC8
0100
0200
0000
0000
0000
4000
8000
8000
8000
4030
3FE0
ENDCHAR
STARTCHAR uni3055
ENCODING 12373
BBX 11 15 4 -2
BITMAP
1800
0400
04C0
8300
7D00
0100
0080
0080
0040
3F20
40E0
8020
8000
6080
1F80
ENDCHAR
STARTCHAR uni3056
ENCODING 12374
BBX 14 17 4 -3
BITMAP
000C
0824
1C10
0400
0260
8380
7D00
0100
0080
0040
3F20
40E0
8020
8000
4000
6080
1F80
ENDCHAR
STARTCHAR uni3057
ENCODING 12375
BBX 11 15 5 -2
BITMAP
8000
8000
8000
8000
8000
8000
8000
8000
8020
8020
8040
8040
8080
4300
3E00
ENDCHAR
STARTCHAR uni3058
ENCODING 12376
BBX 11 15 6 -2
BITMAP
8080
4060
4120
4080
4080
8000
8000
8000
8000
8020
8020
8040
40C0
4180
3E00
ENDCHAR
STARTCHAR uni3059
ENCODING 12377
BBX 16 15 1 -2
BITMAP
0040
0040
0040
80FF
7F40
0040
03C0
0440
0440
04A0
07A0
0040
0040
0080
0300
ENDCHAR
STARTCHAR uni305A
ENCODING 12378
BBX 15 17 2 -3
BITMAP
0024
0192
0080
0080
01FE
FE80
0080
0780
0880
0880
0980
0F80
0080
0080
0100
0200
0C00
ENDCHAR
STARTCHAR uni305B
ENCODING 12379
BBX 15 14 2 -1
BITMAP
0060
0020
1820
0820
0820
0FFE
F820
0820
0820
0820
08C0
0800
0808
07F8
ENDCHAR
STARTCHAR uni305C
ENCODING 12380
BBX 17 15 2 -1
BITMAP
000300
006480
002200
182000
082000
082000
0FFE00
F82000
082000
082000
082000
08C000
080000
080800
07F800
ENDCHAR
STARTCHAR uni305D
ENCODING 12381
BBX 13 15 3 -2
BITMAP
03C0
1CC0
0300
0400
1800
2178
DEC0
E300
0400
0800
1000
1000
1000
0800
07E0
ENDCHAR
STARTCHAR uni305E
ENCODING 12382
BBX 14 15 3 -2
BITMAP
00CC
1FC0
0118
0608
0800
3000
5FF8
E3C0
0600
0800
1000
1000
1000
0800
07E0
ENDCHAR
STARTCHAR uni305F
ENCODING 12383
BBX 15 15 2 -2
BITMAP
0400
0400
0400
8B00
7C3C
080C
0810
1020
1000
1000
2000
2100
4100
4180
407E
ENDCHAR
STARTCHAR uni3060
ENCODING 12384
BBX 15 15 2 -2
BITMAP
0006
081A
0808
0900
0F7C
F808
1010
1020
1000
2000
2000
2100
4100
4180
407C
ENDCHAR
STARTCHAR uni3061
ENCODING 12385
BBX 13 15 3 -2
BITMAP
0400
0400
0440
89C0
7E00
0800
1000
13E0
3C18
3008
0008
0008
0018
0030
0FC0
ENDCHAR
STARTCHAR uni3062
ENCODING 12386
BBX 14 15 3 -2
BITMAP
0800
0800
08C4
0F90
F808
1000
1000
23E0
3C10
3008
2008
0008
0010
0060
0F80
ENDCHAR
STARTCHAR uni3063
ENCODING 12387
BBX 13 8 3 1
BITMAP
03E0
1C30
E010
0018
0010
0010
0020
07C0
ENDCHAR
STARTCHAR uni3064
ENCODING 12388
BBX 15 10 2 0
BITMAP
00F8
0F0C
3002
C002
0002
0002
0002
0004
0018
01E0
ENDCHAR
STARTCHAR uni3065
ENCODING 12389
BBX 16 15 2 -2
BITMAP
0003
0001
000C
0004
01F0
0E08
3004
C006
0006
0006
0004
000C
0018
00E0
0300
ENDCHAR
STARTCHAR uni3066
ENCODING 12390
BBX 15 13 2 -1
BITMAP
001E
8FE0
70C0
0100
0200
0400
0400
0800
0800
0800
0400
0200
01F0
ENDCHAR
STARTCHAR uni3067
ENCODING 12391
BBX 16 15 2 -1
BITMAP
0003
000D
0006
07FC
F8C0
0100
0200
0400
0800
0800
0800
0800
0800
0400
03E0
ENDCHAR
STARTCHAR uni3068
ENCODING 12392
BBX 13 16 4 -2
BITMAP
0800
0400
0400
0400
0400
0400
0430
07C0
1C00
2000
4000
8000
8000
8000
6038
1FF0
ENDCHAR
STARTCHAR uni3069
ENCODING 12393
BBX 13 16 4 -2
BITMAP
0810
0C08
0460
0420
0800
0800
04F0
0700
1800
6000
8000
8000
8000
8000
4030
3FF0
ENDCHAR
STARTCHAR uni306A
ENCODING 12394
BBX 13 14 3 -2
BITMAP
0800
1600
7870
2038
2040
2080
4080
4080
8080
8040
0FC0
1070
1048
0F80
ENDCHAR
STARTCHAR uni306B
ENCODING 12395
BBX 14 13 3 -1
BITMAP
4000
4418
43F0
4040
4080
8000
8000
A000
A400
A400
C400
C200
41FC
ENDCHAR
STARTCHAR uni306C
ENCODING 12396
BBX 15 14 2 -1
BITMAP
0080
00C0
2080
20F0
2788
1904
1104
3202
5202
4C02
8C04
8C7C
908C
6072
ENDCHAR
STARTCHAR uni306D
ENCODING 12397
BBX 16 14 2 -1
BITMAP
0800
0800
0800
08F8
0D04
7A04
0C02
1802
1802
3802
2872
488C
988E
0879
ENDCHAR
STARTCHAR uni306E
ENCODING 12398
BBX 15 13 2 -1
BITMAP
07E0
0918
110C
2104
4102
4102
8102
8202
8202
8406
4404
5818
21E0
ENDCHAR
STARTCHAR uni306F
ENCODING 12399
BBX 15 14 3 -1
BITMAP
0060
8020
4024
4038
87E0
8020
8020
8020
8020
A020
A3E0
C438
C424
83C2
ENDCHAR
STARTCHAR uni3070
ENCODING 12400
BBX 15 16 3 -2
BITMAP
0006
000A
0044
4020
4040
4078
87C0
8040
8040
8040
A020
A3E0
C430
C448
83C4
4000
ENDCHAR
STARTCHAR uni3071
ENCODING 12401
BBX 16 16 3 -2
BITMAP
0006
0009
0069
8026
4024
8038
87E0
8020
8020
8020
A020
A3E0
C438
C82C
8444
83C0
ENDCHAR
STARTCHAR uni3072
ENCODING 12402
BBX 14 15 3 -2
BITMAP
0040
0C40
F860
1060
2030
4030
4028
802C
8024
8020
8040
8040
4080
6300
1C00
ENDCHAR
STARTCHAR uni3073
ENCODING 12403
BBX 15 16 3 -2
BITMAP
0004
0012
004A
1C4C
E840
3060
2060
4050
8028
802C
8020
8040
8040
C080
6300
1C00
ENDCHAR
STARTCHAR uni3074
ENCODING 12404
BBX 15 14 3 -1
BITMAP
004E
0C52
F84E
2060
2060
4030
8028
802C
8024
8020
8040
80C0
4180
3F00
ENDCHAR
STARTCHAR uni3075
ENCODING 12405
BBX 15 14 2 -1
BITMAP
0200
0180
00C0
0100
0200
0400
0400
0200
0118
1884
2042
C046
98C0
0780
ENDCHAR
STARTCHAR uni3076
ENCODING 12406
BBX 15 14 2 -1
BITMAP
0200
0380
00C6
0302
0418
0404
0400
0200
0110
108C
20C2
C04E
98C0
0780
ENDCHAR
STARTCHAR uni3077
ENCODING 12407
BBX 15 14 2 -1
BITMAP
0200
0186
00CA
010A
0204
0400
0400
0200
0118
1884
2042
C046
98C0
0780
ENDCHAR
STARTCHAR uni3078
ENCODING 12408
BBX 17 8 1 1
BITMAP
038000
044000
086000
103000
B01800
600400
000300
000180
ENDCHAR
STARTCHAR uni3079
ENCODING 12409
BBX 16 11 2 1
BITMAP
000C
0002
0218
0504
0880
1040
2020
6010
C008
0006
0003
ENDCHAR
STARTCHAR uni307A
ENCODING 12410
BBX 16 10 2 1
BITMAP
000E
0212
050E
0880
1040
2020
E010
400C
0006
0001
ENDCHAR
STARTCHAR uni307B
ENCODING 12411
BBX 15 15 3 -2
BITMAP
0018
43E0
6020
4020
4024
483C
87E0
8020
8020
9020
A1F0
A218
4424
4422
03C0
ENDCHAR
STARTCHAR uni307C
ENCODING 12412
BBX 17 14 2 -1
BITMAP
001980
43E080
402200
402100
402500
483C00
87E000
802000
902000
A02000
A1F000
A21800
442400
43C200
ENDCHAR
STARTCHAR uni307D
ENCODING 12413
BBX 17 14 2 -1
BITMAP
003B00
43C480
402480
402700
883800
87E000
802000
802000
A02000
A02000
A3E000
C43800
C42400
43C000
ENDCHAR
STARTCHAR uni307E
ENCODING 12414
BBX 12 15 3 -2
BITMAP
0300
0210
01F0
FE00
0200
0200
42F0
7F00
0200
0100
1F00
61C0
4130
6310
1E00
ENDCHAR
STARTCHAR uni307F
ENCODING 12415
BBX 16 14 2 -2
BITMAP
0380
1D00
0100
0208
0208
0408
0FE8
3418
4816
8811
9010
6020
0040
0080
ENDCHAR
STARTCHAR uni3080
ENCODING 12416
BBX 16 15 2 -2
BITMAP
0C00
0400
0800
0F18
7826
0823
0827
3020
4810
9010
9008
7008
1008
1038
0FE0
ENDCHAR
STARTCHAR uni3081
ENCODING 12417
BBX 15 15 2 -2
BITMAP
0040
0040
6040
3080
11F0
1E8C
1106
2902
4A02
4602
8402
8A06
FA04
7018
01E0
ENDCHAR
STARTCHAR uni3082
ENCODING 12418
BBX 12 16 4 -2
BITMAP
0800
0400
0800
0800
8A00
7E00
1400
1080
1040
1020
DF10
2010
2010
1010
1830
07C0
ENDCHAR
STARTCHAR uni3083
ENCODING 12419
BBX 12 12 3 0
BITMAP
0200
47E0
2210
1C10
1010
E810
44E0
0400
0200
0200
0100
0100
ENDCHAR
STARTCHAR uni3084
ENCODING 12420
BBX 15 15 2 -2
BITMAP
0300
0F80
0038
20C4
2302
1402
0802
3404
C678
0200
0100
0100
0080
0080
0080
ENDCHAR
STARTCHAR uni3085
ENCODING 12421
BBX 11 12 4 0
BITMAP
0600
0900
8780
8940
9120
B120
D120
C920
C940
8780
0200
0400
ENDCHAR
STARTCHAR uni3086
ENCODING 12422
BBX 14 15 3 -2
BITMAP
0380
0480
81F0
8658
8848
9044
A844
A844
C44C
C448
C250
C1E0
0080
0100
0600
ENDCHAR
STARTCHAR uni3087
ENCODING 12423
BBX 10 12 5 -1
BITMAP
0800
0800
0800
08C0
0F00
0800
0800
0800
7C00
8B80
8840
7800
ENDCHAR
STARTCHAR uni3088
ENCODING 12424
BBX 13 15 4 -2
BITMAP
0400
0400
0400
0400
0430
07C0
0400
0400
0400
0400
7E00
85C0
8430
8408
7C00
ENDCHAR
STARTCHAR uni3089
ENCODING 12425
BBX 12 15 4 -2
BITMAP
1C00
0700
0800
0000
4000
2000
43C0
4C20
9010
A010
4010
0010
0020
00C0
1F00
ENDCHAR
STARTCHAR uni308A
ENCODING 12426
BBX 10 15 5 -2
BITMAP
8200
4580
4880
5080
9040
A040
A040
A0C0
A080
C080
4080
0080
0100
0600
0800
ENDCHAR
STARTCHAR uni308B
ENCODING 12427
BBX 13 15 3 -2
BITMAP
01C0
1EC0
0100
0200
0200
0400
0BC0
1C30
3018
6008
C008
8F08
0890
08E0
07C0
ENDCHAR
STARTCHAR uni308C
ENCODING 12428
BBX 16 15 2 -2
BITMAP
0800
0800
0800
0870
0C90
7B08
0C10
1810
2810
3810
4810
C811
8812
181C
1000
ENDCHAR
STARTCHAR uni308D
ENCODING 12429
BBX 13 15 3 -2
BITMAP
03C0
1C80
0100
0200
0400
0800
13E0
2C10
3008
6008
C008
0008
0010
00E0
0F80
ENDCHAR
STARTCHAR uni308E
ENCODING 12430
BBX 13 12 3 0
BITMAP
1000
1000
1000
1BE0
7410
1810
3008
3008
5008
F010
9020
11C0
ENDCHAR
STARTCHAR uni308F
ENCODING 12431
BBX 16 15 2 -2
BITMAP
0800
0800
0800
0800
1CF8
6B84
0E02
1C01
1801
3801
2801
4802
9802
080C
0870
ENDCHAR
STARTCHAR uni3090
ENCODING 12432
BBX 13 15 3 -2
BITMAP
07C0
3880
0100
0200
0200
0400
07E0
0830
3808
4808
9008
9388
6450
0460
03C0
ENDCHAR
STARTCHAR uni3091
ENCODING 12433
BBX 15 14 3 -1
BITMAP
01C0
1E80
0100
0200
07C0
0C60
0820
1620
0A60
0780
0838
3CC4
C784
833E
ENDCHAR
STARTCHAR uni3092
ENCODING 12434
BBX 13 16 3 -2
BITMAP
0400
0200
0420
85C0
7E00
0800
1000
2E08
7170
4180
8300
0D00
1100
1000
1010
0FF0
ENDCHAR
STARTCHAR uni3093
ENCODING 12435
BBX 16 16 2 -2
BITMAP
0200
0100
0100
0200
0200
0400
0400
0900
0EC0
1840
1040
2041
2042
4044
C058
0020
ENDCHAR
STARTCHAR uni309B
ENCODING 12443
BBX 5 4 7 8
BITMAP
10
88
40
20
ENDCHAR
STARTCHAR uni309C
ENCODING 12444
BBX 4 4 12 8
BITMAP
60
90
90
60
ENDCHAR
STARTCHAR uni309D
ENCODING 12445
BBX 5 6 7 2
BITMAP
80
60
10
10
08
38
ENDCHAR
STARTCHAR uni309E
ENCODING 12446
BBX 7 10 7 1
BITMAP
08
04
02
10
88
40
20
10
10
38
ENDCHAR
STARTCHAR uni30A1
ENCODING 12449
BBX 11 11 4 1
BITMAP
03E0
FC60
0480
0700
0400
0400
0400
0800
0800
1000
2000
ENDCHAR
STARTCHAR uni30A2
ENCODING 12450
BBX 14 14 3 -1
BITMAP
01F8
FE1C
0030
0260
0380
0200
0200
0600
0400
0400
0C00
0800
1000
2000
ENDCHAR
STARTCHAR uni30A3
ENCODING 12451
BBX 9 14 4 -1
BITMAP
0100
0180
0100
0200
0600
0400
0A00
1200
2200
C200
0200
0200
0600
0200
ENDCHAR
STARTCHAR uni30A4
ENCODING 12452
BBX 10 17 3 -3
BITMAP
0040
0040
0080
0180
0100
0200
0700
0D00
1100
2100
4100
8100
0100
0100
0300
0300
0100
ENDCHAR
STARTCHAR uni30A5
ENCODING 12453
BBX 10 12 5 0
BITMAP
0800
0800
09C0
F680
8080
8080
8100
0100
0200
0600
0800
1000
ENDCHAR
STARTCHAR uni30A6
ENCODING 12454
BBX 12 15 4 -2
BITMAP
0400
0400
0400
07F0
F830
8020
C020
C020
4040
0040
0080
0180
0300
0400
1800
ENDCHAR
STARTCHAR uni30A7
ENCODING 12455
BBX 13 8 3 2
BITMAP
0040
3F80
0200
0200
0200
0200
07F8
F800
ENDCHAR
STARTCHAR uni30A8
ENCODING 12456
BBX 16 10 2 1
BITMAP
22F8
1D00
0100
0100
0100
0100
0100
0100
0FFF
F000
ENDCHAR
STARTCHAR uni30A9
ENCODING 12457
BBX 11 12 4 0
BITMAP
0200
0200
0200
07E0
FA00
0600
0A00
1200
2200
C200
0E00
0200
ENDCHAR
STARTCHAR uni30AA
ENCODING 12458
BBX 15 15 2 -2
BITMAP
00C0
00C0
0080
0080
03FE
7C80
0180
0380
0680
0C40
1840
2040
C240
01C0
0080
ENDCHAR
STARTCHAR uni30AB
ENCODING 12459
BBX 12 15 4 -2
BITMAP
0300
0300
0200
0200
8FF0
7230
0420
0420
0820
0820
1020
2040
4240
8180
0100
ENDCHAR
STARTCHAR uni30AC
ENCODING 12460
BBX 18 16 1 -2
BITMAP
000200
018980
0186C0
010200
010000
47F800
390800
020800
021000
041000
041000
081000
102000
312000
40C000
808000
ENDCHAR
STARTCHAR uni30AD
ENCODING 12461
BBX 14 16 3 -2
BITMAP
0C00
0400
0400
0220
07C0
7A00
0200
0200
02FC
1F00
E100
0100
0100
0100
0100
0180
ENDCHAR
STARTCHAR uni30AE
ENCODING 12462
BBX 16 17 2 -3
BITMAP
0C06
0619
0204
0234
07C0
7A00
0200
0200
01FC
1F00
E100
0100
0100
0100
0180
0180
0080
ENDCHAR
STARTCHAR uni30AF
ENCODING 12463
BBX 12 15 3 -2
BITMAP
0600
0400
0FF0
0830
1020
2060
4040
80C0
0180
0100
0200
0400
1800
6000
8000
ENDCHAR
STARTCHAR uni30B0
ENCODING 12464
BBX 17 16 2 -2
BITMAP
000200
000900
020480
061000
07F800
083000
102000
204000
404000
008000
010000
020000
040000
080000
300000
C00000
ENDCHAR
STARTCHAR uni30B1
ENCODING 12465
BBX 15 15 2 -2
BITMAP
0200
0600
0400
08BE
1740
2040
4040
80C0
0080
0080
0100
0100
0200
0400
1800
ENDCHAR
STARTCHAR uni30B2
ENCODING 12466
BBX 16 17 2 -3
BITMAP
0006
0C09
0C04
0802
101C
3FE4
2080
4080
8180
0100
0100
0200
0200
0400
0800
3000
4000
ENDCHAR
STARTCHAR uni30B3
ENCODING 12467
BBX 12 10 3 1
BITMAP
01F0
7E10
0010
0030
0020
0020
0020
0020
83E0
7C00
ENDCHAR
STARTCHAR uni30B4
ENCODING 12468
BBX 16 14 3 0
BITMAP
0004
0013
000C
03E4
FC30
0020
0020
0020
0040
0040
0040
0040
07C0
F800
ENDCHAR
STARTCHAR uni30B5
ENCODING 12469
BBX 17 16 1 -2
BITMAP
002000
001000
061000
041000
041000
87FF80
7C1000
041000
041000
042000
042000
002000
002000
004000
008000
010000
ENDCHAR
STARTCHAR uni30B6
ENCODING 12470
BBX 17 16 1 -2
BITMAP
002200
001180
061480
041200
041000
87FF80
7C1000
041000
041000
043000
042000
002000
002000
004000
008000
010000
ENDCHAR
STARTCHAR uni30B7
ENCODING 12471
BBX 13 14 4 -1
BITMAP
3800
0C00
0400
0000
8000
7008
1810
0020
0040
0080
0100
0600
0C00
3000
ENDCHAR
STARTCHAR uni30B8
ENCODING 12472
BBX 14 15 3 -2
BITMAP
0018
3824
0C10
0400
0000
C008
3010
1830
0020
00C0
0180
0300
0600
5800
7000
ENDCHAR
STARTCHAR uni30B9
ENCODING 12473
BBX 14 12 3 0
BITMAP
00E0
0760
1840
00C0
0080
0100
0180
0240
0420
0818
3008
C004
ENDCHAR
STARTCHAR uni30BA
ENCODING 12474
BBX 16 15 2 -2
BITMAP
0006
0011
006C
03A4
1C60
0040
0080
0080
0100
02C0
0620
0C10
1008
6004
8000
ENDCHAR
STARTCHAR uni30BB
ENCODING 12475
BBX 15 14 2 -1
BITMAP
0400
0200
0200
0200
021E
03E4
1E08
E210
0220
0200
0200
0200
0200
01FE
ENDCHAR
STARTCHAR uni30BC
ENCODING 12476
BBX 17 15 1 -2
BITMAP
000300
040980
030600
030200
030000
020E00
02F400
9F0800
620800
021000
020000
020000
010000
010400
00FE00
ENDCHAR
STARTCHAR uni30BD
ENCODING 12477
BBX 12 13 4 -1
BITMAP
0020
8010
4030
2020
2020
0040
0040
0080
0180
0300
0600
0C00
3000
ENDCHAR
STARTCHAR uni30BE
ENCODING 12478
BBX 17 15 1 -2
BITMAP
000300
000980
001600
C00A00
200800
101000
101000
002000
002000
004000
00C000
008000
010000
060000
180000
ENDCHAR
STARTCHAR uni30BF
ENCODING 12479
BBX 12 15 3 -2
BITMAP
0200
0210
07F0
0C30
0820
1840
2640
4180
0180
0100
0200
0400
1800
6000
8000
ENDCHAR
STARTCHAR uni30C0
ENCODING 12480
BBX 16 16 2 -2
BITMAP
0008
0006
0219
0214
07F8
0C30
0820
1C40
6240
0180
0100
0300
0600
0C00
3000
C000
ENDCHAR
STARTCHAR uni30C1
ENCODING 12481
BBX 15 15 2 -2
BITMAP
0060
0380
3D00
0180
0100
0100
0FFE
F100
0100
0100
0200
0200
0400
0800
1000
ENDCHAR
STARTCHAR uni30C2
ENCODING 12482
BBX 16 15 2 -2
BITMAP
00EC
0702
3A19
0104
0100
0100
1FFE
E200
0200
0200
0200
0400
0400
0800
3000
ENDCHAR
STARTCHAR uni30C3
ENCODING 12483
BBX 11 11 4 0
BITMAP
8C60
4460
2440
2040
0080
0180
0100
0200
0C00
1000
2000
ENDCHAR
STARTCHAR uni30C4
ENCODING 12484
BBX 13 13 3 -1
BITMAP
0410
8208
6218
2010
2010
0020
0060
0040
0080
0100
0200
0400
1800
ENDCHAR
STARTCHAR uni30C5
ENCODING 12485
BBX 16 16 2 -2
BITMAP
0004
0002
0019
0824
8430
4620
4020
0040
0040
0080
0180
0300
0600
0C00
1000
6000
ENDCHAR
STARTCHAR uni30C6
ENCODING 12486
BBX 13 15 3 -2
BITMAP
0040
1FC0
0000
0000
0FF8
F200
0200
0200
0200
0200
0400
0400
0800
1000
6000
ENDCHAR
STARTCHAR uni30C7
ENCODING 12487
BBX 16 15 2 -2
BITMAP
0004
1FF3
0009
0004
0FFC
F300
0100
0200
0200
0200
0400
0400
0800
1000
2000
ENDCHAR
STARTCHAR uni30C8
ENCODING 12488
BBX 7 15 8 -2
BITMAP
C0
80
80
80
80
E0
98
86
82
80
80
80
80
80
80
ENDCHAR
STARTCHAR uni30C9
ENCODING 12489
BBX 9 16 7 -2
BITMAP
8000
4300
4480
4200
4000
4000
6000
5800
4600
4200
4000
4000
4000
4000
C000
4000
ENDCHAR
STARTCHAR uni30CA
ENCODING 12490
BBX 15 16 2 -2
BITMAP
0300
0100
0100
0100
0100
0FFE
F100
0100
0100
0100
0100
0300
0200
0600
0400
1800
ENDCHAR
STARTCHAR uni30CB
ENCODING 12491
BBX 15 10 2 1
BITMAP
0010
1FF0
0000
0000
0000
0000
0000
0000
03FC
FC06
ENDCHAR
STARTCHAR uni30CC
ENCODING 12492
BBX 12 13 3 -1
BITMAP
21F0
1E20
0020
0040
1040
0C80
0380
0180
0240
0420
1830
2010
C000
ENDCHAR
STARTCHAR uni30CD
ENCODING 12493
BBX 14 18 3 -3
BITMAP
0400
0200
0180
0080
0040
03C0
1C80
0100
0300
0340
0530
0908
3104
4104
8100
0100
0100
0100
ENDCHAR
STARTCHAR uni30CE
ENCODING 12494
BBX 10 14 4 -1
BITMAP
0080
0040
0040
00C0
0080
0080
0100
0300
0200
0400
0800
1000
2000
C000
ENDCHAR
STARTCHAR uni30CF
ENCODING 12495
BBX 16 9 2 1
BITMAP
0410
0608
0404
0804
0802
1003
2001
4001
8000
ENDCHAR
STARTCHAR uni30D0
ENCODING 12496
BBX 16 12 2 1
BITMAP
0006
0019
0004
0414
0608
0408
0804
0802
1002
2001
4001
8000
ENDCHAR
STARTCHAR uni30D1
ENCODING 12497
BBX 17 13 1 0
BITMAP
000380
000280
000380
021000
020800
040400
040200
080100
080100
100080
200080
400000
800000
ENDCHAR
STARTCHAR uni30D2
ENCODING 12498
BBX 10 13 5 -1
BITMAP
8000
8000
80C0
8180
8200
9C00
E000
8000
8000
8000
8000
8040
7FC0
ENDCHAR
STARTCHAR uni30D3
ENCODING 12499
BBX 14 14 3 -1
BITMAP
0018
C04C
4030
4070
40C0
4300
4C00
7000
4000
4000
4000
4000
4060
3FE0
ENDCHAR
STARTCHAR uni30D4
ENCODING 12500
BBX 14 15 5 -1
BITMAP
0018
0024
8024
C018
8060
80C0
8300
8C00
F000
8000
8000
8000
8000
4020
3FE0
ENDCHAR
STARTCHAR uni30D5
ENCODING 12501
BBX 12 13 3 -2
BITMAP
07F0
F810
0020
0020
0040
0040
0080
0100
0300
0600
0800
3000
4000
ENDCHAR
STARTCHAR uni30D6
ENCODING 12502
BBX 16 16 2 -2
BITMAP
0004
0013
0009
07F4
F810
0030
0020
0060
0040
0080
0180
0100
0200
0400
1800
2000
ENDCHAR
STARTCHAR uni30D7
ENCODING 12503
BBX 16 17 2 -3
BITMAP
0007
0005
0005
0007
07F0
F810
0010
0020
0020
0040
00C0
0080
0100
0200
0C00
1000
6000
ENDCHAR
STARTCHAR uni30D8
ENCODING 12504
BBX 16 10 2 0
BITMAP
0300
0480
0840
1040
2020
6010
C00C
0006
0003
0001
ENDCHAR
STARTCHAR uni30D9
ENCODING 12505
BBX 16 12 2 1
BITMAP
000C
0012
0608
0900
1080
1040
2020
4010
C008
0004
0002
0001
ENDCHAR
STARTCHAR uni30DA
ENCODING 12506
BBX 16 12 2 1
BITMAP
000C
0012
0612
090C
1080
1040
2020
4010
C008
0004
0002
0001
ENDCHAR
STARTCHAR uni30DB
ENCODING 12507
BBX 15 15 2 -2
BITMAP
0100
0100
0100
0100
07FE
7900
0100
0120
1110
1108
2104
4102
8500
0300
0100
ENDCHAR
STARTCHAR uni30DC
ENCODING 12508
BBX 15 16 2 -2
BITMAP
0008
0004
0132
0108
0100
0100
87FC
7900
0100
1130
2108
410C
C104
8100
0700
0100
ENDCHAR
STARTCHAR uni30DD
ENCODING 12509
BBX 16 16 2 -2
BITMAP
0007
0005
0105
0107
0100
0100
87FC
7900
0100
1130
2108
410C
C104
8100
0700
0100
ENDCHAR
STARTCHAR uni30DE
ENCODING 12510
BBX 15 11 2 0
BITMAP
00FE
1F06
E008
0010
0020
0820
0640
0180
00C0
0040
0040
ENDCHAR
STARTCHAR uni30DF
ENCODING 12511
BBX 8 14 6 -1
BITMAP
70
0E
03
00
00
78
06
02
00
00
E0
1C
03
01
ENDCHAR
STARTCHAR uni30E0
ENCODING 12512
BBX 13 12 3 0
BITMAP
0200
0300
0200
0200
0400
0400
0840
0820
1010
10F8
3F08
E008
ENDCHAR
STARTCHAR uni30E1
ENCODING 12513
BBX 10 13 4 -1
BITMAP
0040
0040
00C0
2080
1980
0700
0300
0280
0440
0840
1000
6000
8000
ENDCHAR
STARTCHAR uni30E2
ENCODING 12514
BBX 17 13 1 -1
BITMAP
10FC00
0F0000
008000
008000
008100
87FF80
788000
008000
008000
008000
008000
008000
007E00
ENDCHAR
STARTCHAR uni30E3
ENCODING 12515
BBX 12 13 4 -1
BITMAP
3000
1000
0860
0BB0
3C40
C840
0480
0400
0400
0200
0200
0200
0200
ENDCHAR
STARTCHAR uni30E4
ENCODING 12516
BBX 15 16 2 -2
BITMAP
1000
0C00
0400
040E
0474
0788
1A08
E210
0120
0100
0100
0100
0080
0080
0080
00C0
ENDCHAR
STARTCHAR uni30E5
ENCODING 12517
BBX 13 9 3 1
BITMAP
01C0
1E40
0040
0080
0080
0080
0080
0FF8
F000
ENDCHAR
STARTCHAR uni30E6
ENCODING 12518
BBX 17 10 1 0
BITMAP
00F800
0F1800
001000
001000
001000
002000
002000
002000
03FF80
FC0080
ENDCHAR
STARTCHAR uni30E7
ENCODING 12519
BBX 9 9 5 1
BITMAP
FF80
0080
0100
0100
BF00
4100
0100
0100
FF00
ENDCHAR
STARTCHAR uni30E8
ENCODING 12520
BBX 11 12 4 -1
BITMAP
01C0
FE60
0040
0040
0040
BFC0
4040
0040
0040
0040
07C0
F840
ENDCHAR
STARTCHAR uni30E9
ENCODING 12521
BBX 12 15 3 -2
BITMAP
0040
3FE0
0000
0000
0000
9FF0
6030
0020
0060
0040
0080
0100
0200
0C00
3000
ENDCHAR
STARTCHAR uni30EA
ENCODING 12522
BBX 9 16 5 -3
BITMAP
0180
C080
4080
4080
4080
4080
4080
C080
8180
0100
0100
0100
0200
0400
0800
1000
ENDCHAR
STARTCHAR uni30EB
ENCODING 12523
BBX 16 14 2 -1
BITMAP
0100
1080
0880
0880
0880
0881
0882
0882
1084
1098
10B0
20E0
4080
8000
ENDCHAR
STARTCHAR uni30EC
ENCODING 12524
BBX 12 13 5 -1
BITMAP
C000
4000
4000
4000
4010
4020
4040
4080
4100
4600
5800
F000
4000
ENDCHAR
STARTCHAR uni30ED
ENCODING 12525
BBX 13 11 3 0
BITMAP
80F8
7F18
4010
4010
2010
2010
2020
2020
2020
3FF0
2000
ENDCHAR
STARTCHAR uni30EE
ENCODING 12526
BBX 9 11 5 0
BITMAP
FF80
8080
8100
8100
8100
0100
0200
0600
0C00
1000
2000
ENDCHAR
STARTCHAR uni30EF
ENCODING 12527
BBX 12 14 4 -1
BITMAP
80E0
FF30
8020
8020
8040
8040
8040
0040
0080
0080
0100
0200
0400
1800
ENDCHAR
STARTCHAR uni30F0
ENCODING 12528
BBX 14 15 3 -2
BITMAP
0100
0100
0100
03E0
1D00
0900
0900
0FFC
F100
0100
0100
0100
0100
0100
0100
ENDCHAR
STARTCHAR uni30F1
ENCODING 12529
BBX 16 10 2 1
BITMAP
01F0
1E18
0060
0380
0100
0100
0100
0100
0FFF
F000
ENDCHAR
STARTCHAR uni30F2
ENCODING 12530
BBX 12 13 4 -2
BITMAP
47F0
7820
0020
07F0
F840
0040
0080
0080
0100
0200
0400
0800
3000
ENDCHAR
STARTCHAR uni30F3
ENCODING 12531
BBX 12 12 5 0
BITMAP
C000
3000
1010
0020
0020
0040
0080
0100
0200
0C00
1000
E000
ENDCHAR
STARTCHAR uni30F4
ENCODING 12532
BBX 16 16 2 -2
BITMAP
0404
0213
020D
83F4
7C10
4010
4030
4020
4020
0040
0040
0080
0100
0200
0400
0800
ENDCHAR
STARTCHAR uni30F5
ENCODING 12533
BBX 10 12 5 0
BITMAP
0400
0400
0400
0580
7E40
0880
0880
1080
1080
2080
4500
8300
ENDCHAR
STARTCHAR uni30F6
ENCODING 12534
BBX 12 13 4 -1
BITMAP
0800
0800
1000
3DF0
2300
4200
8200
0200
0400
0400
0800
3000
4000
ENDCHAR
STARTCHAR uni30FC
ENCODING 12540
BBX 14 2 3 5
BITMAP
03FC
FC00
ENDCHAR
STARTCHAR uni30FD
ENCODING 12541
BBX 4 4 7 4
BITMAP
80
60
30
10
ENDCHAR
STARTCHAR uni30FE
ENCODING 12542
BBX 8 9 6 2
BITMAP
04
02
01
08
84
60
10
18
08
ENDCHAR
STARTCHAR uni3105
ENCODING 12549
BBX 11 13 4 -1
BITMAP
0800
0800
1000
2FE0
D020
0020
0040
0040
0040
0080
0100
0900
0600
ENDCHAR
STARTCHAR uni3106
ENCODING 12550
BBX 10 14 5 -1
BITMAP
0800
0800
1000
1000
3F80
40C0
4080
2100
1A00
0400
0A00
1180
20C0
C040
ENDCHAR
STARTCHAR uni3107
ENCODING 12551
BBX 10 12 5 -1
BITMAP
1FC0
E040
8040
8040
8040
8080
8080
8080
8080
8080
8080
0080
ENDCHAR
STARTCHAR uni3108
ENCODING 12552
BBX 12 13 4 -1
BITMAP
07C0
F800
4000
4000
4000
4000
4000
4000
4000
4000
4000
4000
7FF0
ENDCHAR
STARTCHAR uni3109
ENCODING 12553
BBX 11 14 4 -1
BITMAP
0400
0800
1000
2000
7FE0
0220
0420
0820
1040
2040
4080
8880
0700
0200
ENDCHAR
STARTCHAR uni310A
ENCODING 12554
BBX 12 13 4 -1
BITMAP
0200
0200
0200
0200
0FF0
F400
0800
0800
1080
1040
27E0
7820
0020
ENDCHAR
STARTCHAR uni310B
ENCODING 12555
BBX 10 14 5 -2
BITMAP
0700
F980
0100
0200
0400
0F80
0040
0080
0080
0080
0100
0100
1200
0C00
ENDCHAR
STARTCHAR uni310C
ENCODING 12556
BBX 11 14 4 -1
BITMAP
0080
0880
0880
1100
2100
5FE0
6220
0420
0820
0840
1040
2080
C500
0200
ENDCHAR
STARTCHAR uni310D
ENCODING 12557
BBX 9 12 5 0
BITMAP
1100
1100
2100
2200
4200
8400
8400
4200
2100
2080
1080
1080
ENDCHAR
STARTCHAR uni310E
ENCODING 12558
BBX 12 13 4 -1
BITMAP
03F0
FC00
0400
0800
1FC0
0040
0040
0040
0080
0080
0880
0500
0300
ENDCHAR
STARTCHAR uni310F
ENCODING 12559
BBX 13 13 3 -1
BITMAP
01F8
1E00
1000
1000
1000
1000
1000
1000
2000
2000
2000
4000
8000
ENDCHAR
STARTCHAR uni3110
ENCODING 12560
BBX 8 13 5 -1
BITMAP
03
41
22
22
42
42
46
FA
82
02
02
02
02
ENDCHAR
STARTCHAR uni3111
ENCODING 12561
BBX 7 13 6 -1
BITMAP
08
18
10
20
40
40
80
40
20
18
0C
06
02
ENDCHAR
STARTCHAR uni3112
ENCODING 12562
BBX 12 12 4 -1
BITMAP
0FF0
F400
0400
0400
0400
0400
0400
0400
0400
0400
0400
0400
ENDCHAR
STARTCHAR uni3113
ENCODING 12563
BBX 13 13 3 0
BITMAP
0200
0100
0120
1110
1120
1120
1120
13E0
1D20
0200
0200
03F8
FC00
ENDCHAR
STARTCHAR uni3114
ENCODING 12564
BBX 9 14 5 -1
BITMAP
0200
0200
0C00
1080
6100
0200
0400
1C00
2400
C400
0400
0400
0400
0400
ENDCHAR
STARTCHAR uni3115
ENCODING 12565
BBX 11 13 3 -1
BITMAP
03E0
3C20
0020
10C0
1FC0
1000
1000
1000
2000
2000
2000
4000
8000
ENDCHAR
STARTCHAR uni3116
ENCODING 12566
BBX 9 13 5 -1
BITMAP
BF80
4080
4080
4080
5080
4880
4480
4480
4080
4080
4080
7F80
0080
ENDCHAR
STARTCHAR uni3117
ENCODING 12567
BBX 10 12 5 -1
BITMAP
07C0
F840
0840
0840
0880
0880
0B00
0800
0800
0800
0800
0800
ENDCHAR
STARTCHAR uni3118
ENCODING 12568
BBX 13 14 3 -1
BITMAP
0200
0200
0200
0200
03F8
FC00
0400
0FE0
0020
0020
0040
0080
0100
0200
ENDCHAR
STARTCHAR uni3119
ENCODING 12569
BBX 11 12 4 1
BITMAP
0400
0600
0400
0400
0400
0800
1000
1080
2040
2040
43E0
FC20
ENDCHAR
STARTCHAR uni311A
ENCODING 12570
BBX 11 15 4 -2
BITMAP
0020
C020
2040
1980
0600
0400
0400
0400
0400
0400
0400
0400
0400
0400
0400
ENDCHAR
STARTCHAR uni311B
ENCODING 12571
BBX 12 11 3 0
BITMAP
05F0
FA00
0200
0200
0600
0800
1000
2000
2010
1830
0FC0
ENDCHAR
STARTCHAR uni311C
ENCODING 12572
BBX 13 13 3 0
BITMAP
0200
0200
0200
0200
0FF8
F200
0200
0600
1800
1000
2010
1060
0FC0
ENDCHAR
STARTCHAR uni311D
ENCODING 12573
BBX 14 13 3 0
BITMAP
0040
1040
0840
0840
0840
0BFC
FC40
0880
0880
0880
0900
0800
07F0
ENDCHAR
STARTCHAR uni311E
ENCODING 12574
BBX 12 13 4 -1
BITMAP
02F0
FD00
1100
1100
1200
2FE0
7220
0420
0420
0840
1040
6080
8080
ENDCHAR
STARTCHAR uni311F
ENCODING 12575
BBX 10 13 6 -1
BITMAP
0E00
F400
0400
0400
0400
0400
0200
0200
0200
0100
0100
0080
0040
ENDCHAR
STARTCHAR uni3120
ENCODING 12576
BBX 10 14 5 -1
BITMAP
0400
0800
0800
1080
2100
4100
F200
0C00
0800
1100
2080
4F80
F040
0040
ENDCHAR
STARTCHAR uni3121
ENCODING 12577
BBX 10 11 5 0
BITMAP
0780
F840
0080
2080
1900
0600
0600
0900
1180
2080
C040
ENDCHAR
STARTCHAR uni3122
ENCODING 12578
BBX 11 12 4 -1
BITMAP
0F80
F040
1040
2080
2080
5FC0
6020
0020
0040
0040
0080
0100
ENDCHAR
STARTCHAR uni3123
ENCODING 12579
BBX 10 14 4 -1
BITMAP
2000
3000
2000
2000
2000
4000
5F80
E040
0040
0040
0080
0080
0100
0100
ENDCHAR
STARTCHAR uni3124
ENCODING 12580
BBX 14 13 4 0
BITMAP
0200
0200
0200
0200
03F0
FD00
0500
0A00
0A00
1200
1100
6100
80FC
ENDCHAR
STARTCHAR uni3125
ENCODING 12581
BBX 11 12 4 1
BITMAP
0400
0200
0200
0400
0400
0800
0800
1000
2000
4000
5FE0
E000
ENDCHAR
STARTCHAR uni3126
ENCODING 12582
BBX 14 13 3 0
BITMAP
0080
0080
0880
0880
0880
0880
0880
0880
0880
1080
1084
2084
C07C
ENDCHAR
STARTCHAR uni3127
ENCODING 12583
BBX 2 15 8 -2
BITMAP
C0
40
40
40
40
40
40
40
40
40
40
40
40
40
40
ENDCHAR
STARTCHAR uni3128
ENCODING 12584
BBX 10 12 4 0
BITMAP
0040
4080
2080
1100
0900
0600
0600
0A00
0900
3080
40C0
8040
ENDCHAR
STARTCHAR uni3129
ENCODING 12585
BBX 11 11 3 0
BITMAP
0060
2020
2020
2020
2020
2020
2020
4020
4020
47E0
F820
ENDCHAR
STARTCHAR uni3220
ENCODING 12832
BBX 17 17 1 -3
BITMAP
200200
200200
400100
400100
800080
800080
800480
BFFC80
800080
800080
800080
800080
800080
400100
400100
200200
200000
ENDCHAR
STARTCHAR uni3221
ENCODING 12833
BBX 17 17 1 -3
BITMAP
200200
200200
400100
400900
8FF880
800080
800080
800080
800080
800080
800080
800080
800480
7FFD00
400100
200200
200000
ENDCHAR
STARTCHAR uni3222
ENCODING 12834
BBX 17 17 1 -3
BITMAP
200200
200200
400900
4FFD00
800080
800080
800080
801080
8FF080
800080
800080
800080
800480
7FFD00
400100
200200
200000
ENDCHAR
STARTCHAR uni3223
ENCODING 12835
BBX 17 17 1 -3
BITMAP
200200
200200
4FFD00
514900
914880
914880
924880
924880
924880
927880
940880
900880
8FF880
500900
500900
200200
200000
ENDCHAR
STARTCHAR uni3224
ENCODING 12836
BBX 17 17 1 -3
BITMAP
200200
200200
5FFD00
410100
810080
810080
810080
8FF080
811080
821080
821080
821080
822480
7FFD00
400100
200200
200000
ENDCHAR
STARTCHAR uni3225
ENCODING 12837
BBX 17 17 1 -3
BITMAP
200200
208200
408100
404100
800480
9FFE80
800080
800080
832080
821080
841080
840880
880880
500500
400100
200200
200000
ENDCHAR
STARTCHAR uni3226
ENCODING 12838
BBX 17 17 1 -3
BITMAP
200200
210200
410100
410100
810080
810C80
81F080
870080
B90080
810080
810080
810480
810480
410500
41F900
200200
200000
ENDCHAR
STARTCHAR uni3227
ENCODING 12839
BBX 17 17 1 -3
BITMAP
200200
204200
404100
434100
824080
824080
824080
824080
842080
842080
841080
881080
880880
500D00
400100
200200
200000
ENDCHAR
STARTCHAR uni3228
ENCODING 12840
BBX 17 17 1 -3
BITMAP
200200
210200
410100
410100
812080
9FE080
812080
812080
812080
822080
822080
822080
842480
442500
483D00
200200
200000
ENDCHAR
STARTCHAR uni3229
ENCODING 12841
BBX 17 17 1 -3
BITMAP
200200
208200
408100
408100
808080
808080
808480
BFFC80
808080
808080
808080
808080
808080
408100
408100
208200
200000
ENDCHAR
STARTCHAR uni3231
ENCODING 12849
BBX 15 15 2 -2
BITMAP
2008
4844
4944
8D42
BDFA
9242
9BFE
94C2
ACE2
A962
C952
8A4C
4844
4844
0808
ENDCHAR
STARTCHAR uni32A3
ENCODING 12963
BBX 15 15 2 -2
BITMAP
07C0
1830
2018
5FF4
4104
8102
8D12
88F2
8902
8902
4912
7FFC
2008
1830
07C0
ENDCHAR
STARTCHAR uni338E
ENCODING 13198
BBX 16 13 2 -4
BITMAP
0018
F727
C924
8922
8922
8924
8918
8920
893E
DBA1
0041
0042
003C
ENDCHAR
STARTCHAR uni338F
ENCODING 13199
BBX 14 16 3 -4
BITMAP
4000
4000
4000
4060
449C
4890
5088
6088
5090
5860
4880
44F8
EE84
0104
0108
00F0
ENDCHAR
STARTCHAR uni339C
ENCODING 13212
BBX 17 9 1 0
BITMAP
767F00
494900
494900
494900
494900
494900
494900
494900
FB6D80
ENDCHAR
STARTCHAR uni339D
ENCODING 13213
BBX 15 10 2 0
BITMAP
0040
3BBC
4532
4122
8122
8122
8122
8122
4522
7BB6
ENDCHAR
STARTCHAR uni339E
ENCODING 13214
BBX 15 13 2 0
BITMAP
C000
4000
4000
4000
4DFC
4924
5124
6124
5124
5124
4924
4524
EFB6
ENDCHAR
STARTCHAR uni33A1
ENCODING 13217
BBX 12 12 4 0
BITMAP
0030
0010
1010
EBA0
4CF0
4480
4480
4480
4480
4480
4480
EDC0
ENDCHAR
STARTCHAR uni33C4
ENCODING 13252
BBX 13 9 3 0
BITMAP
3870
4488
4080
4100
8100
8100
4100
4088
38F0
ENDCHAR
STARTCHAR uni33CE
ENCODING 13262
BBX 17 13 1 0
BITMAP
E6C380
444300
446300
486500
506500
606500
605500
505500
485900
485900
444900
444900
E6C380
ENDCHAR
STARTCHAR uni33D1
ENCODING 13265
BBX 11 13 4 0
BITMAP
C000
4000
4000
4280
4740
4220
4220
4220
4220
4220
4220
4220
E660
ENDCHAR
STARTCHAR uni33D2
ENCODING 13266
BBX 15 17 2 -4
BITMAP
C000
4000
4000
4000
4618
4926
5124
5124
5124
5124
5138
5140
4B3C
E442
0042
0042
003C
ENDCHAR
STARTCHAR uni33D5
ENCODING 13269
BBX 15 13 2 0
BITMAP
002C
0004
0004
0004
7624
4964
4924
4924
4924
4924
4924
4924
FB6E
ENDCHAR
STARTCHAR uni4E00
ENCODING 19968
BBX 16 2 2 5
BITMAP
01FF
FE00
ENDCHAR
STARTCHAR uni4E01
ENCODING 19969
BBX 14 13 3 -2
BITMAP
01FC
FE00
0100
0100
0100
0100
0100
0100
0100
0100
0B00
0700
0200
ENDCHAR
STARTCHAR uni4E02
ENCODING 19970
BBX 15 14 2 -2
BITMAP
00FE
FF00
0200
0200
0400
0FF0
0C38
0010
0010
0030
0020
0020
01E0
00C0
ENDCHAR
STARTCHAR uni4E03
ENCODING 19971
BBX 15 13 2 -1
BITMAP
0300
0300
0100
0100
0104
011E
01E0
0700
7900
C102
0102
0186
00FC
ENDCHAR
STARTCHAR uni4E04
ENCODING 19972
BBX 15 13 2 -2
BITMAP
0100
0100
0100
0100
0100
0100
0100
0100
0100
0100
0100
03FE
FC00
ENDCHAR
STARTCHAR uni4E05
ENCODING 19973
BBX 15 15 2 -3
BITMAP
06FE
F900
0100
0100
0100
0100
0100
0100
0100
0100
0100
0100
0100
0100
0100
ENDCHAR
STARTCHAR uni4E06
ENCODING 19974
BBX 16 11 2 -1
BITMAP
06FF
F980
0180
0100
0100
0100
0200
0200
0400
0800
3000
ENDCHAR
STARTCHAR uni4E07
ENCODING 19975
BBX 15 13 2 -1
BITMAP
00FE
FF00
0100
0100
0300
03F0
0218
0430
0C20
0820
1060
62C0
81C0
ENDCHAR
STARTCHAR uni4E08
ENCODING 19976
BBX 16 17 2 -3
BITMAP
0100
0180
0180
0100
0100
0178
07C0
3D00
1100
0900
0500
0200
0300
0480
1860
E038
001F
ENDCHAR
STARTCHAR uni4E09
ENCODING 19977
BBX 16 12 2 0
BITMAP
0030
0FF0
0000
0000
0000
00E0
0F00
0000
0000
0000
03FF
FC00
ENDCHAR
STARTCHAR uni4E0A
ENCODING 19978
BBX 16 14 2 -1
BITMAP
0180
0180
0100
0100
0118
01F0
0100
0100
0100
0100
0100
013F
1FFF
E000
ENDCHAR
STARTCHAR uni4E0B
ENCODING 19979
BBX 15 14 3 -2
BITMAP
05FE
FA00
0200
0200
0380
0260
0230
0200
0200
0200
0200
0200
0200
0200
ENDCHAR
STARTCHAR uni4E0C
ENCODING 19980
BBX 16 15 2 -3
BITMAP
007F
FFA0
0630
0410
0410
0420
0420
0420
0420
0820
0820
1020
2020
0020
0020
ENDCHAR
STARTCHAR uni4E0D
ENCODING 19981
BBX 14 13 3 -1
BITMAP
01FC
7E80
0180
0300
0200
0600
0E40
1A30
321C
420C
8200
0200
0200
ENDCHAR
STARTCHAR uni4E0E
ENCODING 19982
BBX 13 16 3 -3
BITMAP
0C00
0C00
0C00
0BF0
0800
0800
09F8
1E08
0008
0018
0FD0
F010
0010
00B0
0060
0040
ENDCHAR
STARTCHAR uni4E0F
ENCODING 19983
BBX 14 16 3 -3
BITMAP
01FC
FE00
0300
0200
23F0
2218
2210
2210
2FF0
7010
0030
0020
0020
0360
01C0
0080
ENDCHAR
STARTCHAR uni4E10
ENCODING 19984
BBX 14 15 3 -3
BITMAP
07FC
FA00
0200
23E0
3200
2200
23E0
7C30
6020
0020
0020
0060
01C0
01C0
0080
ENDCHAR
STARTCHAR uni4E11
ENCODING 19985
BBX 17 13 1 -1
BITMAP
003800
07D800
011800
011800
011800
01F000
0F9000
021000
021000
022000
027F00
FF8380
600000
ENDCHAR
STARTCHAR uni4E12
ENCODING 19986
BBX 14 14 3 -2
BITMAP
00F8
1F0C
0308
0208
1A08
0618
0710
0910
1030
20E0
4060
0000
01FC
FE00
ENDCHAR
STARTCHAR uni4E13
ENCODING 19987
BBX 15 17 2 -3
BITMAP
0180
0180
0180
0170
0FC0
0100
01FE
FE00
0200
07F0
0430
0020
0440
0380
0180
00C0
0040
ENDCHAR
STARTCHAR uni4E14
ENCODING 19988
BBX 16 14 2 -1
BITMAP
0070
0FB8
0430
0430
07B0
0430
0430
0430
07A0
0420
0420
0420
07FF
F800
ENDCHAR
STARTCHAR uni4E15
ENCODING 19989
BBX 14 13 2 -1
BITMAP
007C
3FC0
0080
0100
0300
0700
0D70
191C
2104
C100
0000
0FFC
7000
ENDCHAR
STARTCHAR uni4E16
ENCODING 19990
BBX 17 14 2 -1
BITMAP
001000
011800
019800
191000
091000
091300
0FFF80
F91000
091000
09F000
090000
080000
0FFC00
080000
ENDCHAR
STARTCHAR uni4E17
ENCODING 19991
BBX 17 13 1 -1
BITMAP
000400
10C600
08C400
08C400
08C400
08FF80
FF4400
084400
088400
088400
088400
09FC00
0E0000
ENDCHAR
STARTCHAR uni4E18
ENCODING 19992
BBX 16 14 2 -1
BITMAP
00C0
00E0
0180
0300
0400
0C00
0CF8
0FC0
0460
0440
0440
0440
04FF
FB00
ENDCHAR
STARTCHAR uni4E19
ENCODING 19993
BBX 13 14 3 -2
BITMAP
01E0
3E00
0600
0600
05F8
FE08
8408
8708
4988
5008
4018
C018
4070
0030
ENDCHAR
STARTCHAR uni4E1A
ENCODING 19994
BBX 16 13 2 0
BITMAP
0040
0440
0640
0640
0448
044C
2448
1450
1460
0440
0480
07FF
F801
ENDCHAR
STARTCHAR uni4E1B
ENCODING 19995
BBX 16 14 2 -1
BITMAP
0060
0C60
0860
0840
0840
0840
14A0
16A0
2090
6118
860F
0800
01F8
7E0C
ENDCHAR
STARTCHAR uni4E1C
ENCODING 19996
BBX 12 17 4 -3
BITMAP
0400
0400
0C00
0BE0
FC00
1000
2600
2400
47C0
FC00
0400
4440
C230
8610
1610
0C00
0400
ENDCHAR
STARTCHAR uni4E1D
ENCODING 19997
BBX 15 13 3 -1
BITMAP
0830
1820
1040
2248
2498
79F0
0820
1040
7CF8
2080
0000
1FFE
E000
ENDCHAR
STARTCHAR uni4E1E
ENCODING 19998
BBX 16 14 2 -1
BITMAP
01F0
0E38
0060
0184
0084
0ED8
14A0
0490
0898
108C
2287
C180
0100
3FFC
ENDCHAR
STARTCHAR uni4E1F
ENCODING 19999
BBX 16 15 2 -2
BITMAP
0010
03F0
0C80
0080
00F0
0F80
0080
0080
00FF
FF00
0120
0210
0478
1F88
1808
ENDCHAR
STARTCHAR uni4E20
ENCODING 20000
BBX 15 15 2 -2
BITMAP
00C0
0C40
0440
0440
044C
7C90
0460
0480
0C82
F442
4442
043E
0000
00FE
FF00
ENDCHAR
STARTCHAR uni4E21
ENCODING 20001
BBX 14 14 3 -2
BITMAP
03E0
3E00
0200
0278
FF8C
C20C
5A48
4A48
4BC8
5C48
4008
4008
4078
0030
ENDCHAR
STARTCHAR uni4E22
ENCODING 20002
BBX 16 14 2 -1
BITMAP
0060
01C0
0E80
0080
00F0
0F80
0080
00FF
FF00
0100
0230
0478
1F98
1808
ENDCHAR
STARTCHAR uni4E23
ENCODING 20003
BBX 14 15 3 -3
BITMAP
007C
FFC0
04C0
0498
04EC
7C88
4488
44F8
7C80
4880
0880
1880
1080
2080
4080
ENDCHAR
STARTCHAR uni4E24
ENCODING 20004
BBX 13 14 3 -1
BITMAP
00E0
3F00
0980
0900
09F0
FF18
8918
9110
9ED0
A250
8410
8010
8070
0030
ENDCHAR
STARTCHAR uni4E25
ENCODING 20005
BBX 15 16 1 -3
BITMAP
007C
0FC0
0160
012C
0D50
0540
01FE
1E00
1000
1000
1000
1000
2000
2000
4000
8000
ENDCHAR
STARTCHAR uni4E26
ENCODING 20006
BBX 15 16 3 -2
BITMAP
0040
0060
0840
0C80
01F8
7E80
0480
0480
0498
44B0
64A0
24C0
0480
0480
0FFE
F000
ENDCHAR
STARTCHAR uni4E27
ENCODING 20007
BBX 16 16 3 -2
BITMAP
0300
0200
0200
03E0
1F20
1240
1A80
0200
03FC
FC00
1230
1140
1080
1260
1C3C
301F
ENDCHAR
STARTCHAR uni4E28
ENCODING 20008
BBX 2 16 9 -3
BITMAP
80
C0
80
80
80
80
80
80
80
80
80
80
80
80
80
80
ENDCHAR
STARTCHAR uni4E29
ENCODING 20009
BBX 7 17 6 -3
BITMAP
04
02
02
02
42
42
42
5E
E2
82
02
02
02
02
02
02
02
ENDCHAR
STARTCHAR uni4E2A
ENCODING 20010
BBX 17 16 2 -3
BITMAP
018000
010000
038000
024000
066000
0C3000
099800
110E00
610780
810000
010000
010000
010000
010000
010000
010000
ENDCHAR
STARTCHAR uni4E2B
ENCODING 20011
BBX 10 16 5 -3
BITMAP
00C0
C0C0
6100
2600
1800
0800
0800
0800
0800
0800
0800
0800
0800
0800
0800
0800
ENDCHAR
STARTCHAR uni4E2C
ENCODING 20012
BBX 5 14 6 -2
BITMAP
08
08
08
48
28
08
08
18
68
C8
08
08
08
08
ENDCHAR
STARTCHAR uni4E2D
ENCODING 20013
BBX 12 17 4 -3
BITMAP
0C00
0400
0400
0400
07F0
FC30
8420
4460
7FE0
4400
0400
0400
0400
0400
0400
0400
0400
ENDCHAR
STARTCHAR uni4E2E
ENCODING 20014
BBX 15 14 2 -2
BITMAP
03F0
7C20
0820
0820
0F20
3820
0820
0FA0
F820
0820
0832
081A
080E
0800
ENDCHAR
STARTCHAR uni4E2F
ENCODING 20015
BBX 10 16 5 -3
BITMAP
1800
0800
0900
0F00
1800
E900
0B00
0C00
78C0
0B80
0C00
F800
0800
0800
0800
0800
ENDCHAR
STARTCHAR uni4E30
ENCODING 20016
BBX 15 16 3 -3
BITMAP
0300
0300
0100
01F0
1F00
0100
01E0
0F00
0100
0FFE
F100
0100
0100
0100
0200
0200
ENDCHAR
STARTCHAR uni4E31
ENCODING 20017
BBX 14 16 3 -3
BITMAP
0C80
0CC0
8CCC
4488
4488
4488
4488
5C98
68E8
4888
0880
0880
1080
2080
4080
0080
ENDCHAR
STARTCHAR uni4E32
ENCODING 20018
BBX 12 17 4 -3
BITMAP
0800
0400
0400
07C0
7C60
44C0
3F80
2400
07E0
FC30
C440
7FC0
4400
0400
0400
0400
0400
ENDCHAR
STARTCHAR uni4E33
ENCODING 20019
BBX 13 17 3 -3
BITMAP
0100
0D80
0580
05F0
7F30
2560
3FE0
0500
07F8
FD18
4910
7FF0
4900
1100
1100
2100
4100
ENDCHAR
STARTCHAR uni4E34
ENCODING 20020
BBX 15 15 2 -2
BITMAP
1040
1840
0880
88FC
4900
4940
4A30
4800
483C
4BC6
1244
1258
11F8
1000
1000
ENDCHAR
STARTCHAR uni4E35
ENCODING 20021
BBX 14 18 3 -4
BITMAP
0100
0080
0490
24B0
2500
07FC
F840
0080
0880
1FE0
0200
07F8
FA00
0200
0200
0200
0200
0200
ENDCHAR
STARTCHAR uni4E36
ENCODING 20022
BBX 6 3 7 5
BITMAP
F8
1C
04
ENDCHAR
STARTCHAR uni4E37
ENCODING 20023
BBX 9 6 5 4
BITMAP
0100
0180
C100
6200
2200
0400
ENDCHAR
STARTCHAR uni4E38
ENCODING 20024
BBX 16 14 2 -1
BITMAP
0200
0300
0300
0300
02F0
0F20
3220
0240
0C40
0640
0841
1041
2041
C03F
ENDCHAR
STARTCHAR uni4E39
ENCODING 20025
BBX 16 15 2 -2
BITMAP
01E0
0630
0420
0520
04A0
0420
07FF
FC20
0420
0C20
0820
0820
10A0
2060
0020
ENDCHAR
STARTCHAR uni4E3A
ENCODING 20026
BBX 13 16 3 -2
BITMAP
0080
00C0
1880
0880
0180
01F8
7F08
0208
0618
0490
0890
1010
2010
C0B0
0060
0040
ENDCHAR
STARTCHAR uni4E3B
ENCODING 20027
BBX 16 15 2 -2
BITMAP
0180
0080
0000
0000
03F0
0F00
0100
0100
01E0
0F00
0100
0100
0100
07FF
F800
ENDCHAR
STARTCHAR uni4E3C
ENCODING 20028
BBX 15 16 2 -2
BITMAP
0060
0820
0420
0420
04F8
3F20
0520
05A0
05FE
FE20
0820
0820
1820
1060
2060
4060
ENDCHAR
STARTCHAR uni4E3D
ENCODING 20029
BBX 14 13 3 -1
BITMAP
07FC
F800
0000
3CF0
4510
4510
4510
5550
4510
4510
4510
4930
0930
ENDCHAR
STARTCHAR uni4E3E
ENCODING 20030
BBX 16 17 2 -3
BITMAP
0010
0130
0920
0840
00FE
7F40
0C20
0930
1158
278E
4103
87F0
1900
0100
0100
0100
0100
ENDCHAR
STARTCHAR uni4E3F
ENCODING 20031
BBX 8 15 4 -2
BITMAP
02
03
03
03
02
02
02
02
02
02
04
04
08
10
E0
ENDCHAR
STARTCHAR uni4E40
ENCODING 20032
BBX 14 11 4 0
BITMAP
0F00
3200
C200
0100
0100
0080
0080
00C0
0040
0070
003C
ENDCHAR
STARTCHAR uni4E41
ENCODING 20033
BBX 15 11 3 0
BITMAP
0780
7880
8080
0040
0040
0040
0020
0020
0010
0018
001E
ENDCHAR
STARTCHAR uni4E42
ENCODING 20034
BBX 15 14 4 -2
BITMAP
00C0
0080
0080
C080
2180
1100
0900
0600
0600
0700
1980
30E0
C07E
0038
ENDCHAR
STARTCHAR uni4E43
ENCODING 20035
BBX 13 14 3 -1
BITMAP
00E0
0F60
3440
0440
0880
09F0
0818
1018
1010
2010
2030
4020
81E0
00C0
ENDCHAR
STARTCHAR uni4E44
ENCODING 20036
BBX 12 13 3 -1
BITMAP
0030
0030
0020
0060
0040
0440
0380
0180
02C0
0660
8C20
F800
E000
ENDCHAR
STARTCHAR uni4E45
ENCODING 20037
BBX 15 14 3 -1
BITMAP
0600
0600
0400
0FC0
0980
1100
2100
4200
0700
0480
0840
1060
6030
803E
ENDCHAR
STARTCHAR uni4E46
ENCODING 20038
BBX 15 15 3 -2
BITMAP
0300
0100
2100
2100
2100
2100
2600
7B00
6280
0480
0440
0820
1030
601E
8000
ENDCHAR
STARTCHAR uni4E47
ENCODING 20039
BBX 16 15 2 -2
BITMAP
0080
00C0
0380
0E00
1200
0200
0238
03C0
7E00
C200
0200
0201
0203
0107
00FE
ENDCHAR
STARTCHAR uni4E48
ENCODING 20040
BBX 12 13 4 -1
BITMAP
0400
0C00
18C0
10C0
2180
4100
8200
0400
0880
1040
21E0
FE30
C030
ENDCHAR
STARTCHAR uni4E49
ENCODING 20041
BBX 16 14 3 -1
BITMAP
0040
0060
0640
0240
2040
18C0
0880
0480
0300
0100
0280
0C60
3038
C01F
ENDCHAR
STARTCHAR uni4E4A
ENCODING 20042
BBX 8 7 6 4
BITMAP
06
1C
E2
03
82
C4
08
ENDCHAR
STARTCHAR uni4E4B
ENCODING 20043
BBX 17 14 2 -1
BITMAP
040000
030000
010000
00F800
076000
38C000
018000
030000
040000
080000
F80000
078000
00FF80
001C00
ENDCHAR
STARTCHAR uni4E4C
ENCODING 20044
BBX 14 17 2 -3
BITMAP
0300
0200
05C0
1EC0
0880
0880
0B80
0900
08F8
1F0C
1008
0008
0FC8
F008
0058
0030
0030
ENDCHAR
STARTCHAR uni4E4D
ENCODING 20045
BBX 14 17 2 -3
BITMAP
0400
0600
0400
0C0C
08F8
1F00
1100
2100
41F0
8100
0138
01C0
0100
0100
0300
0300
0200
ENDCHAR
STARTCHAR uni4E4E
ENCODING 20046
BBX 16 17 2 -3
BITMAP
0020
00F0
0700
0088
0098
0CB0
0480
07FF
F880
0080
0080
0080
0080
0080
0780
0300
0100
ENDCHAR
STARTCHAR uni4E4F
ENCODING 20047
BBX 16 15 2 -2
BITMAP
0180
0380
0C00
3400
0300
00F0
0F70
30C0
0180
0200
0C00
F800
0780
00FF
003C
ENDCHAR
STARTCHAR uni4E50
ENCODING 20048
BBX 13 15 4 -2
BITMAP
01C0
0700
3800
2400
2200
23F0
7E00
4200
0200
0240
4230
C218
8208
0E00
0600
ENDCHAR
STARTCHAR uni4E51
ENCODING 20049
BBX 16 16 2 -3
BITMAP
0060
00C0
0F00
0108
0118
0D30
19C0
3140
4520
0D10
0918
110F
2100
C100
0100
0100
ENDCHAR
STARTCHAR uni4E52
ENCODING 20050
BBX 16 16 2 -2
BITMAP
0040
0070
09C0
0E00
0400
0438
07E0
0440
0440
047F
0F80
F200
0300
0400
0800
3000
ENDCHAR
STARTCHAR uni4E53
ENCODING 20051
BBX 16 15 2 -2
BITMAP
0060
00E0
0F00
0400
0418
05E0
0640
0440
047F
1F80
E040
0020
0010
0018
0008
ENDCHAR
STARTCHAR uni4E54
ENCODING 20052
BBX 16 16 3 -3
BITMAP
00C0
03C0
0600
0230
07C0
7C80
0840
18E0
34B0
649F
8480
0880
0880
3080
4080
0080
ENDCHAR
STARTCHAR uni4E55
ENCODING 20053
BBX 16 16 1 -3
BITMAP
001C
00F0
1F40
185C
09F0
187F
17C0
107C
13E4
1244
1244
224C
2248
4040
8040
0040
ENDCHAR
STARTCHAR uni4E56
ENCODING 20054
BBX 15 17 3 -3
BITMAP
00C0
0700
1B00
03FE
FD00
0100
0148
0950
1960
2944
0944
393C
4100
0100
0100
0100
0200
ENDCHAR
STARTCHAR uni4E57
ENCODING 20055
BBX 16 17 2 -3
BITMAP
0040
01C0
0F00
0130
1FE0
1130
09FF
FF20
0920
09FC
7700
0580
0D60
1130
211F
C300
0100
ENDCHAR
STARTCHAR uni4E58
ENCODING 20056
BBX 17 17 2 -3
BITMAP
004000
01C000
070000
017C00
3F8000
014000
055800
1D6000
0D4400
35B800
034000
053000
091800
310F80
C10000
010000
010000
ENDCHAR
STARTCHAR uni4E59
ENCODING 20057
BBX 13 14 4 -1
BITMAP
0200
0F00
F600
0C00
1800
1000
2000
4000
4000
8008
8008
8008
4078
3FF0
ENDCHAR
STARTCHAR uni4E5A
ENCODING 20058
BBX 9 14 6 -2
BITMAP
8000
C000
C000
C000
8000
8000
8000
8000
8000
8000
8000
8080
4080
7F80
ENDCHAR
STARTCHAR uni4E5B
ENCODING 20059
BBX 14 3 3 8
BITMAP
00F8
3F0C
C010
ENDCHAR
STARTCHAR uni4E5C
ENCODING 20060
BBX 15 14 3 -1
BITMAP
1000
1800
1800
10C0
1140
1640
1840
7080
9180
1002
1002
1802
080E
07FC
ENDCHAR
STARTCHAR uni4E5D
ENCODING 20061
BBX 16 14 2 -1
BITMAP
0300
0100
0100
0300
02F0
0F20
7240
0440
0440
0C40
0841
1041
6041
803F
ENDCHAR
STARTCHAR uni4E5E
ENCODING 20062
BBX 14 16 3 -2
BITMAP
0400
0400
0800
19E0
1F00
2000
C000
0780
7A00
0400
0800
1804
1004
1004
181C
07F8
ENDCHAR
STARTCHAR uni4E5F
ENCODING 20063
BBX 16 15 2 -1
BITMAP
0200
0300
0300
0300
0230
12E0
1320
1620
1A20
3260
D241
1201
0801
0C07
03FC
ENDCHAR
STARTCHAR uni4E60
ENCODING 20064
BBX 11 14 4 -2
BITMAP
03E0
7C20
0020
1020
1820
0160
0640
1840
F040
C040
0040
04C0
0380
0100
ENDCHAR
STARTCHAR uni4E61
ENCODING 20065
BBX 11 17 3 -3
BITMAP
0100
0300
0200
0420
0860
10C0
3F20
0220
0FE0
3E40
1040
0080
0100
0200
0C00
3000
C000
ENDCHAR
STARTCHAR uni4E62
ENCODING 20066
BBX 16 14 2 -1
BITMAP
0060
1040
1840
1840
0840
0A40
4A40
4A40
4E40
7A41
C041
0041
0043
003F
ENDCHAR
STARTCHAR uni4E63
ENCODING 20067
BBX 16 15 2 -2
BITMAP
0040
1860
1840
1040
2440
2640
4440
F840
1080
2480
2680
FA81
C042
0043
003E
ENDCHAR
STARTCHAR uni4E64
ENCODING 20068
BBX 13 15 4 -2
BITMAP
03F0
FC00
0400
0580
04C0
0400
0400
0780
7980
0600
0C00
3008
2008
2018
1FF0
ENDCHAR
STARTCHAR uni4E65
ENCODING 20069
BBX 13 15 4 -2
BITMAP
0180
0700
7860
0040
6080
1100
0780
FB80
0600
1800
3008
4008
C008
C018
3FF0
ENDCHAR
STARTCHAR uni4E66
ENCODING 20070
BBX 13 17 3 -3
BITMAP
0400
0600
0230
0218
03E0
3E20
0260
0240
02F8
FF08
4608
0618
0650
0630
0420
0400
0400
ENDCHAR
STARTCHAR uni4E67
ENCODING 20071
BBX 14 16 3 -2
BITMAP
0080
0C80
0680
0080
1880
00FC
FF80
0080
03C0
1CC0
0300
0600
0804
1004
100C
0FF8
ENDCHAR
STARTCHAR uni4E68
ENCODING 20072
BBX 16 14 2 -1
BITMAP
0860
0820
1020
1020
2240
4740
F940
8040
0440
7F40
4241
4642
3C63
203E
ENDCHAR
STARTCHAR uni4E69
ENCODING 20073
BBX 16 14 2 -2
BITMAP
20C0
1040
1040
1040
1E40
1040
1040
1440
BE40
4480
4441
7C42
4043
003E
ENDCHAR
STARTCHAR uni4E6A
ENCODING 20074
BBX 15 13 3 -2
BITMAP
1838
FFCC
1448
2278
23E8
2248
4248
43F8
4204
4004
4004
600E
1FF8
ENDCHAR
STARTCHAR uni4E6B
ENCODING 20075
BBX 15 16 2 -2
BITMAP
0800
0C00
0C3C
0F44
3944
0948
127C
2240
6600
81E0
1EC0
0102
0602
0802
1806
0FFC
ENDCHAR
STARTCHAR uni4E6C
ENCODING 20076
BBX 13 15 4 -2
BITMAP
00C0
FF00
4000
4780
7880
4380
7F00
4000
47E0
F900
0608
1808
2008
4038
3FE0
ENDCHAR
STARTCHAR uni4E6D
ENCODING 20077
BBX 15 15 3 -2
BITMAP
01E0
1E00
0600
04E0
0F20
1820
6BE0
8400
07C0
39C0
0600
0804
3004
301E
0FF8
ENDCHAR
STARTCHAR uni4E6E
ENCODING 20078
BBX 13 15 4 -2
BITMAP
1870
E190
4910
4910
7970
C920
1100
2100
C780
7B00
0408
1808
2008
6038
3FF0
ENDCHAR
STARTCHAR uni4E6F
ENCODING 20079
BBX 14 16 3 -2
BITMAP
0040
01C0
0E10
1120
1900
07FC
F900
0100
0600
03C0
1CC0
0300
0C04
1004
101C
0FF8
ENDCHAR
STARTCHAR uni4E70
ENCODING 20080
BBX 14 15 3 -2
BITMAP
01F0
7E38
0020
0100
1900
0100
3100
0900
07FC
FA00
0200
04C0
0860
3030
4018
ENDCHAR
STARTCHAR uni4E71
ENCODING 20081
BBX 17 14 2 -1
BITMAP
003000
023000
072000
182000
042000
04A000
0F2000
F42000
082000
3FA000
112000
112080
1E2180
101F00
ENDCHAR
STARTCHAR uni4E72
ENCODING 20082
BBX 14 17 3 -3
BITMAP
0100
0100
6100
2270
03B0
1500
2100
C280
C460
083C
0080
7FC0
0600
0808
1008
201C
1FF0
ENDCHAR
STARTCHAR uni4E73
ENCODING 20083
BBX 16 15 2 -2
BITMAP
0700
1820
01A0
4A20
2020
0720
7A20
0420
0720
0C20
F420
0421
0421
1C1F
0800
ENDCHAR
STARTCHAR uni4E74
ENCODING 20084
BBX 15 16 3 -2
BITMAP
1000
1810
1060
0D80
719E
0DF0
7130
9120
3220
1020
03C0
3D80
0604
1804
300C
1FF8
ENDCHAR
STARTCHAR uni4E75
ENCODING 20085
BBX 16 16 2 -3
BITMAP
0800
0420
0320
3C20
0220
2220
07A0
F820
8820
0B20
7C21
0821
0821
081F
0800
0800
ENDCHAR
STARTCHAR uni4E76
ENCODING 20086
BBX 14 17 3 -3
BITMAP
0260
0230
07FC
FAF0
3F30
17D0
1210
1F90
3230
0000
07C0
3980
0604
1804
2004
1FFC
0100
ENDCHAR
STARTCHAR uni4E77
ENCODING 20087
BBX 14 16 3 -2
BITMAP
0100
0180
3100
0538
C500
5D20
2040
2080
C300
4780
7900
0600
1808
2008
201C
1FF0
ENDCHAR
STARTCHAR uni4E78
ENCODING 20088
BBX 17 15 1 -2
BITMAP
0C0000
040C00
043600
043400
0B2C00
252700
39FC00
295400
E94400
2AFC00
2A8780
201C80
100880
180380
07FE00
ENDCHAR
STARTCHAR uni4E79
ENCODING 20089
BBX 16 16 2 -3
BITMAP
0400
0420
3F30
0830
0FB0
79A0
3DA0
2120
3F20
0420
0FA0
F421
0421
0C21
0C1F
0800
ENDCHAR
STARTCHAR uni4E7A
ENCODING 20090
BBX 16 15 2 -2
BITMAP
060C
1C70
2080
3E87
22F8
3E88
2088
4108
81E8
1ED0
0102
0602
0802
180E
0FF8
ENDCHAR
STARTCHAR uni4E7B
ENCODING 20091
BBX 16 15 2 -2
BITMAP
0C20
0460
0750
F88C
0CB7
1310
2460
4430
8C00
03E0
1CC0
0304
0C04
100E
1FF8
ENDCHAR
STARTCHAR uni4E7C
ENCODING 20092
BBX 14 15 3 -2
BITMAP
20C0
1000
0078
47C0
10F0
23C0
2080
C0FC
4F00
03C0
3D84
0604
1804
201C
1FF0
ENDCHAR
STARTCHAR uni4E7D
ENCODING 20093
BBX 15 16 3 -2
BITMAP
0600
0230
03E0
1FFE
FD00
07E0
0860
3F40
CFC0
0800
03C0
3D80
0604
1804
200C
1FF8
ENDCHAR
STARTCHAR uni4E7E
ENCODING 20094
BBX 16 16 2 -2
BITMAP
0820
0430
0B20
1C20
085C
0E60
7380
3A30
22D0
3E20
0840
0F40
7841
C841
0843
083E
ENDCHAR
STARTCHAR uni4E7F
ENCODING 20095
BBX 16 15 2 -2
BITMAP
0C40
3860
0320
9420
5040
2440
7840
5040
2640
F840
0842
4B42
C923
B83E
1000
ENDCHAR
STARTCHAR uni4E80
ENCODING 20096
BBX 14 16 3 -2
BITMAP
0C00
0F80
1100
23C0
7D40
5E40
2480
3FE0
3C30
C4A0
5F20
4420
5FC4
6404
020C
01F8
ENDCHAR
STARTCHAR uni4E81
ENCODING 20097
BBX 17 16 1 -2
BITMAP
041000
041800
041000
0F2000
183E00
0F4000
710000
3D0800
267C00
1E1000
181000
07A000
FC2080
084080
082180
081F80
ENDCHAR
STARTCHAR uni4E82
ENCODING 20098
BBX 16 15 2 -2
BITMAP
0E00
3020
0320
D420
4E20
7420
1E20
F320
9A40
B140
9941
8921
9921
A723
831F
ENDCHAR
STARTCHAR uni4E83
ENCODING 20099
BBX 17 16 1 -2
BITMAP
040000
060000
02D000
151800
07D000
7C1000
0D9000
341000
451000
31D000
2D1000
4FD000
351100
211100
411180
810F80
ENDCHAR
STARTCHAR uni4E84
ENCODING 20100
BBX 16 15 2 -2
BITMAP
0C20
0430
1E30
2A20
1C20
03A0
7CE0
8020
9E20
0020
0F21
3221
1D21
1E1F
E000
ENDCHAR
STARTCHAR uni4E85
ENCODING 20101
BBX 4 17 6 -3
BITMAP
20
30
30
30
10
10
10
10
10
10
10
10
10
10
F0
70
20
ENDCHAR
STARTCHAR uni4E86
ENCODING 20102
BBX 10 14 5 -2
BITMAP
03C0
FCC0
0100
0200
0C00
0400
0400
0400
0400
0400
0400
0400
1C00
0800
ENDCHAR
STARTCHAR uni4E87
ENCODING 20103
BBX 13 17 4 -3
BITMAP
0800
1800
1800
31F0
3E38
4020
8600
0200
0200
0200
0200
0200
0200
0200
1E00
0E00
0400
ENDCHAR
STARTCHAR uni4E88
ENCODING 20104
BBX 14 16 3 -3
BITMAP
01C0
3EE0
0080
0700
0300
00F8
3F0C
C310
0100
0100
0100
0100
0100
0300
0E00
0600
ENDCHAR
STARTCHAR uni4E89
ENCODING 20105
BBX 16 18 2 -3
BITMAP
0200
0300
02E0
0540
0880
01F0
1F18
0118
017F
FF90
0110
1FF8
0100
0100
0100
0100
0700
0300
ENDCHAR
STARTCHAR uni4E8A
ENCODING 20106
BBX 16 17 2 -3
BITMAP
0100
0180
01FF
FF00
0110
0D20
0178
1F88
01FF
FF10
0178
1F80
0100
0100
0100
0700
0100
ENDCHAR
STARTCHAR uni4E8B
ENCODING 20107
BBX 14 17 3 -3
BITMAP
0200
0200
07FC
FA00
3FE0
1240
1FC0
03E0
1E20
07FC
FA20
0FE0
1200
0200
0200
0E00
0400
ENDCHAR
STARTCHAR uni4E8C
ENCODING 20108
BBX 16 9 2 1
BITMAP
0FF0
0000
0000
0000
0000
0000
0000
01FF
FE03
ENDCHAR
STARTCHAR uni4E8D
ENCODING 20109
BBX 15 15 3 -3
BITMAP
07C0
0C00
0000
01FE
FE00
8100
0100
0100
0100
0100
0100
0100
0F00
0700
0200
ENDCHAR
STARTCHAR uni4E8E
ENCODING 20110
BBX 14 15 3 -3
BITMAP
01E0
1F00
0300
0200
07FC
F900
0100
0100
0100
0100
0300
0300
0E00
0600
0400
ENDCHAR
STARTCHAR uni4E8F
ENCODING 20111
BBX 16 15 2 -2
BITMAP
01F0
0700
0000
000E
07FF
FA00
0200
05E0
0E30
0020
0020
0020
0040
01C0
0180
ENDCHAR
STARTCHAR uni4E90
ENCODING 20112
BBX 16 15 2 -2
BITMAP
0070
0F80
0100
0106
07FF
FA00
0400
0DF0
0E30
0030
0020
0020
0020
01C0
00C0
ENDCHAR
STARTCHAR uni4E91
ENCODING 20113
BBX 16 12 2 0
BITMAP
0070
0FC0
0000
0000
01FF
FE00
0300
0200
0420
0830
1FD8
3008
ENDCHAR
STARTCHAR uni4E92
ENCODING 20114
BBX 15 13 2 -1
BITMAP
0078
1F80
0100
0300
03E0
0230
0420
07E0
0C40
0040
0040
01FE
FE00
ENDCHAR
STARTCHAR uni4E93
ENCODING 20115
BBX 14 15 3 -3
BITMAP
01F0
7E00
0000
0000
17FC
E880
0880
0880
1080
1080
1080
2080
4080
0080
0080
ENDCHAR
STARTCHAR uni4E94
ENCODING 20116
BBX 17 13 2 -1
BITMAP
003800
0FE000
018000
010000
010000
017000
1FB000
023000
022000
022000
042000
0FFF80
F00000
ENDCHAR
STARTCHAR uni4E95
ENCODING 20117
BBX 16 17 2 -3
BITMAP
0040
0060
0640
0640
04F8
1F40
0440
0440
07FF
FC40
0440
0440
0840
1840
3040
4040
0040
ENDCHAR
STARTCHAR uni4E96
ENCODING 20118
BBX 15 14 2 -2
BITMAP
00F0
0FC0
0000
0000
03FC
7C00
0000
0000
0FE0
0000
0000
0000
07FE
F800
ENDCHAR
STARTCHAR uni4E97
ENCODING 20119
BBX 15 15 3 -2
BITMAP
0300
0300
0118
2118
3110
27F0
3800
0000
0FE0
0000
0000
0000
0000
1FFE
E000
ENDCHAR
STARTCHAR uni4E98
ENCODING 20120
BBX 16 13 2 -1
BITMAP
03F0
0C00
0000
00F0
1F18
0810
0FB0
0830
0820
07E0
0000
07FF
F800
ENDCHAR
STARTCHAR uni4E99
ENCODING 20121
BBX 16 13 2 -1
BITMAP
01F8
1F00
0200
0200
04F0
0730
0A20
09A0
1C20
1340
0040
03FF
FC00
ENDCHAR
STARTCHAR uni4E9A
ENCODING 20122
BBX 16 12 2 0
BITMAP
00F8
1F80
0640
0248
024C
2248
1250
1A60
0240
0280
03FE
FC03
ENDCHAR
STARTCHAR uni4E9B
ENCODING 20123
BBX 15 15 2 -2
BITMAP
0040
0C40
0440
044C
2770
2440
2442
1542
1E3E
E000
01C0
0600
0000
03FC
3C00
ENDCHAR
STARTCHAR uni4E9C
ENCODING 20124
BBX 16 13 2 -1
BITMAP
03F8
1C40
0640
0240
03F8
3E48
1258
1278
1FC0
1240
0480
07FF
F800
ENDCHAR
STARTCHAR uni4E9D
ENCODING 20125
BBX 15 15 2 -2
BITMAP
0180
0240
0460
0F90
0020
0020
0848
145C
26E4
7800
03F0
0C00
0000
01FE
FE00
ENDCHAR
STARTCHAR uni4E9E
ENCODING 20126
BBX 15 14 2 -2
BITMAP
00F8
1F80
0640
0240
02B8
2E48
3008
1010
1E78
1240
0240
0440
07FE
F800
ENDCHAR
STARTCHAR uni4E9F
ENCODING 20127
BBX 16 14 2 -1
BITMAP
0020
03F0
1C60
0080
010C
013C
1D08
2D28
2918
392C
0144
0300
03FF
FC01
ENDCHAR
STARTCHAR uni4EA0
ENCODING 20128
BBX 16 6 2 5
BITMAP
0300
0180
0080
0000
00FF
FF00
ENDCHAR
STARTCHAR uni4EA1
ENCODING 20129
BBX 16 14 2 -1
BITMAP
0180
0180
0080
0000
00FF
FF00
0C00
0800
0800
0800
0800
0838
1FF8
0800
ENDCHAR
STARTCHAR uni4EA2
ENCODING 20130
BBX 15 15 3 -1
BITMAP
0200
0180
0080
01FC
FE00
0000
0180
0E80
0880
0900
0900
1902
1082
2086
C07E
ENDCHAR
STARTCHAR uni4EA3
ENCODING 20131
BBX 14 16 3 -3
BITMAP
0600
0300
0000
0000
01FC
FE40
0840
0840
0840
0840
1840
1040
2040
4040
8040
0040
ENDCHAR
STARTCHAR uni4EA4
ENCODING 20132
BBX 14 15 4 -2
BITMAP
0C00
0600
03F0
FC00
0100
10C0
2240
4300
1200
0A00
0400
0B00
3180
C0F8
003C
ENDCHAR
STARTCHAR uni4EA5
ENCODING 20133
BBX 15 16 3 -2
BITMAP
0200
0300
0100
05FE
FA00
0600
0440
08C0
19C0
1F60
0240
0480
1980
2260
CC30
0010
ENDCHAR
STARTCHAR uni4EA6
ENCODING 20134
BBX 14 15 3 -2
BITMAP
0300
0100
0000
1BFC
E580
0480
0480
44B0
4898
C888
8888
1080
3180
4380
8100
ENDCHAR
STARTCHAR uni4EA7
ENCODING 20135
BBX 14 17 2 -3
BITMAP
0180
0080
0078
0FA0
0020
0240
107C
1F80
1000
1000
1000
1000
3000
2000
6000
4000
8000
ENDCHAR
STARTCHAR uni4EA8
ENCODING 20136
BBX 15 17 3 -3
BITMAP
0300
0100
0FFE
F000
03E0
0C40
0BC0
0400
01E0
1E60
0380
0100
0080
0080
0180
0700
0300
ENDCHAR
STARTCHAR uni4EA9
ENCODING 20137
BBX 15 15 3 -2
BITMAP
0300
0180
0000
00FE
FF00
0000
0000
3FF8
2118
13D0
1510
1110
1EF0
1030
0020
ENDCHAR
STARTCHAR uni4EAA
ENCODING 20138
BBX 15 16 4 -2
BITMAP
0C00
0600
02F0
FD00
0900
4940
4960
D320
9200
2080
3FC0
C040
0040
0060
0030
001E
ENDCHAR
STARTCHAR uni4EAB
ENCODING 20139
BBX 16 17 2 -3
BITMAP
0180
0080
00FC
3F00
0FF0
0460
0780
00F0
0F60
0180
00FF
FF80
0080
0080
0080
0380
0180
ENDCHAR
STARTCHAR uni4EAC
ENCODING 20140
BBX 15 16 3 -2
BITMAP
0300
0180
0000
07FE
F800
01E0
0E60
0840
09C0
0700
0100
1130
2118
2108
0700
0200
ENDCHAR
STARTCHAR uni4EAD
ENCODING 20141
BBX 15 17 2 -3
BITMAP
0300
0100
03F8
3C00
03C0
0C40
07C0
0000
40FC
7F06
C7F8
9900
0100
0100
0100
0700
0300
ENDCHAR
STARTCHAR uni4EAE
ENCODING 20142
BBX 14 17 3 -3
BITMAP
0600
0200
07F0
7800
1FC0
0880
0F00
03F8
7C1C
8100
8F00
0900
0900
0904
110C
60F8
8000
ENDCHAR
STARTCHAR uni4EAF
ENCODING 20143
BBX 14 17 3 -3
BITMAP
0600
0300
01FC
FE00
00C0
0340
1C40
08C0
0FC0
01F0
7E18
2390
3E10
2010
2FF0
1020
0020
ENDCHAR
STARTCHAR uni4EB0
ENCODING 20144
BBX 13 17 4 -3
BITMAP
0600
0200
0000
07F8
F800
03C0
3C60
3F40
2080
1F80
0200
4240
4230
C210
8600
0E00
0400
ENDCHAR
STARTCHAR uni4EB1
ENCODING 20145
BBX 16 17 2 -3
BITMAP
0300
0180
0008
03FC
3C00
0C00
0BFC
1108
31E8
3108
51E8
9110
1000
1000
10FF
1300
1000
ENDCHAR
STARTCHAR uni4EB2
ENCODING 20146
BBX 15 16 3 -2
BITMAP
0300
0180
0020
1FE0
0040
0440
01FE
FE00
0100
03F8
3D00
0120
1130
3118
2500
0300
ENDCHAR
STARTCHAR uni4EB3
ENCODING 20147
BBX 14 18 3 -3
BITMAP
0400
0300
03E0
3C80
0F80
0880
0F00
00F8
FF0C
8010
8300
0C00
0400
07C0
3C08
4408
0618
03F0
ENDCHAR
STARTCHAR uni4EB4
ENCODING 20148
BBX 14 16 3 -2
BITMAP
0300
01F0
3E00
03C0
0C80
0FF8
7F0C
4390
8F70
7F80
0600
07C0
3C80
0484
0884
307C
ENDCHAR
STARTCHAR uni4EB5
ENCODING 20149
BBX 15 18 3 -3
BITMAP
0400
0300
03F0
3D00
1880
0DE0
3140
0940
F148
9238
1648
0D40
1880
2840
C938
0E1E
1C00
0800
ENDCHAR
STARTCHAR uni4EB6
ENCODING 20150
BBX 15 17 3 -3
BITMAP
0200
0300
01FC
FE00
3FF0
2BB0
2520
17E0
1800
03E0
1C20
1F20
1040
1FC0
0040
3FFE
C000
ENDCHAR
STARTCHAR uni4EB7
ENCODING 20151
BBX 17 17 1 -3
BITMAP
008000
004000
003C00
0FE000
032000
007C00
1FA000
093C00
0BFF00
1FE800
113800
17E000
113000
232C00
2D2780
512000
812000
ENDCHAR
STARTCHAR uni4EB8
ENCODING 20152
BBX 16 16 2 -3
BITMAP
180C
0888
1E50
E01E
1DE2
653E
38A4
1CBC
64FC
1820
0C7F
F9A0
8820
0820
3020
1020
ENDCHAR
STARTCHAR uni4EB9
ENCODING 20153
BBX 16 17 2 -3
BITMAP
0300
0100
017C
7E98
17C8
3E78
2F70
15FE
7E07
41E0
8E20
0FA0
0820
0FA0
0820
0FFC
7000
ENDCHAR
STARTCHAR uni4EBA
ENCODING 20154
BBX 17 13 2 -1
BITMAP
018000
018000
010000
030000
020000
030000
048000
0C4000
082000
103000
201800
C00F80
000400
ENDCHAR
STARTCHAR uni4EBB
ENCODING 20155
BBX 6 15 6 -2
BITMAP
04
0C
0C
08
10
38
28
48
88
08
08
08
18
18
10
ENDCHAR
STARTCHAR uni4EBC
ENCODING 20156
BBX 15 15 3 -2
BITMAP
0300
0200
0200
0200
0600
0500
0C80
0840
1060
2038
C01E
0000
0000
07F8
7800
ENDCHAR
STARTCHAR uni4EBD
ENCODING 20157
BBX 15 14 3 -1
BITMAP
0600
0200
0600
0500
0880
1860
3030
401E
8000
0000
0800
0600
0300
0180
ENDCHAR
STARTCHAR uni4EBE
ENCODING 20158
BBX 14 14 3 -2
BITMAP
0100
0100
0100
4200
4300
4780
44C0
4860
583C
6000
4000
8000
80F0
FF08
ENDCHAR
STARTCHAR uni4EBF
ENCODING 20159
BBX 17 15 1 -1
BITMAP
040000
060000
040000
0C0800
087C00
199000
282000
482000
884000
088000
088000
090100
090100
198380
10FF00
ENDCHAR
STARTCHAR uni4EC0
ENCODING 20160
BBX 16 16 2 -3
BITMAP
0860
0C20
0820
1820
1020
303F
2FE0
4820
8820
0820
1020
1020
1020
1020
0020
0020
ENDCHAR
STARTCHAR uni4EC1
ENCODING 20161
BBX 17 15 1 -2
BITMAP
060000
060000
040000
0C0000
083E00
18E000
280000
680000
C80000
080000
087F80
0B8000
080000
080000
080000
ENDCHAR
STARTCHAR uni4EC2
ENCODING 20162
BBX 16 15 1 -2
BITMAP
0430
0630
0430
0C20
0822
107F
19A2
2822
4842
8842
0846
0884
0904
0A1C
0808
ENDCHAR
STARTCHAR uni4EC3
ENCODING 20163
BBX 16 15 1 -2
BITMAP
0400
0400
0800
080F
11F0
2810
4810
8810
0810
0810
0810
0818
1818
1870
0030
ENDCHAR
STARTCHAR uni4EC4
ENCODING 20164
BBX 17 14 1 -2
BITMAP
087C00
078000
040000
046000
044000
084000
084000
084000
18A000
109000
211800
220C00
4C0780
800000
ENDCHAR
STARTCHAR uni4EC5
ENCODING 20165
BBX 17 14 2 -1
BITMAP
0C0000
080000
183800
13D800
201000
331000
509000
90A000
106000
106000
109000
170C00
100F80
100000
ENDCHAR
STARTCHAR uni4EC6
ENCODING 20166
BBX 16 16 2 -2
BITMAP
0040
0420
0620
0C20
0820
1820
1820
283C
4827
8821
0820
0820
0820
0820
0820
0020
ENDCHAR
STARTCHAR uni4EC7
ENCODING 20167
BBX 17 14 1 -1
BITMAP
064000
046000
0C6000
084000
107C00
28C800
4B4800
884800
088800
089000
089000
191080
1A1080
140F80
ENDCHAR
STARTCHAR uni4EC8
ENCODING 20168
BBX 16 16 2 -2
BITMAP
0800
0C00
18C0
1040
3020
2020
6020
6120
A110
2310
2218
2608
240C
280F
2000
2000
ENDCHAR
STARTCHAR uni4EC9
ENCODING 20169
BBX 17 15 1 -2
BITMAP
040000
060000
0C1000
08F800
188800
189000
289000
489000
889000
089080
091080
091880
0A0F80
180000
080000
ENDCHAR
STARTCHAR uni4ECA
ENCODING 20170
BBX 17 16 2 -2
BITMAP
010000
018000
010000
028000
064000
042000
081800
118C00
208F80
C1E000
1E6000
004000
00C000
008000
018000
010000
ENDCHAR
STARTCHAR uni4ECB
ENCODING 20171
BBX 17 17 2 -3
BITMAP
030000
030000
030000
028000
044000
083000
189800
304E00
644780
844000
044000
084000
084000
104000
204000
00C000
004000
ENDCHAR
STARTCHAR uni4ECC
ENCODING 20172
BBX 16 15 3 -2
BITMAP
0300
0300
0200
0580
0860
1830
2308
4300
0200
0200
0500
0480
0860
3038
C01F
ENDCHAR
STARTCHAR uni4ECD
ENCODING 20173
BBX 16 15 1 -2
BITMAP
0400
0C04
09FE
0844
1068
2848
284E
C8C3
0883
0882
0902
0A02
1C06
081C
000C
ENDCHAR
STARTCHAR uni4ECE
ENCODING 20174
BBX 16 14 2 -1
BITMAP
0040
0060
0820
0820
0860
0840
1060
1860
1450
2690
2288
410C
8307
0400
ENDCHAR
STARTCHAR uni4ECF
ENCODING 20175
BBX 16 16 1 -3
BITMAP
0600
0600
0418
0C18
0810
1830
2820
2820
C840
0842
0887
09F9
0981
0800
0800
0800
ENDCHAR
STARTCHAR uni4ED0
ENCODING 20176
BBX 16 18 3 -4
BITMAP
0600
0600
0600
0500
08C0
1060
2638
421F
8200
0200
07F8
FA00
0200
0200
0200
0200
0200
0200
ENDCHAR
STARTCHAR uni4ED1
ENCODING 20177
BBX 16 16 2 -2
BITMAP
0200
0300
0300
0680
0440
0820
1018
201F
4840
88C0
0B00
0C00
0800
0810
0438
03F0
ENDCHAR
STARTCHAR uni4ED2
ENCODING 20178
BBX 15 16 3 -2
BITMAP
0600
0600
0600
0500
0880
1060
2030
401E
8700
0100
0000
0000
0800
0600
0380
0080
ENDCHAR
STARTCHAR uni4ED3
ENCODING 20179
BBX 17 16 2 -2
BITMAP
010000
030000
030000
068000
046000
083000
11DC00
2E4F80
484000
88C000
0A8000
098000
080000
080800
041800
03F000
ENDCHAR
STARTCHAR uni4ED4
ENCODING 20180
BBX 17 15 1 -2
BITMAP
040000
0C1C00
08E600
080800
101000
283000
683F80
CBD000
081000
081800
101800
101800
101800
107000
003000
ENDCHAR
STARTCHAR uni4ED5
ENCODING 20181
BBX 17 14 1 -1
BITMAP
0C2000
043000
0C3000
083000
103000
103000
283F80
4BE000
882000
082000
082000
083F00
19C000
180000
ENDCHAR
STARTCHAR uni4ED6
ENCODING 20182
BBX 16 14 2 -1
BITMAP
1040
1840
1040
1048
2278
32C8
5348
9670
1251
1241
1201
1107
30FC
3000
ENDCHAR
STARTCHAR uni4ED7
ENCODING 20183
BBX 18 15 1 -2
BITMAP
001000
061000
041000
041000
081300
183C00
38D000
691000
88A000
086000
082000
085000
098C00
0A0F00
0803C0
ENDCHAR
STARTCHAR uni4ED8
ENCODING 20184
BBX 17 15 1 -2
BITMAP
040800
060800
040800
0C0800
080800
180F80
1BF800
280800
488800
88C800
080800
080800
080800
083800
001800
ENDCHAR
STARTCHAR uni4ED9
ENCODING 20185
BBX 17 15 0 -2
BITMAP
060000
061000
041000
0C1000
081000
181100
241180
451180
889180
089100
093F00
09C100
090100
080000
080000
ENDCHAR
STARTCHAR uni4EDA
ENCODING 20186
BBX 16 16 3 -2
BITMAP
0200
0300
0600
0500
0C80
1860
3038
401F
8200
0200
0230
2210
2210
2270
7F90
6010
ENDCHAR
STARTCHAR uni4EDB
ENCODING 20187
BBX 17 16 1 -3
BITMAP
040000
0C1800
086000
088000
134000
304000
305E00
50E000
974000
104080
104080
104080
106180
103F00
100000
100000
ENDCHAR
STARTCHAR uni4EDC
ENCODING 20188
BBX 17 16 1 -3
BITMAP
040000
040000
0C0000
080600
18FC00
103000
303000
483000
883000
083000
102000
102000
187F80
1B8000
100000
100000
ENDCHAR
STARTCHAR uni4EDD
ENCODING 20189
BBX 16 15 2 -1
BITMAP
0200
0300
0200
0700
0480
0860
1030
201E
400F
81C0
0F00
0100
0100
0200
7FF8
ENDCHAR
STARTCHAR uni4EDE
ENCODING 20190
BBX 16 15 1 -2
BITMAP
0600
0400
0C0F
09F3
1813
1812
2822
4922
8922
0842
0842
0886
090C
0A0C
0800
ENDCHAR
STARTCHAR uni4EDF
ENCODING 20191
BBX 17 16 1 -3
BITMAP
040C00
041C00
0C6000
099000
101000
281F80
2FF000
481000
881000
081000
081000
081000
181000
081000
001000
001000
ENDCHAR
STARTCHAR uni4EE0
ENCODING 20192
BBX 17 16 1 -3
BITMAP
040000
0C0000
081E00
08F000
103000
183000
283F80
4BD000
881000
081000
081000
081000
181000
183000
102000
002000
ENDCHAR
STARTCHAR uni4EE1
ENCODING 20193
BBX 17 15 1 -2
BITMAP
043000
062000
046000
084E00
08F000
190000
2A0000
487800
889000
082000
084000
084080
084080
084180
083F80
ENDCHAR
STARTCHAR uni4EE2
ENCODING 20194
BBX 16 16 1 -3
BITMAP
0430
0630
0C20
0840
18CF
10F3
2901
4A01
8843
0863
0803
0802
1802
181E
100E
0004
ENDCHAR
STARTCHAR uni4EE3
ENCODING 20195
BBX 16 16 1 -2
BITMAP
0180
0080
0C8C
0C84
0840
105C
1870
2BC0
4820
8820
0820
0810
0818
180D
0807
0003
ENDCHAR
STARTCHAR uni4EE4
ENCODING 20196
BBX 17 16 2 -2
BITMAP
030000
030000
030000
068000
044000
086000
103000
331C00
410F80
83C000
3C6000
008000
050000
020000
030000
018000
ENDCHAR
STARTCHAR uni4EE5
ENCODING 20197
BBX 14 13 3 -1
BITMAP
0018
0218
4318
6018
2010
2410
2430
3820
3060
60D8
C18C
4204
0C00
ENDCHAR
STARTCHAR uni4EE6
ENCODING 20198
BBX 17 15 1 -2
BITMAP
082000
0C3000
081000
181000
101000
301000
381200
511100
911180
131080
121000
101000
101000
107000
103000
ENDCHAR
STARTCHAR uni4EE7
ENCODING 20199
BBX 15 15 3 -2
BITMAP
0600
0600
0260
0380
0200
0200
03F8
FC00
0600
0600
0600
0D00
08C0
1070
603E
ENDCHAR
STARTCHAR uni4EE8
ENCODING 20200
BBX 17 15 1 -2
BITMAP
060000
040000
040000
081C00
18E000
180000
280000
483C00
88C000
080000
080000
081F80
0BE000
080000
080000
ENDCHAR
STARTCHAR uni4EE9
ENCODING 20201
BBX 17 15 1 -2
BITMAP
042000
063000
043000
082000
082000
102000
283E00
282000
C82000
082000
082000
082000
083F80
1FC080
180000
ENDCHAR
STARTCHAR uni4EEA
ENCODING 20202
BBX 17 14 1 -1
BITMAP
040000
0C8C00
084C00
084C00
100800
198800
288800
485000
883000
083000
087800
098C00
0E0780
080200
ENDCHAR
STARTCHAR uni4EEB
ENCODING 20203
BBX 16 15 1 -2
BITMAP
0400
0620
0420
0864
0846
188C
2988
4B10
8810
0824
0846
08BB
09C3
0801
0800
ENDCHAR
STARTCHAR uni4EEC
ENCODING 20204
BBX 15 15 2 -2
BITMAP
0800
0900
109C
1226
2204
3204
5204
9204
1204
1206
1206
1206
1206
120C
0004
ENDCHAR
STARTCHAR uni4EED
ENCODING 20205
BBX 18 15 1 -2
BITMAP
040000
0C0000
081C00
1BE600
102600
3A4400
394400
50C400
906400
109400
118C00
110F00
124BC0
143000
103000
ENDCHAR
STARTCHAR uni4EEE
ENCODING 20206
BBX 18 16 1 -3
BITMAP
0C0400
0C0E00
09F000
108000
108000
308800
31FC00
510800
914800
112800
111800
121000
122C00
14C700
1803C0
100000
ENDCHAR
STARTCHAR uni4EEF
ENCODING 20207
BBX 17 16 1 -3
BITMAP
042000
061000
041000
081000
181300
101180
291000
491600
891600
080400
080C00
080800
181000
182000
10C000
010000
ENDCHAR
STARTCHAR uni4EF0
ENCODING 20208
BBX 16 16 1 -3
BITMAP
0C00
0C60
08C2
133F
1111
2913
4912
8952
0996
0B16
0A10
1810
1010
1010
0010
0010
ENDCHAR
STARTCHAR uni4EF1
ENCODING 20209
BBX 17 17 1 -3
BITMAP
004000
0C6000
0C6000
086000
18D000
109800
310C00
310700
526380
942000
103800
13D800
101000
101000
103000
106000
004000
ENDCHAR
STARTCHAR uni4EF2
ENCODING 20210
BBX 17 16 1 -3
BITMAP
023000
061000
041000
0C1000
081F00
19F180
291300
491200
88FE00
081000
081000
081000
081000
081000
001000
002000
ENDCHAR
STARTCHAR uni4EF3
ENCODING 20211
BBX 17 14 1 -1
BITMAP
0C0000
0C1800
081800
0A1000
111200
311400
29D800
491000
891000
091000
09D080
1B1080
1A0F80
100000
ENDCHAR
STARTCHAR uni4EF4
ENCODING 20212
BBX 16 15 1 -2
BITMAP
0600
0406
0CFF
0842
1042
387A
2842
4842
887A
0882
0882
0882
1902
190E
1206
ENDCHAR
STARTCHAR uni4EF5
ENCODING 20213
BBX 17 16 1 -3
BITMAP
042000
042000
0C4000
087E00
109000
391000
281F80
4BF000
881000
081000
081000
081000
181000
081000
001000
001000
ENDCHAR
STARTCHAR uni4EF6
ENCODING 20214
BBX 17 16 1 -3
BITMAP
041000
041000
041000
089000
189E00
19F800
291000
4A1F80
8BF000
081000
081000
081000
081000
081000
001000
002000
ENDCHAR
STARTCHAR uni4EF7
ENCODING 20215
BBX 18 15 1 -2
BITMAP
042000
046000
0C5000
08C800
108400
390700
2A99C0
CC9000
089000
088800
088800
108800
111800
121800
001000
ENDCHAR
STARTCHAR uni4EF8
ENCODING 20216
BBX 17 15 1 -2
BITMAP
040C00
041C00
0C3000
08C000
102000
102300
28FC00
4B2000
882000
107000
104800
10CC00
118600
120380
100000
ENDCHAR
STARTCHAR uni4EF9
ENCODING 20217
BBX 17 16 1 -3
BITMAP
0C2000
0C2000
082400
103E00
13E000
302000
50F800
912000
103F80
17E000
102000
102000
102000
302000
102000
002000
ENDCHAR
STARTCHAR uni4EFA
ENCODING 20218
BBX 17 16 2 -2
BITMAP
010000
030000
030000
068000
046000
083000
101C00
20FF80
DF8000
100000
10F000
1F8000
100000
100000
17F800
180000
ENDCHAR
STARTCHAR uni4EFB
ENCODING 20219
BBX 17 14 1 -1
BITMAP
040000
040C00
0C7000
09A000
102000
382000
283F80
4FE000
882000
082000
082000
082000
183E00
1BC000
ENDCHAR
STARTCHAR uni4EFC
ENCODING 20220
BBX 17 15 1 -2
BITMAP
040000
040000
080600
087C00
11A000
302000
282000
483C00
89E000
102000
102000
102000
10FF80
170000
100000
ENDCHAR
STARTCHAR uni4EFD
ENCODING 20221
BBX 18 15 1 -2
BITMAP
046000
041000
081000
08C800
108400
190700
2901C0
4A3C00
8DC400
084400
084C00
188800
188800
113800
021000
ENDCHAR
STARTCHAR uni4EFE
ENCODING 20222
BBX 17 16 1 -3
BITMAP
040000
040600
08FC00
082000
106000
304000
307E00
508C00
908800
11F800
101000
101000
101000
17FF80
100000
100000
ENDCHAR
STARTCHAR uni4EFF
ENCODING 20223
BBX 17 15 1 -2
BITMAP
060000
063000
041000
080000
180F80
19F000
283000
483800
884400
084400
088C00
090800
1E4800
183800
003000
ENDCHAR
STARTCHAR uni4F00
ENCODING 20224
BBX 18 15 1 -2
BITMAP
0C0000
0C2000
081000
100800
10C800
308400
510700
9203C0
146000
104000
108800
111C00
13E400
120400
100000
ENDCHAR
STARTCHAR uni4F01
ENCODING 20225
BBX 17 15 2 -2
BITMAP
030000
030000
030000
048000
086000
1A3000
311C00
610F80
81E000
110000
090000
090000
090000
0FFC00
700000
ENDCHAR
STARTCHAR uni4F02
ENCODING 20226
BBX 16 16 1 -3
BITMAP
0C30
0C20
082F
17F0
1020
302E
51F2
9122
1122
1122
1126
1020
1020
1020
1020
0020
ENDCHAR
STARTCHAR uni4F03
ENCODING 20227
BBX 17 17 1 -3
BITMAP
080000
0C3C00
08CC00
080800
105000
103000
301F00
53E380
903000
101000
101000
101000
101000
101000
101000
107000
002000
ENDCHAR
STARTCHAR uni4F04
ENCODING 20228
BBX 16 16 1 -3
BITMAP
041E
0DE6
0824
1024
103C
31E0
4920
913F
13E1
1221
1021
1026
1022
1020
1020
0020
ENDCHAR
STARTCHAR uni4F05
ENCODING 20229
BBX 17 15 1 -2
BITMAP
086000
0C6000
086000
104C00
10F000
314000
504400
D24400
125C00
13E800
164800
104080
104080
302180
301F00
ENDCHAR
STARTCHAR uni4F06
ENCODING 20230
BBX 16 15 1 -2
BITMAP
0620
0420
0C40
0840
1087
19F9
2A49
4851
8893
0922
0A22
1842
1886
1B1C
0008
ENDCHAR
STARTCHAR uni4F07
ENCODING 20231
BBX 17 16 1 -3
BITMAP
0C1000
0CF800
089000
189000
109000
308F00
310000
523800
90D800
119000
10D000
103000
107000
10D800
130F00
000780
ENDCHAR
STARTCHAR uni4F08
ENCODING 20232
BBX 17 16 1 -3
BITMAP
040000
0C0000
080000
084000
102000
102300
280100
4A0080
8A8000
0A8400
0E4200
186300
181F00
100000
100000
100000
ENDCHAR
STARTCHAR uni4F09
ENCODING 20233
BBX 17 15 1 -2
BITMAP
047000
0C3000
080000
183F00
17C000
301000
70F800
509000
909000
109080
109080
119080
111080
120F80
140000
ENDCHAR
STARTCHAR uni4F0A
ENCODING 20234
BBX 18 15 1 -2
BITMAP
0C0000
0C1E00
09E600
082400
102FC0
37F400
284400
487C00
8BC000
084000
084000
088000
188000
110000
120000
ENDCHAR
STARTCHAR uni4F0B
ENCODING 20235
BBX 18 15 1 -2
BITMAP
081C00
0DEC00
08C800
10C800
109000
309C00
308400
518800
914800
122800
141000
102800
10C700
1303C0
100000
ENDCHAR
STARTCHAR uni4F0C
ENCODING 20236
BBX 17 16 1 -3
BITMAP
080400
0C3C00
09E000
190000
110000
317C00
314400
514400
914800
115800
134000
124080
124080
146180
143F00
180000
ENDCHAR
STARTCHAR uni4F0D
ENCODING 20237
BBX 17 15 1 -2
BITMAP
060000
040000
0C3E00
08E000
182000
282000
687C00
C9C400
084400
084C00
088800
08BF80
1FC000
180000
100000
ENDCHAR
STARTCHAR uni4F0E
ENCODING 20238
BBX 18 15 1 -2
BITMAP
003000
042000
0C2000
082E00
19F000
182000
282000
487800
899800
089000
085000
083000
085C00
1B8700
0803C0
ENDCHAR
STARTCHAR uni4F0F
ENCODING 20239
BBX 17 15 1 -2
BITMAP
044000
0C4000
084C00
184400
104000
307E00
53C000
904000
104000
10A000
109000
119800
130C00
140780
100000
ENDCHAR
STARTCHAR uni4F10
ENCODING 20240
BBX 17 15 2 -2
BITMAP
008000
089800
0CCC00
084000
185C00
107000
2BC000
282C00
483800
883000
085000
0B9800
180C80
100700
100380
ENDCHAR
STARTCHAR uni4F11
ENCODING 20241
BBX 17 17 1 -3
BITMAP
004000
006000
0C6000
084000
184000
107E00
33C000
304000
50E000
91D000
114C00
124700
144380
104000
104000
004000
004000
ENDCHAR
STARTCHAR uni4F12
ENCODING 20242
BBX 16 16 1 -3
BITMAP
0808
0C1C
0960
0880
1080
309F
38E8
5088
9108
1108
1108
1108
1208
1408
1008
0008
ENDCHAR
STARTCHAR uni4F13
ENCODING 20243
BBX 17 17 1 -3
BITMAP
040000
060000
040000
080F80
09F000
101800
181000
282000
482800
886600
08A300
092180
0A2000
182000
182000
182000
002000
ENDCHAR
STARTCHAR uni4F14
ENCODING 20244
BBX 17 15 1 -2
BITMAP
0C0000
0C1C00
09E600
190400
120000
321800
30F800
509000
909000
109000
109000
111080
111080
121080
140F80
ENDCHAR
STARTCHAR uni4F15
ENCODING 20245
BBX 17 16 1 -2
BITMAP
006000
0C2000
0C2000
082000
102C00
10F000
302000
303F00
53E000
906000
105000
105000
108800
110E00
120780
100000
ENDCHAR
STARTCHAR uni4F16
ENCODING 20246
BBX 18 15 1 -2
BITMAP
042000
042000
082000
086600
10F800
314000
284800
48FC00
908800
11C800
112800
121800
162C00
10C700
1003C0
ENDCHAR
STARTCHAR uni4F17
ENCODING 20247
BBX 16 15 2 -1
BITMAP
0100
0100
0300
0300
04C0
0860
103C
2840
0840
0840
1040
38A0
2490
4118
820F
ENDCHAR
STARTCHAR uni4F18
ENCODING 20248
BBX 17 14 1 -1
BITMAP
044000
066000
044C00
084000
184400
18F800
2B4000
48A000
88A000
08A000
092000
0A2080
1C2180
181F00
ENDCHAR
STARTCHAR uni4F19
ENCODING 20249
BBX 16 15 2 -2
BITMAP
0860
0C60
0840
1840
104C
2058
3240
5240
9060
10A0
1090
1118
120C
340F
1000
ENDCHAR
STARTCHAR uni4F1A
ENCODING 20250
BBX 18 16 1 -2
BITMAP
008000
018000
014000
032000
021000
041800
086C00
138780
200040
C0FC00
1F0000
010000
022000
04F000
0F1800
080800
ENDCHAR
STARTCHAR uni4F1B
ENCODING 20251
BBX 17 14 1 -1
BITMAP
080000
0C0E00
09F800
110C00
110800
314800
312800
511800
911C00
112400
114200
110000
117F80
138000
ENDCHAR
STARTCHAR uni4F1C
ENCODING 20252
BBX 17 17 1 -3
BITMAP
006000
0C6000
0C4000
087C00
11C800
104800
308800
510900
922700
102000
10FF80
172000
102000
102000
102000
102000
102000
ENDCHAR
STARTCHAR uni4F1D
ENCODING 20253
BBX 17 15 1 -2
BITMAP
040000
040000
0C1E00
086000
100000
100000
281F80
4BE000
883000
082000
084400
188600
19BF00
11C300
100100
ENDCHAR
STARTCHAR uni4F1E
ENCODING 20254
BBX 17 17 2 -3
BITMAP
030000
030000
028000
044000
0C2000
091800
112C00
212780
4D4000
850000
07FC00
790000
010000
010000
010000
010000
010000
ENDCHAR
STARTCHAR uni4F1F
ENCODING 20255
BBX 16 17 1 -3
BITMAP
0060
0460
0420
0C24
08F8
1020
1838
28E0
483E
8FE3
0822
0822
086E
1844
1840
0040
0040
ENDCHAR
STARTCHAR uni4F20
ENCODING 20256
BBX 16 16 2 -2
BITMAP
0040
0860
0C60
0848
11F0
1040
307F
5780
5080
90B8
11C8
1010
1010
10E0
1060
1030
ENDCHAR
STARTCHAR uni4F21
ENCODING 20257
BBX 17 17 1 -3
BITMAP
082000
0C2000
084400
19F800
108000
20A000
30A000
517E00
93A000
102000
103F80
1FE000
102000
302000
302000
102000
002000
ENDCHAR
STARTCHAR uni4F22
ENCODING 20258
BBX 17 16 1 -2
BITMAP
080000
0C0E00
0CF000
080800
108800
108F80
31F800
511800
902800
106800
10C800
118800
120800
100800
103800
001800
ENDCHAR
STARTCHAR uni4F23
ENCODING 20259
BBX 17 15 1 -2
BITMAP
0C1C00
0DE600
090400
192400
112400
312400
312400
512400
912400
105000
105000
109080
111080
161080
100F80
ENDCHAR
STARTCHAR uni4F24
ENCODING 20260
BBX 15 16 1 -2
BITMAP
0040
0460
0440
089E
08F0
1100
3A30
2820
483E
89E2
0822
0846
0844
1884
111C
0208
ENDCHAR
STARTCHAR uni4F25
ENCODING 20261
BBX 18 15 1 -2
BITMAP
044000
064400
044800
085000
186000
184F00
29F000
4A6000
885000
084800
084C00
084600
0853C0
08E000
088000
ENDCHAR
STARTCHAR uni4F26
ENCODING 20262
BBX 17 15 1 -2
BITMAP
086000
0C6000
084000
086000
109800
310C00
2B0700
4C8380
888800
08B000
10C000
108000
108200
108600
107C00
ENDCHAR
STARTCHAR uni4F27
ENCODING 20263
BBX 18 16 1 -2
BITMAP
004000
0C2000
0C6000
086000
189000
108C00
310600
3203C0
56F800
909800
109000
10B000
108200
108200
108200
107E00
ENDCHAR
STARTCHAR uni4F28
ENCODING 20264
BBX 16 17 1 -3
BITMAP
0020
0630
0420
0C40
0846
10FF
3903
2843
4823
8803
0832
08C2
0B82
1802
1816
180C
000C
ENDCHAR
STARTCHAR uni4F29
ENCODING 20265
BBX 17 15 1 -2
BITMAP
042000
043000
0C1000
080000
180F00
1BF000
281800
689000
885000
085000
082000
087000
19CC00
1A0780
100000
ENDCHAR
STARTCHAR uni4F2A
ENCODING 20266
BBX 16 16 1 -2
BITMAP
0010
0418
0410
0910
08A0
1020
282E
2BF3
4842
8862
10B2
1092
1106
1204
141C
1818
ENDCHAR
STARTCHAR uni4F2B
ENCODING 20267
BBX 16 15 2 -2
BITMAP
0800
0860
1820
1000
301E
33E7
5200
5400
9000
1000
1000
10FE
1700
1000
1000
ENDCHAR
STARTCHAR uni4F2C
ENCODING 20268
BBX 17 14 1 -2
BITMAP
180000
181C00
11E800
110800
211800
31F000
514000
912000
121000
121000
120800
140C00
340780
280000
ENDCHAR
STARTCHAR uni4F2D
ENCODING 20269
BBX 16 15 1 -2
BITMAP
0C70
0C10
0800
107F
13A0
3020
4844
4888
89F0
0990
1028
1046
11FA
1383
1000
ENDCHAR
STARTCHAR uni4F2E
ENCODING 20270
BBX 18 15 1 -2
BITMAP
090000
0D8000
090000
110000
111F00
314200
57C200
D25400
124C00
128C00
118C00
108E00
115300
1241C0
140000
ENDCHAR
STARTCHAR uni4F2F
ENCODING 20271
BBX 15 15 2 -2
BITMAP
0420
0430
0C20
0840
105C
31A6
2904
4904
89F4
0904
0904
1104
11FC
110C
1004
ENDCHAR
STARTCHAR uni4F30
ENCODING 20272
BBX 16 14 1 -1
BITMAP
0430
0430
0C30
0820
102F
1BF0
2820
4820
883C
09C6
0984
0888
18FC
1880
ENDCHAR
STARTCHAR uni4F31
ENCODING 20273
BBX 18 17 1 -3
BITMAP
002000
0C3000
0C2000
085000
10C800
108C00
312600
7233C0
542000
912000
112600
112200
132200
122000
106000
106000
002000
ENDCHAR
STARTCHAR uni4F32
ENCODING 20274
BBX 17 14 1 -1
BITMAP
0C1C00
0DEC00
088800
109800
10E000
308000
492400
892C00
093000
114000
114000
124080
122180
141F00
ENDCHAR
STARTCHAR uni4F33
ENCODING 20275
BBX 17 15 1 -2
BITMAP
040000
0C0600
082600
182400
112400
312400
293F80
4FE400
892400
092400
093C00
192000
190000
111E00
11E000
ENDCHAR
STARTCHAR uni4F34
ENCODING 20276
BBX 16 17 1 -3
BITMAP
0060
0830
0C20
0826
092C
10A0
283C
29E0
4820
883F
0FE0
1020
1020
1020
1020
0020
0020
ENDCHAR
STARTCHAR uni4F35
ENCODING 20277
BBX 17 15 1 -2
BITMAP
0C0000
0C0000
080000
100F00
13F180
325100
725100
525100
929F00
120300
12FA00
110600
100600
100000
100000
ENDCHAR
STARTCHAR uni4F36
ENCODING 20278
BBX 17 16 1 -2
BITMAP
004000
0C6000
0C4000
084000
10A000
109800
310C00
510780
926000
140000
103800
13D800
101000
102000
106000
103000
ENDCHAR
STARTCHAR uni4F37
ENCODING 20279
BBX 16 15 1 -2
BITMAP
0460
0C30
0820
1820
1020
303E
73E3
5223
9232
11E2
1122
1122
11FE
1104
1000
ENDCHAR
STARTCHAR uni4F38
ENCODING 20280
BBX 16 17 1 -3
BITMAP
0040
0420
0C20
0820
082E
13F3
2922
297A
4922
8926
097C
09A4
1820
1820
1020
0020
0020
ENDCHAR
STARTCHAR uni4F39
ENCODING 20281
BBX 17 15 1 -2
BITMAP
040000
040000
083C00
09C400
108400
308400
28E400
488400
908400
10F400
108400
108400
10FF80
170000
100000
ENDCHAR
STARTCHAR uni4F3A
ENCODING 20282
BBX 16 15 0 -2
BITMAP
0600
061E
0463
0C02
087A
1C82
2802
487A
8892
0892
08E2
0802
080E
0806
0006
ENDCHAR
STARTCHAR uni4F3B
ENCODING 20283
BBX 17 16 1 -3
BITMAP
0C0000
0C1C00
08F000
183000
103200
31B400
309000
501F80
97F000
101000
101000
101000
101000
101000
102000
102000
ENDCHAR
STARTCHAR uni4F3C
ENCODING 20284
BBX 17 14 0 -1
BITMAP
060000
040200
0C3300
081300
180200
198200
288200
48A200
88C400
08C400
098F00
091980
083080
084000
ENDCHAR
STARTCHAR uni4F3D
ENCODING 20285
BBX 17 14 1 -1
BITMAP
080000
098000
188000
110000
114300
37DD80
515100
515100
924900
124A00
144F00
158800
188000
100000
ENDCHAR
STARTCHAR uni4F3E
ENCODING 20286
BBX 16 15 1 -2
BITMAP
0400
0C0E
09F8
1810
1020
3020
5060
90AE
1123
1220
1420
1020
10FF
1300
1000
ENDCHAR
STARTCHAR uni4F3F
ENCODING 20287
BBX 16 15 1 -2
BITMAP
0400
0400
0DFF
0886
1084
1884
28FC
4800
8800
0848
08C4
0883
0903
1A01
1800
ENDCHAR
STARTCHAR uni4F40
ENCODING 20288
BBX 16 15 1 -2
BITMAP
0600
061E
04E6
0884
1884
188C
28F8
4880
888E
08F3
0882
0886
08FE
0880
0880
ENDCHAR
STARTCHAR uni4F41
ENCODING 20289
BBX 16 15 1 -2
BITMAP
0610
0430
0C20
0860
1046
1883
29FD
4B80
8800
081E
09E7
0886
1884
18FE
1880
ENDCHAR
STARTCHAR uni4F42
ENCODING 20290
BBX 17 15 1 -2
BITMAP
040000
060000
0C0700
08F800
181000
101000
281000
499E00
889000
089000
089000
089000
18BF80
1B4000
180000
ENDCHAR
STARTCHAR uni4F43
ENCODING 20291
BBX 17 15 1 -2
BITMAP
040000
0C0000
080000
081F00
13E180
393100
291100
491D00
896300
092300
092200
093A00
19C600
180200
100000
ENDCHAR
ENDFONT
